<?xml version="1.0" encoding="UTF-8"?>
<!DOCTYPE svg  PUBLIC '-//W3C//DTD SVG 1.1//EN'  'http://www.w3.org/Graphics/SVG/1.1/DTD/svg11.dtd'>
<svg enable-background="new 0 0 55.05 82.3" version="1.1" viewBox="0 0 55.05 82.3" xml:space="preserve" xmlns="http://www.w3.org/2000/svg" xmlns:xlink="http://www.w3.org/1999/xlink">
<symbol id="o" viewBox="-22.9 -22.65 45.75 45.3">
	<g clip-rule="evenodd" fill-rule="evenodd">
				<path d="m-18.4-12.85c-3 3.8-4.5 8.217-4.5 13.25 0 6.133 2.233 11.383 6.7 15.75 4.467 4.333 9.867 6.5 16.2 6.5 6.3 0 11.683-2.167 16.15-6.5 4.467-4.367 6.7-9.617 6.7-15.75 0-4.033-0.967-7.683-2.9-10.95 1.566 3.033 2.35 6.4 2.35 10.1 0 6.133-2.167 11.367-6.5 15.7s-9.566 6.5-15.7 6.5-11.383-2.167-15.75-6.5c-4.333-4.333-6.5-9.567-6.5-15.7 0-4.667 1.25-8.8 3.75-12.4z" fill="#958475"/>
				<path d="m13.7 13.3c-3.733 3.767-8.267 5.65-13.6 5.65s-9.883-1.883-13.65-5.65-5.65-8.316-5.65-13.65c0-5.333 1.883-9.867 5.65-13.6 3.767-3.767 8.316-5.65 13.65-5.65 5.333 0 9.867 1.883 13.6 5.65 3.767 3.733 5.65 8.267 5.65 13.6s-1.883 9.883-5.65 13.65zm6.25-23.85c-1.034-2-2.417-3.867-4.15-5.6-4.333-4.333-9.566-6.5-15.7-6.5s-11.383 2.167-15.75 6.5c-1.033 1.033-1.95 2.133-2.75 3.3-2.5 3.6-3.75 7.733-3.75 12.4 0 6.133 2.167 11.367 6.5 15.7 4.367 4.333 9.617 6.5 15.75 6.5s11.367-2.167 15.7-6.5 6.5-9.567 6.5-15.7c0-3.7-0.783-7.067-2.35-10.1z" fill="#62574C"/>
				<path d="m13.7 13.3c3.767-3.767 5.65-8.316 5.65-13.65 0-5.333-1.883-9.867-5.65-13.6-3.733-3.767-8.267-5.65-13.6-5.65s-9.883 1.883-13.65 5.65c-3.767 3.733-5.65 8.267-5.65 13.6s1.883 9.883 5.65 13.65 8.316 5.65 13.65 5.65c5.333 0 9.867-1.883 13.6-5.65z" fill="#332D28"/>
				<path d="m-9-14.5c0.833 0.667 1.4 1.217 1.7 1.65-0.967 1.033-1.75 1.767-2.35 2.2-0.567-0.667-1.083-1.217-1.55-1.65 0.4-0.633 1.133-1.367 2.2-2.2zm7.1-2.75c-0.267 0-0.6-0.15-1-0.45-0.434-0.367-0.783-0.566-1.05-0.6 0.7-0.534 1.434-0.833 2.2-0.9 0.833-0.066 1.567 0.167 2.2 0.7-0.3 0.033-0.7 0.25-1.2 0.65-0.467 0.4-0.85 0.6-1.15 0.6zm-2.3 0.25c0.367 0.367 0.684 0.567 0.95 0.6-0.267 0.333-0.7 0.733-1.3 1.2-0.733 0.534-1.2 0.9-1.4 1.1-0.167-0.167-0.466-0.417-0.9-0.75-0.433-0.3-0.733-0.566-0.9-0.8 0.2-0.1 0.617-0.45 1.25-1.05 0.533-0.5 0.983-0.75 1.35-0.75 0.267 0 0.583 0.15 0.95 0.45zm-8.2 2.5c0.3-0.333 0.8-0.767 1.5-1.3l0.95 0.55c-0.167 0.333-0.466 0.7-0.9 1.1-0.467 0.433-0.783 0.767-0.95 1-0.9-0.3-1.1-0.75-0.6-1.35zm-1.6 3.85c-0.4 0.566-0.733 0.967-1 1.2-0.4-0.633-0.383-1.3 0.05-2 0.133-0.233 0.567-0.733 1.3-1.5 0.066 0.167 0.183 0.35 0.35 0.55 0.167 0.233 0.267 0.433 0.3 0.6-0.267 0.2-0.6 0.583-1 1.15zm0.55 0.8c0.4-0.533 0.784-0.933 1.15-1.2 0.9 1.066 1.383 1.633 1.45 1.7-0.133 0.2-0.917 1.2-2.35 3-0.2-0.533-0.617-1.233-1.25-2.1 0.233-0.3 0.567-0.767 1-1.4zm-3.2 1.5c0.233-0.533 0.45-0.867 0.65-1 0.233 0.567 0.217 1.184-0.05 1.85-0.433 0.733-0.75 1.3-0.95 1.7 0.033-0.233 0.017-0.583-0.05-1.05 0.033-0.433 0.167-0.933 0.4-1.5zm-0.5 4.95c0.367 0.967 0.633 1.7 0.8 2.2-0.4 1.067-0.733 1.85-1 2.35-0.3-0.733-0.433-1.517-0.4-2.35 0-0.867 0.2-1.6 0.6-2.2zm3.05-1.55c-0.2 0.2-0.467 0.583-0.8 1.15-0.3 0.533-0.567 0.917-0.8 1.15-0.033-0.033-0.2-0.383-0.5-1.05-0.2-0.433-0.333-0.816-0.4-1.15 0.167-0.267 0.367-0.667 0.6-1.2 0.233-0.434 0.483-0.767 0.75-1 0.533 0.933 0.917 1.633 1.15 2.1zm1.9 2.6c0.434 0.633 0.767 1.1 1 1.4-0.767 1.133-1.4 1.934-1.9 2.4-1.133-1.7-1.733-2.617-1.8-2.75 0.3-0.567 0.816-1.367 1.55-2.4 0.333 0.333 0.717 0.783 1.15 1.35zm4.9-8.35c0.466-0.533 0.883-0.9 1.25-1.1 1.033 1.066 1.85 1.833 2.45 2.3-0.667 0.9-1.517 1.783-2.55 2.65-0.2-0.3-0.6-0.733-1.2-1.3-0.533-0.533-0.917-0.983-1.15-1.35 0.233-0.2 0.633-0.6 1.2-1.2zm-0.2 5.4c-1.033 1.367-1.9 2.316-2.6 2.85-0.066-0.1-0.433-0.55-1.1-1.35-0.433-0.567-0.767-1.05-1-1.45l2.35-2.75c1 0.9 1.783 1.8 2.35 2.7zm5.15 2.45c-0.2-0.267-0.6-0.7-1.2-1.3-0.533-0.533-0.917-0.983-1.15-1.35 0.233-0.2 0.65-0.633 1.25-1.3 0.5-0.534 0.934-0.934 1.3-1.2 0.6 0.533 1.033 0.933 1.3 1.2 0.5 0.5 0.883 0.966 1.15 1.4-0.267 0.2-0.7 0.633-1.3 1.3-0.533 0.567-0.983 0.983-1.35 1.25zm-2.6 5.9c1.133-1.267 2.034-2.216 2.7-2.85 1.267 1.367 2.233 2.35 2.9 2.95-0.633 0.833-1.6 1.817-2.9 2.95-0.3-0.333-0.767-0.817-1.4-1.45-0.6-0.567-1.033-1.1-1.3-1.6zm-1.65-1.4c-0.167-0.3-0.533-0.733-1.1-1.3-0.5-0.533-0.85-1-1.05-1.4 0.133-0.133 0.567-0.633 1.3-1.5 0.534-0.633 1.034-1.083 1.5-1.35 0.2 0.333 0.583 0.783 1.15 1.35 0.533 0.533 0.9 0.983 1.1 1.35-0.3 0.233-0.767 0.717-1.4 1.45-0.567 0.667-1.067 1.133-1.5 1.4zm-0.45 8.95c-0.167 0.333-0.467 0.683-0.9 1.05-0.467 0.367-0.817 0.65-1.05 0.85-1.367-1.267-2.183-2.083-2.45-2.45 0.4-0.4 0.967-1.05 1.7-1.95 0.367 0.233 0.817 0.65 1.35 1.25 0.567 0.6 1.017 1.017 1.35 1.25zm3.45-3.05l-1.1 1.1c-0.433 0.434-0.816 0.767-1.15 1-0.3-0.3-0.767-0.733-1.4-1.3-0.533-0.533-0.95-1.017-1.25-1.45 0.267-0.267 0.617-0.683 1.05-1.25 0.4-0.467 0.784-0.816 1.15-1.05 0.267 0.367 0.716 0.85 1.35 1.45 0.633 0.633 1.083 1.133 1.35 1.5zm-0.35 2.8c0.167-0.133 0.367-0.3 0.6-0.5 0.333-0.3 0.767-0.617 1.3-0.95 1.2 1.133 1.983 1.833 2.35 2.1-0.6 0.8-1.417 1.467-2.45 2-0.067-0.2-0.467-0.55-1.2-1.05-0.7-0.467-1.05-0.817-1.05-1.05 0-0.067 0.15-0.25 0.45-0.55zm-7-6.15c-0.433-0.5-0.75-0.934-0.95-1.3 0.367-0.566 0.967-1.367 1.8-2.4 0.667 0.633 1.45 1.517 2.35 2.65-0.867 1.133-1.6 1.9-2.2 2.3-0.133-0.233-0.467-0.65-1-1.25zm-4.4 0.85c-0.066-0.233-0.316-0.667-0.75-1.3-0.4-0.533-0.6-0.983-0.6-1.35-0.033-0.333 0.1-0.733 0.4-1.2 0.133-0.233 0.367-0.6 0.7-1.1l1.7 2.8c-0.2 0.2-0.45 0.55-0.75 1.05-0.3 0.533-0.533 0.9-0.7 1.1zm-1.65-1.5c0 0.034 0.317 0.633 0.95 1.8 0.333 0.7 0.333 1.367 0 2-0.133-0.367-0.417-0.95-0.85-1.75-0.3-0.733-0.333-1.417-0.1-2.05zm6.1 3.25c-0.733 0.934-1.317 1.6-1.75 2l-1.7-2.3c0.4-0.9 0.917-1.667 1.55-2.3 0.167 0.333 0.483 0.767 0.95 1.3s0.783 0.967 0.95 1.3zm-1.1 4.1c0.233 0.267 0.6 0.65 1.1 1.15 0.5 0.467 0.85 0.85 1.05 1.15-0.5 0.566-1.05 0.583-1.65 0.05-0.333-0.267-0.8-0.733-1.4-1.4 0.2-0.433 0.5-0.75 0.9-0.95zm-1.2-1.25l-0.7 1.05c-0.167-0.333-0.533-0.867-1.1-1.6-0.4-0.633-0.333-1.217 0.2-1.75 0.133 0.233 0.667 1 1.6 2.3zm10.25 7.15c-0.5-0.267-0.9-0.517-1.2-0.75 0.333-0.1 0.717-0.283 1.15-0.55 0.5-0.3 0.867-0.5 1.1-0.6l2.55 1.5-2.25 1c-0.6-0.267-1.05-0.467-1.35-0.6zm-2.65-1.5c-0.433-0.433-1.15-1.017-2.15-1.75 0.533-0.3 1.25-0.833 2.15-1.6 0.233 0.233 0.633 0.566 1.2 1 0.533 0.4 0.917 0.733 1.15 1-0.467 0.333-0.833 0.583-1.1 0.75-0.433 0.267-0.85 0.467-1.25 0.6zm-4.15-0.7c0.367 0 0.767-0.15 1.2-0.45 0.167 0.2 0.517 0.467 1.05 0.8 0.5 0.333 0.833 0.633 1 0.9-0.633 0.233-1.25 0.183-1.85-0.15-0.133-0.067-0.6-0.433-1.4-1.1zm11.65-29c-0.233-0.267-0.65-0.617-1.25-1.05-0.6-0.4-1.017-0.75-1.25-1.05 0.167-0.067 0.533-0.3 1.1-0.7 0.467-0.3 0.883-0.5 1.25-0.6 0.6 0.333 1.05 0.6 1.35 0.8 0.5 0.3 0.883 0.633 1.15 1-0.333 0.133-0.733 0.4-1.2 0.8-0.5 0.4-0.883 0.667-1.15 0.8zm-1.25 1.15c0 0.067-0.167 0.233-0.5 0.5-0.5 0.367-0.783 0.583-0.85 0.65-0.9 0.833-1.417 1.283-1.55 1.35-0.2-0.333-0.6-0.75-1.2-1.25-0.6-0.467-1.017-0.883-1.25-1.25 0.633-0.467 1.55-1.2 2.75-2.2l1.35 1.05c0.3 0.2 0.533 0.367 0.7 0.5 0.367 0.3 0.55 0.517 0.55 0.65zm6.6-4.4c-0.333 0.033-0.667 0.15-1 0.35-0.4 0.233-0.7 0.417-0.9 0.55-0.233-0.267-0.633-0.567-1.2-0.9-0.6-0.333-1.017-0.617-1.25-0.85 0.7-0.433 1.5-0.517 2.4-0.25 0.7 0.2 1.35 0.567 1.95 1.1zm1.65 3.75c-0.233-0.233-0.6-0.567-1.1-1-0.5-0.4-0.867-0.733-1.1-1 0.867-0.567 1.433-0.883 1.7-0.95 0.533 0.333 1.233 0.9 2.1 1.7-0.233 0.1-0.5 0.3-0.8 0.6-0.367 0.333-0.633 0.55-0.8 0.65zm-1.95 1.85c-0.567 0.533-0.917 0.867-1.05 1-0.867-0.6-1.717-1.367-2.55-2.3 0.267-0.167 0.65-0.45 1.15-0.85 0.467-0.4 0.833-0.683 1.1-0.85 0.3 0.167 0.683 0.483 1.15 0.95 0.5 0.434 0.883 0.75 1.15 0.95-0.2 0.333-0.517 0.7-0.95 1.1zm-2.5 2.35c-0.2 0.233-1.1 1.15-2.7 2.75-1.433-1.433-2.25-2.283-2.45-2.55 0.934-1 1.867-1.867 2.8-2.6 1.133 0.967 1.917 1.767 2.35 2.4zm4.05 4.4c-1.267 1.5-2.133 2.45-2.6 2.85-0.267-0.4-0.717-0.933-1.35-1.6-0.633-0.633-1.083-1.15-1.35-1.55 1.066-1 1.933-1.9 2.6-2.7 1.333 1.2 2.233 2.2 2.7 3zm4.55-5.6c-0.233 0.4-0.45 0.667-0.65 0.8 0-0.167-0.383-0.633-1.15-1.4-0.733-0.733-1.1-1.15-1.1-1.25 0-0.167 0.233-0.4 0.7-0.7 0.433-0.333 0.65-0.55 0.65-0.65 0.667 0.434 1.383 1.233 2.15 2.4-0.167 0.133-0.367 0.4-0.6 0.8zm0.45 2.15c0.267-0.367 0.617-0.967 1.05-1.8 1.5 1.7 1.684 3.1 0.55 4.2-0.433-0.733-0.967-1.533-1.6-2.4zm-3.05-1.7c0.667 0.733 1.05 1.167 1.15 1.3-0.367 0.7-1 1.5-1.9 2.4-0.233-0.367-0.65-0.867-1.25-1.5-0.6-0.6-1.034-1.083-1.3-1.45 0.2-0.167 0.533-0.517 1-1.05 0.434-0.433 0.8-0.75 1.1-0.95 0.333 0.3 0.733 0.717 1.2 1.25zm2.4 7.7c-0.367-0.633-1-1.483-1.9-2.55 0.2-0.2 0.5-0.6 0.9-1.2 0.367-0.5 0.7-0.867 1-1.1 0.133 0.267 0.417 0.667 0.85 1.2 0.367 0.5 0.633 0.917 0.8 1.25-0.7 1.267-1.25 2.067-1.65 2.4zm3.25 0.25c0.4 0.833 0.617 1.283 0.65 1.35-0.433 1.1-0.867 1.933-1.3 2.5-0.3-0.633-0.8-1.517-1.5-2.65l0.7-1.15c0.3-0.466 0.517-0.883 0.65-1.25 0.267 0.267 0.533 0.667 0.8 1.2zm1 0.15c0-0.367-0.184-0.833-0.55-1.4-0.333-0.567-0.517-1-0.55-1.3 0-0.2 0.1-0.517 0.3-0.95 0.233-0.433 0.35-0.783 0.35-1.05 1.033 2.033 1.183 3.6 0.45 4.7zm-6.35 2.65c-0.433 0.567-0.85 1.017-1.25 1.35-0.733-1-1.45-1.833-2.15-2.5 1-1.367 1.867-2.383 2.6-3.05 0.167 0.267 0.5 0.7 1 1.3 0.433 0.533 0.733 1 0.9 1.4-0.467 0.667-0.833 1.167-1.1 1.5zm6.55 0c0.467 1.5 0.25 2.9-0.65 4.2-0.033-0.533-0.217-1.167-0.55-1.9 0.1-0.167 0.283-0.567 0.55-1.2 0.233-0.5 0.45-0.867 0.65-1.1zm-6.6 2.65c0.3-0.3 1.017-1.217 2.15-2.75 0.5 0.367 1.1 1.267 1.8 2.7-0.767 1.333-1.45 2.217-2.05 2.65-0.4-0.6-1.033-1.467-1.9-2.6zm3.7 5.45c-0.066-0.2-0.217-0.483-0.45-0.85-0.233-0.333-0.383-0.617-0.45-0.85 0.433-0.567 1.067-1.467 1.9-2.7 0.567 0.733 0.684 1.533 0.35 2.4-0.2 0.5-0.65 1.167-1.35 2zm-2.8 3.35c-0.3-0.4-0.7-0.817-1.2-1.25 0.6-0.9 1.3-1.7 2.1-2.4 0.133 0.267 0.467 0.75 1 1.45-0.2 0.367-0.5 0.75-0.9 1.15-0.433 0.467-0.767 0.817-1 1.05zm-8.25-11.3c-0.5 0.566-0.95 1-1.35 1.3-0.267-0.367-0.733-0.883-1.4-1.55-0.633-0.633-1.1-1.167-1.4-1.6 0.267-0.233 0.7-0.684 1.3-1.35 0.5-0.567 0.933-0.983 1.3-1.25 1.3 1.333 2.25 2.35 2.85 3.05-0.567 0.633-1 1.1-1.3 1.4zm1.3 4c-0.5-0.5-0.867-0.934-1.1-1.3l2.35-2.55c0.434 0.333 1.217 1.183 2.35 2.55-0.5 0.6-0.883 1.05-1.15 1.35-0.467 0.533-0.9 0.95-1.3 1.25-0.2-0.267-0.583-0.7-1.15-1.3zm-0.1 2.65c-0.767 0.933-1.733 1.85-2.9 2.75l-2.35-2.2c0.5-0.767 1.433-1.75 2.8-2.95 1 1.133 1.817 1.933 2.45 2.4zm1.35 1.4c1.067 0.967 1.817 1.733 2.25 2.3-1.133 1.1-2.033 1.867-2.7 2.3-0.5-0.467-1.284-1.1-2.35-1.9 0.7-0.9 1.633-1.8 2.8-2.7zm3.45 0.85c-0.1-0.133-0.467-0.5-1.1-1.1-0.5-0.433-0.833-0.85-1-1.25l2.25-2.4c0.067 0.167 0.45 0.566 1.15 1.2 0.633 0.6 0.95 1.034 0.95 1.3-0.033 0.167-0.4 0.566-1.1 1.2-0.733 0.667-1.117 1.017-1.15 1.05zm-1.95 5.05c-0.333-0.233-0.6-0.383-0.8-0.45 0.267-0.3 0.683-0.684 1.25-1.15 0.566-0.5 0.967-0.883 1.2-1.15 0.8 0.6 1.284 1.05 1.45 1.35-0.233 0.133-0.617 0.45-1.15 0.95-0.467 0.4-0.867 0.683-1.2 0.85-0.2-0.067-0.45-0.2-0.75-0.4zm-0.4 1.35c-0.867 0.5-1.5 0.8-1.9 0.9-0.767 0.2-1.434 0.067-2-0.4 0.333-0.167 1.083-0.65 2.25-1.45 0.167 0.133 0.45 0.284 0.85 0.45 0.4 0.2 0.667 0.367 0.8 0.5zm-2.8-1.6c-0.5 0.367-0.883 0.633-1.15 0.8-0.466 0.333-0.9 0.566-1.3 0.7-0.533-0.333-1.317-0.833-2.35-1.5 0.3-0.367 1.083-1 2.35-1.9 1.1 0.8 1.917 1.433 2.45 1.9zm-2.6 2.95c0.733-0.133 1.383-0.017 1.95 0.35-1.8 0.566-3.133 0.633-4 0.2 0.5-0.133 1.183-0.317 2.05-0.55zm10.35-3.7c0.367-0.167 0.583-0.4 0.65-0.7l-0.45-0.45c0-0.167 0.283-0.5 0.85-1 0.6-0.5 0.917-0.817 0.95-0.95 0 0.367 0.05 0.6 0.15 0.7 0.133-0.2 0.316-0.483 0.55-0.85 0.167-0.333 0.2-0.683 0.1-1.05 0.367-0.467 0.85-1.233 1.45-2.3 0.033 0.1 0.017 0.25-0.05 0.45-0.033 0.167-0.017 0.267 0.05 0.3 0.233-0.7 0.566-1.75 1-3.15 0.4-1.267 0.667-2.433 0.8-3.5v-0.35c-0.033 0.233-0.1 0.167-0.2-0.2-0.167-0.533-0.25-0.967-0.25-1.3 0-0.2 0.067-0.566 0.2-1.1 0.1-0.5 0.15-0.9 0.15-1.2 0-0.933-0.25-2.1-0.75-3.5-0.667-1.733-1.017-2.683-1.05-2.85-0.067 0-0.083 0.05-0.05 0.15 0.1 0.1 0.117 0.2 0.05 0.3-0.333-0.367-0.684-0.967-1.05-1.8-0.4-0.933-0.716-1.566-0.95-1.9-0.033 0-0.05 0.117-0.05 0.35-0.267-0.167-0.6-0.5-1-1-0.433-0.5-0.767-0.833-1-1-0.033-0.1 0-0.183 0.1-0.25 0.133-0.033 0.184-0.1 0.15-0.2l-0.1-0.05c-0.067-0.033-0.217-0.167-0.45-0.4l-0.4-0.3c-0.3 0.1-0.684-0.066-1.15-0.5-0.534-0.5-0.917-0.783-1.15-0.85 0.034-0.067 0.083-0.1 0.15-0.1-1.867-1.1-3.883-1.833-6.05-2.2-0.933 0.3-2.083 0.217-3.45-0.25-0.9 0-1.934 0.117-3.1 0.35-0.867 0.333-1.35 0.55-1.45 0.65l-0.7-0.15-1.5 0.6c0.3 0 0.583 0.117 0.85 0.35-0.066 0.033-0.667 0.433-1.8 1.2-0.667 0.434-1.25 0.4-1.75-0.1-1.267 0.767-2.433 1.717-3.5 2.85-2.433 2.633-3.833 5.133-4.2 7.5-0.033 0.934-0.066 1.65-0.1 2.15-0.067 0.9-0.267 1.45-0.6 1.65v3.15c0.133 0.033 0.217-0.033 0.25-0.2 0.133 0.8 0.233 1.417 0.3 1.85 0.133 0.733 0.133 1.3 0 1.7 0.3 1.333 0.85 2.683 1.65 4.05 0.967 1.5 1.684 2.683 2.15 3.55 1.367 1.133 2.233 1.967 2.6 2.5 0.233 0.267 0.733 0.6 1.5 1 0.8 0.4 1.35 0.8 1.65 1.2 0.4 0.133 1 0.383 1.8 0.75 0.733 0.3 1.35 0.45 1.85 0.45-0.067-0.034-0.417-0.133-1.05-0.3-0.433-0.133-0.716-0.316-0.85-0.55 0.633-0.133 1.267-0.05 1.9 0.25 0.367 0.133 0.9 0.367 1.6 0.7-0.133 0.067-0.4 0.067-0.8 0-0.333-0.033-0.55 0-0.65 0.1 0.4 0.167 1.1 0.25 2.1 0.25 0.967-0.033 1.667 0.05 2.1 0.25h1.5c0.633-0.133 1.5-0.316 2.6-0.55 0.934-0.233 1.7-0.5 2.3-0.8-0.033 0-0.117 0.034-0.25 0.1-0.1 0.033-0.167 0-0.2-0.1 0.367-0.267 1.017-0.533 1.95-0.8 0.832-0.266 1.415-0.566 1.75-0.9-0.07 0.066-0.286 0.1-0.65 0.1 0.2-0.3 0.55-0.633 1.05-1 0.533-0.4 0.883-0.7 1.05-0.9 0.233 0.233 0.533 0.267 0.9 0.1z" fill="#1E1A17"/>
	</g>
</symbol>
<symbol id="p" viewBox="-13.35 -11.149 26.7 22.3">
		<g clip-rule="evenodd" fill-rule="evenodd">
				<linearGradient id="k" x1="26.488" x2="35.738" y1="-16314" y2="-16314" gradientTransform="matrix(.00010811 -1 1 -.001 16314 6.8501)" gradientUnits="userSpaceOnUse">
				<stop stop-opacity=".3373" offset=".5098"/>
				<stop stop-opacity=".2706" offset=".5529"/>
				<stop stop-opacity="0" offset="1"/>
			</linearGradient>
			<path d="m13.35-9.399c0-0.467-0.15-0.884-0.45-1.25-0.3-0.333-0.65-0.5-1.05-0.5h-21c-0.4 0-1.1 0.6-2.1 1.8-1.033 1.233-1.55 2.083-1.55 2.55l2.15 13.1c0 0.467 0.15 0.867 0.45 1.2s0.65 0.499 1.05 0.499l18.9 2.55c0.434 0 1.133-0.583 2.1-1.75 1-1.2 1.5-2.033 1.5-2.5v-15.699z" fill="url(#k)"/>
				<linearGradient id="l" x1="-970.09" x2="-947.68" y1="-15213" y2="-15213" gradientTransform="matrix(.1272 -.9919 .9919 .1272 15210 985.3)" gradientUnits="userSpaceOnUse">
				<stop stop-color="#96887B" offset="0"/>
				<stop stop-color="#887B6F" offset=".3608"/>
				<stop stop-color="#665B50" offset="1"/>
			</linearGradient>
			<path d="m10.65-6.3c0-0.467-0.15-0.866-0.45-1.2-0.266-0.333-0.617-0.5-1.05-0.5h-20.95c-0.434 0-0.8 0.167-1.1 0.5s-0.45 0.733-0.45 1.2v15.7c0 0.467 0.15 0.883 0.45 1.25 0.3 0.333 0.667 0.5 1.1 0.5h20.95c0.434 0 0.784-0.167 1.05-0.5 0.3-0.367 0.45-0.783 0.45-1.25v-15.7z" fill="url(#l)"/>
				<path d="m9.1 10.65c-3.167 0.066-6.4 0.117-9.7 0.15-6.566 0.1-10.117 0.083-10.65-0.05s-0.95-0.467-1.25-1c-0.167-0.267-0.267-0.517-0.3-0.75v-15.8l-0.3-0.45c-0.167 0.333-0.25 0.65-0.25 0.95v15.7c0 0.467 0.15 0.883 0.45 1.25 0.3 0.333 0.667 0.5 1.1 0.5h20.9c0.033-0.2 0.033-0.366 0-0.5z" fill="#B8AC9B"/>
				<path d="m10.2-7.5c-0.266-0.333-0.617-0.5-1.05-0.5h-20.95c-0.3 0-0.583 0.083-0.85 0.25 3.833 0.267 8.033 0.367 12.6 0.3 2.4-0.033 4.95-0.067 7.65-0.1 1.466 0.033 2.25 0.317 2.35 0.85 0.167 0.8 0.25 6.317 0.25 16.55l0.25 0.4c0.133-0.233 0.2-0.517 0.2-0.85v-15.7c0-0.467-0.15-0.866-0.45-1.2z" fill="#544E4A"/>
			<path d="m4.75 1.45c0-1.767-0.617-3.283-1.85-4.55-1.233-1.233-2.733-1.85-4.5-1.85s-3.283 0.617-4.55 1.85c-1.233 1.267-1.85 2.784-1.85 4.55s0.617 3.267 1.85 4.5c1.267 1.234 2.783 1.85 4.55 1.85s3.267-0.617 4.5-1.85c1.233-1.266 1.85-2.766 1.85-4.5z" fill="#5A2116"/>
				<radialGradient id="m" cx="2300.3" cy="1786" r="8.1343" gradientTransform="matrix(.9681 .2504 .2905 -1.1233 -2746.7 1431.1)" gradientUnits="userSpaceOnUse">
				<stop offset=".5098"/>
				<stop stop-opacity=".7961" offset=".5529"/>
				<stop stop-opacity="0" offset="1"/>
			</radialGradient>
			<path d="m7.05 2.95c0.667-2.533 0.45-4.883-0.65-7.05-1.1-2.2-2.733-3.566-4.9-4.1-2.167-0.567-4.25-0.166-6.25 1.2-1.967 1.4-3.283 3.367-3.95 5.9-0.633 2.533-0.417 4.883 0.65 7.05 1.066 2.167 2.683 3.533 4.85 4.1s4.25 0.15 6.25-1.25c2.033-1.366 3.367-3.317 4-5.85z" fill="url(#m)"/>
		</g>
			<use transform="translate(-1.7002 1.4502)" x="-5.45" y="-5.399" width="10.85" height="10.85" xlink:href="#r"/>
</symbol>
<symbol id="q" clip-rule="evenodd" fill="none" stroke-linecap="round" stroke-linejoin="round" stroke-miterlimit="3" viewBox="-19.45 -19.6 39.45 39.25">
			<path d="m-1.75 18.95c4.22-2.871 7.87-5.854 10.95-8.95 3.078-3.088 5.437-5.805 7.075-8.15 1.641-2.347 2.516-4.03 2.625-5.05" stroke="#898073"/>
			<path d="m-6.65 17.3c4.409-3.042 8.409-6.308 12-9.8 3.595-3.493 6.278-6.477 8.05-8.95 1.767-2.475 3.167-4.441 4.2-5.9" stroke="#898073" stroke-width="1.5"/>
			<path d="m-10.85 14.65c5.274-4.768 9.758-9.018 13.45-12.75s7.809-8.182 12.35-13.35" stroke="#898073" stroke-width="2"/>
			<path d="m4.2 18.65c2.927-2.2 5.436-4.283 7.525-6.25 2.086-1.967 3.778-3.892 5.075-5.775 1.3-1.88 2.067-3.238 2.3-4.075" stroke="#898073" stroke-width=".65"/>
			<path d="m-18.05 3.1c3.112-6.133 6.104-10.525 8.975-13.175 2.875-2.65 5.433-4.675 7.675-6.075 2.239-1.4 4.056-2.217 5.45-2.45" stroke="#898073"/>
			<path d="m-16.4 7c3.609-5.55 6.984-9.758 10.125-12.625 3.143-2.871 5.968-5.337 8.475-7.4 2.502-2.054 4.535-3.379 6.1-3.975" stroke="#898073" stroke-width="1.5"/>
			<path d="m-14.25 11.3c4.543-6.062 8.885-10.946 13.025-14.65 4.141-3.705 8.499-7.522 13.075-11.45" stroke="#898073" stroke-width="2"/>
			<path d="m-18.25-3.1c1.965-4.179 4.082-7.287 6.35-9.325 2.268-2.041 4.259-3.625 5.975-4.75 1.717-1.121 3.092-1.763 4.125-1.925" stroke="#898073" stroke-width=".65"/>
			<path d="m2.5 19.15c-0.968-0.182-2.426-0.907-4.375-2.175-1.946-1.264-4.279-3.297-7-6.1-2.725-2.812-4.941-5.554-6.65-8.225-1.708-2.663-2.849-4.613-3.425-5.85" stroke="#9E9385"/>
			<path d="m7.55 18.05c-5.659-4.26-9.967-7.769-12.925-10.525-2.956-2.754-5.556-5.546-7.8-8.375-2.248-2.83-3.723-4.997-4.425-6.5" stroke="#9E9385" stroke-width="1.5"/>
			<path d="m12.05 14.75c-6.51-4.772-11.202-8.614-14.075-11.525-2.876-2.912-5.501-5.737-7.875-8.475-2.371-2.735-4.054-4.802-5.05-6.2" stroke="#9E9385" stroke-width="2"/>
			<path d="m-4.55 18.75c-3.028-1.878-5.444-3.812-7.25-5.8-1.811-1.995-3.21-3.72-4.2-5.175-0.993-1.454-1.876-3.179-2.65-5.175" stroke="#9E9385" stroke-width=".65"/>
			<path d="m19.5 1.85c-3.997-5.155-7.405-9.08-10.225-11.775s-7.012-5.753-12.575-9.175" stroke="#9E9385"/>
			<path d="m18.25 7.05c-4.539-5.777-8.372-10.102-11.5-12.975-3.136-2.872-6.161-5.239-9.075-7.1-2.906-1.865-4.915-3.19-6.025-3.975" stroke="#9E9385" stroke-width="1.5"/>
			<path d="m15.25 11.65c-5.56-5.692-10.318-10.409-14.275-14.15-3.96-3.742-8.452-7.691-13.475-11.85" stroke="#9E9385" stroke-width="2"/>
			<path d="m19-3.75c-2.255-3.682-4.605-6.624-7.05-8.825-2.444-2.204-5.727-4.395-9.85-6.575" stroke="#9E9385" stroke-width=".65"/>
</symbol>
<symbol id="r" viewBox="-5.45 -5.399 10.85 10.85">
		<g clip-rule="evenodd" fill-rule="evenodd">
			<path d="m5.4 0c0-1.5-0.533-2.784-1.6-3.85-1.033-1.033-2.316-1.55-3.85-1.55-1.5 0-2.767 0.517-3.8 1.55-1.066 1.067-1.6 2.35-1.6 3.85 0 1.533 0.534 2.817 1.6 3.85 1.033 1.066 2.3 1.6 3.8 1.6 1.534 0 2.817-0.533 3.85-1.6 1.067-1.033 1.6-2.316 1.6-3.85z" fill="#DC6D59"/>
			<path d="m5.2-0.2c0-1.433-0.517-2.667-1.55-3.7-1-1-2.233-1.5-3.7-1.5-1.433 0-2.65 0.5-3.65 1.5-1.033 1.033-1.55 2.267-1.55 3.7s0.517 2.667 1.55 3.7c1 1.033 2.217 1.55 3.65 1.55 1.467 0 2.7-0.517 3.7-1.55 1.034-1.033 1.55-2.267 1.55-3.7z" fill="#D55134"/>
				<path d="m1.2 1.45c-0.4-0.167-0.917-0.283-1.55-0.35-0.666-0.1-1.183-0.166-1.549-0.2-0.967-0.1-1.55-0.6-1.75-1.5-0.267-1.066-0.034-2.217 0.7-3.45 0.167-0.3 0.383-0.583 0.65-0.85-0.966 0.467-1.733 1.183-2.3 2.15v2.45c0.1 0.967 0.55 1.75 1.35 2.35 0.367 0.3 0.917 0.467 1.65 0.5 0.867 0.034 1.434 0.1 1.7 0.2 1.167 0.466 1.833 1.083 2 1.85l0.75-0.45 0.05-0.5c0-0.7-0.033-1.117-0.1-1.25-0.167-0.333-0.7-0.65-1.601-0.95z" fill="#DC6D59"/>
				<path d="m-0.05 5.05c0.667 0 1.384-0.15 2.15-0.45-0.167-0.767-0.833-1.384-2-1.85-0.267-0.1-0.833-0.167-1.7-0.2-0.733-0.033-1.283-0.2-1.65-0.5-0.8-0.6-1.25-1.383-1.35-2.35v-2.45c-0.433 0.8-0.65 1.65-0.65 2.55 0 1.433 0.517 2.667 1.55 3.7 1 1.034 2.217 1.55 3.65 1.55z" fill="#E49F93"/>
				<path d="m5.2-0.2c0-1.433-0.517-2.667-1.55-3.7-1-1-2.233-1.5-3.7-1.5h-0.3c3.034 0.534 4.884 2.383 5.55 5.55v-0.35z" fill="#E49F93"/>
		</g>
</symbol>
<symbol id="s" viewBox="-27.5 -27.45 55.05 54.85">
			<radialGradient id="n" cx=".0249" cy="-1.2256" r="27.487" gradientTransform="matrix(1 0 0 -.9523 0 -2.3926)" gradientUnits="userSpaceOnUse">
			<stop offset=".5098"/>
			<stop stop-opacity=".7961" offset=".5529"/>
			<stop stop-opacity="0" offset="1"/>
		</radialGradient>
		<path d="m0 25c7.6 0 14.1-2.567 19.5-7.7 5.367-5.1 8.05-11.267 8.05-18.5s-2.683-13.417-8.05-18.55c-5.4-5.133-11.9-7.7-19.5-7.7s-14.083 2.566-19.45 7.7c-5.366 5.1-8.05 11.284-8.05 18.55 0 7.233 2.684 13.4 8.05 18.5 5.367 5.133 11.85 7.7 19.45 7.7z" clip-rule="evenodd" fill="url(#n)" fill-rule="evenodd"/>
			<use transform="translate(-.7998 4.75)" x="-22.9" y="-22.65" width="45.75" height="45.3" xlink:href="#o"/>
			<use transform="translate(-.8501 4.5)" x="-19.45" y="-19.6" width="39.45" height="39.25" xlink:href="#q"/>
</symbol>
<symbol id="t" viewBox="-27.5 -41.15 55.05 82.301">
			<use transform="translate(0 -13.7)" x="-27.5" y="-27.45" width="55.05" height="54.85" xlink:href="#s"/>
			<use transform="translate(.75 30)" x="-13.35" y="-11.149" width="26.7" height="22.3" xlink:href="#p"/>
</symbol>
<use transform="matrix(1 0 0 -1 27.45 41.15)" x="-27.5" y="-41.15" width="55.05" height="82.301" xlink:href="#t"/>
</svg>
