<?xml version="1.0" encoding="UTF-8"?>
<svg width="2927.5mm" height="4333.1mm" version="1.1" viewBox="0 0 10373.022 15353.528" xmlns="http://www.w3.org/2000/svg">
 <defs>
  <filter id="c" x="-.12514" y="-.32663" width="1.2503" height="1.6533" color-interpolation-filters="sRGB">
   <feGaussianBlur stdDeviation="1.9634296"/>
  </filter>
  <linearGradient id="d" x1="1028.3" x2="1038.2" y1="332.5" y2="332.55" gradientTransform="matrix(1.2676 0 0 3.8605 -1086.5 -1208.4)" gradientUnits="userSpaceOnUse">
   <stop stop-color="#a9c0da" offset="0"/>
   <stop stop-color="#a9c0da" stop-opacity="0" offset="1"/>
  </linearGradient>
 </defs>
 <g transform="translate(-3.5644e-6 -67.784)">
  <path transform="matrix(-135.09 0 0 135.71 27102 -2189.5)" d="m162.14 112.69c-1.872 0.61-6.114-0.64-8.895-1.33-2.357-0.59-4.728 1.17-5.782 2.22-1.414 1.42-1.726 4.22-1.335 5.78 0.832 3.33 5.383 3.11 7.561 2.67 2.008-0.4 4.245 1.29 6.227 1.78 2.276 0.57 8.513-0.36 11.366-0.36 2.9 0 11.184 2.69 14.061 1.25 2.231-1.11 4.29-0.77 6.226-2.22 1.513-1.14 2.227-3.13 2.669-4.89 0.784-3.14-1.877-3.61-3.558-4.45-2.161-1.08-5.907-0.42-7.561 0-1.773 0.44-14.066-2.23-16.532-2.23-1.999 0-1.059 1.78-4.447 1.78z" fill-opacity=".7284" fill-rule="evenodd" filter="url(#c)"/>
  <path d="m2603.3 12854c-318.14 222.57-818.26 375.93-1120.3 700.28-43.095 127.57-24.317 267.36-25.127 401.71 39.852 172.36 154.82 270.07 295.18 363.71 360.02 93.643 731.8-56.999 1074.9-162.86 306.66-47.5 661.28-161.5 848.11-423.43 294.91-350.14 204.8-639.21 119.42-1068.1-395.69 77.357-791.92 141.14-1192.2 188.64z" fill="#e6e6e6" fill-rule="evenodd" stroke="#333" stroke-linecap="round" stroke-linejoin="round" stroke-width="135.4px"/>
  <path d="m2474.5 11831c69.573 298.57 14.387 706.42 70.622 983.92 355.3 268.71 1097.8 240.05 1295-101.95-33.773-135.71-41-611.88-100.44-750.3-691.99-856.95-1060.1-238.43-1265.2-131.67z" fill="#206e82" fill-rule="evenodd" stroke="#00192e" stroke-width="135.4px"/>
  <path d="m1569.5 14088c430.27 40.714 891.21 33.929 1201.5-134.36 385.02-97.714 724.37-221.21 1039.1-650.07" fill="none" stroke="#333" stroke-linecap="round" stroke-linejoin="round" stroke-width="135.4px"/>
  <path d="m5634.6 12983c429.06 85.5 782.05 165.57 1146.4 431.57 81.056 97.713 77.273 192.71 71.599 312.14-32.017 104.5-69.033 204.93-95.511 312.14-371.78 35.285-782.59 257.86-1170.9 133-407.71 5.429-820.02-138.43-1157.7-385.43-78.354-232.07 5.4038-545.57 24.317-803.42 375.83 119.43 803.26 99.071 1181.8 0z" fill="#e6e6e6" fill-rule="evenodd" stroke="#333" stroke-linecap="round" stroke-linejoin="round" stroke-width="135.4px"/>
  <path d="m6757.1 13835c-439.32-75.999-878.38 213.07-1335.7 152-424.73-13.572-645.07-324.36-956.46-344.71" fill="none" stroke="#333" stroke-linecap="round" stroke-linejoin="round" stroke-width="135.4px"/>
  <path d="m5627.3 11645c-2.1615 378.64 84.907 1093.3 12.492 1305.7-384.34 153.36-885.97 300.41-1212.6-34.8 103.72-323.06 59.362-686.88 18.424-1015.4 266.54-291.82 528.13-437.02 1181.7-255.51z" fill="#206e82" fill-rule="evenodd" stroke="#00192e" stroke-width="135.4px"/>
  <path d="m2294.6 6508.6c62.818-421.53-323.82-811.02-112.94-1178.5 241.01-327.48 850.01-479.88 1259.2-500.92 524.97 77.357 1054.8 6.1072 1576.1 119.97 311.14 136.03 609.87 322 930.94 394.79 84.304 19.111 118.53 98.602 184.87 178.27 18.508 376.47-390.23 1114-216.5 1453.8-2546.7 1637.2-2850.3 239.32-3621.7-467.4z" fill="#668000" fill-rule="evenodd" stroke="#000" stroke-width="135.4px"/>
  <path d="m4796.4 5393.1c-88.756 659.43-1268.4 724.17-1803.5 241.3 84.568-364.93 107.13-784.7 418.79-1038.2 290.32-103.82 599.14-88.078 902.29-71.25 270.19 125.81 480.39 626.05 482.42 868.16z" fill="#947252" fill-rule="evenodd" stroke="#3f2d10" stroke-width="135.4px"/>
  <path d="m7210.9 6106.5c415.41 165.43 915.53 264.23 1349.4 149.42 180.35-113.86 8.5109-370.91 246.95-432.93 177.51 83.057 186.97 274.28 196.56 458.17 271.81-72.335 561.95-198.55 624.74 0.9093 45.44 144.36-197.3 252.6-369.55 261.69 181.39 59.48 382.58-2.2393 278.66 303.86-166.57 146.3-249.89 21.036-444.42-9.7714 184.67 184.98 497.68 295.58 87.946 400.35-170.08-16.964-268.7-122.28-381.37-237.5-162.79-58.492-351.11-35.693-526.05-42.885-400.69 135.58-773.93-201.01-1190.6-226.93-264.51-308.07-794.37 154.46-1067.4-116.43-129.55-86.857-239.52-166.93-337.87-280.11-27.289-396.42 145.23-677.35 525.92-772.35 497.82-101.11 653.99 378.23 1007 544.48z" fill="#947252" fill-rule="evenodd" stroke="#3f2d10" stroke-width="135.4px"/>
  <path d="m3885 7571.9c468.46-666.82 1187.2-2366 1144.6-2645.7 244 14.986 629.5 106.91 630.89 181.9 0.5404 28.873-21.645 100.87 1.8103 114.48 464.63 243.2 1039.1 433.93 1581.6 577.2 388.84 102.69 1165.4 71.819 1189.6 199.83 17.654 116.44 463.76 1479.3-96.313 1295.5-330.92-85.487-2016.5-261.26-2361.1-412.09-325.87 1011.7-611.45 1164.9 28.54 2009.4 431.97 569.97 195.71 1907.3 117.89 2610.2-438.18 347.5-1483.1 637.51-2170.6 560.15-576.58-207.1-1630.5 80.646-1988.1-358.66 128.82-362.02-312.02-2771 251.6-3070.9 509.53-271.13 114.81-976.85 27.4-1469.2-85.541 263.61-622.9 338.05-1013.3 514.13 171.89 404.86 347.52 610.09 461.51 812.53-182.11 175.9-809.73 805.4-809.73 805.4-63.615-183.93-350.63-512.5-688.91-1146.4-429.91-805.61 337.65-1208.9 682.64-1719.4 240.42-355.77 769.1-594.58 932.99-886.38 227.24-404.61 632.6-491.5 1043.7-658.21 71.422 576.15 794.34 2156.4 1033.3 2686.2z" fill="#fff" fill-rule="evenodd" stroke="#000" stroke-linecap="round" stroke-linejoin="round" stroke-width="135.4"/>
  <path d="m5645.4 5121.8c-31.6 124.36 67.664 294.61-58.063 769.01-10.321 38.949-346.92-58.165-372.62-19.072-24.623 37.462 202.53 158.49 175.15 202.83-227.46 368.37-742.57 751.94-1432.5 1643.8" fill="none" stroke="#000" stroke-linecap="round" stroke-linejoin="round" stroke-width="135.4"/>
  <path d="m2735.9 4936.5c-92.314 17.675-182.87 35.349-306.08 53.024-60.196 191.68-228.8 610.43-154.12 812.39 13.212 35.737 295.79-29.546 322.83 3.8555 29.679 36.664-184.13 165.47-151.53 208.86 256.35 341.23 742.85 1069.7 1411.4 1861.8 47.1 55.804 73.341 128.6 110.22 196.1" fill="#fff" stroke="#000" stroke-linecap="round" stroke-linejoin="round" stroke-width="135.4"/>
  <path d="m3915.1 7578c31.417 223 89.067 198.82 94.249 669l-27.552 3824.5" fill="none" stroke="#000" stroke-linecap="round" stroke-width="135.4px"/>
  <path d="m3289.8 9679.8-33.773 983.92c-270.77-17.547-536.81-30.346-894.99-135.71l16.887-983.92z" fill="none" stroke="#000" stroke-linecap="round" stroke-linejoin="round" stroke-width="94.782"/>
  <path d="m1598.6 8675.6c100.86 101.67 117.1 87.746 230.03 76.346 147.08-38.77 139.17-90.55 298.78-47.34 99.104 169.57-55.084 236.36 27.987 369.29 264.5 95.644 586.47 81.654 596.24 460.95-176.43 51.534-387.94-8.5256-534.75-99.195 119.88 154.51 503.71 322.86 130.4 459.72-219.93 25.241-290.43-175.97-433.18-312.32 47.414 257.48 242.41 527.22-154.03 379.63-130.37-111.13-151.96-254.02-179.5-413.11-100.86-141.02-268.76-229.78-408.64-335.62-85.213-24.583-22.616 5.8017-83.838-45.005" fill="#947252" fill-rule="evenodd" stroke="#3f2d10" stroke-width="135.4px"/>
  <path d="m4640.8 9688.3 33.773 983.92c270.77-17.546 536.81-30.345 894.99-135.71l-16.887-983.92z" fill="none" stroke="#000" stroke-linecap="round" stroke-linejoin="round" stroke-width="94.782"/>
  <path d="m5902.1 527.28c1265.1 409.85 1489.9 1411.8 1150.2 2505.9-74.745 228.19-326.57 641.32-456.09 848.71-118.93 453.03-120.32 825.19-392.75 1215.4-353.41 563.84-869.95 754.95-1504.1 691.94-522.4-183.45-1167.9-595.94-1441-1095.1-411.55-648.57-324.27-1487.4-307.45-2241.8 140.2-677.37 661.5-1197.8 1046-1746.3 476.02-582.5 1306.2-480.25 1905.1-178.7z" fill="#947252" fill-rule="evenodd" stroke="#3f2d10" stroke-width="135.4px"/>
  <path d="m7179 2769.8c360.78 371.7 650.27-320.14 254.75-1093.9-36.985-72.357-312-166.92-365.06-295.87-53.063-128.95-102.24-408.23-163.13-483.35-121.77-150.24-400.29 35.237-575.56-97.684-175.27-132.92-219.8-405.62-423.22-510.41s-445.31 57.074-651.52-8.7694c-206.21-65.842-363.01-194.51-546.68-210.59-183.67-16.085-418.42 105.33-554.2 149.82-135.77 44.486-212.38-0.99904-420.23 151.2-400.91 0.37679-318.81 175.31-531.99 385s-21.807 177.92-186 525.96c-164.2 348.04-409.16 155.29-505.71 510.16-24.139 88.719 61.192 324.87 61.192 324.87-20.78 160.45-226.37 123.41-327.11 300.79-69.796 122.89-88.526 422.74 155.53 786.02 74.71 111.21-188.43 325.84-111.23 489.24 230.37 487.62 576.91 527.51 704.74 398.79 672.44 187.21 396.94-542.95 654.95-627.57 437.76-143.56 526.19-841.95 609.4-1205.2 538.1-140.09 365.44-236.18 1182.6-304.35 303.23 257.68 543.99 93.531 1024.5-147.54 310.76 102.73 415.02 614.86 714 596.03z" fill-rule="evenodd"/>
  <path d="m5897.6 4954.1c-54.325 19.317-133.14-100.69-244.11-92.191-133.2 10.208-172.73-9.6107-277.23-114.38-103.91-104.17-272.02-13.113-393.81-109.65" fill="none" stroke="#3f2d10" stroke-linecap="round" stroke-linejoin="round" stroke-width="135.4px"/>
  <path d="m6134 3355.6c201.21 491.56 327.95 1091.2-220.37 959.12-215.16-201.61-405.1-126.08-356.68-400.64" fill="#947252" fill-rule="evenodd" stroke="#3f2d10" stroke-linecap="round" stroke-linejoin="round" stroke-width="135.4px"/>
  <g transform="matrix(-28.451 -5.66 -5.6387 28.605 16134 4013.9)" fill="#f60" opacity=".545">
   <path d="m204.88 77.25c7.1612 0.52672 13.712 3.2208 22.893 4.2951 0.49662 0.05811 2.2076-2.7183 2.2084-1.0229l0.0305 64.91c7e-3 15.156-0.0283 27.375-0.14302 27.375h-27.091c-0.0793 0-0.27948-12.219-0.14302-27.375l0.63577-70.609c0.36924 2.4376 1.134 1.7108 1.6086 2.4268z" fill="#f60" fill-rule="evenodd"/>
  </g>
  <ellipse transform="scale(-1,1)" cx="-10006" cy="3177.1" rx="165.34" ry="193.79" fill="#ff7f2a" opacity=".545"/>
  <g transform="matrix(-25.205 -5.0143 -4.9914 25.321 15828 4585.9)">
   <path d="m221.79-10.551-0.19258 181.98c2.8648 0.0302 3.4862 0.0859 5.9423 0.11203l-0.88676-181.38c-4.976-1.1137 0.0213 0.081851-4.863-0.71665z" fill="url(#d)" fill-rule="evenodd" opacity=".5" stroke-width="5.2576"/>
   <path d="m221.28 172.07v-182.62" fill="none" stroke="#000" stroke-width="5.2576"/>
   <path d="m252.52 170.83c-0.11052-8.5244-0.1776-16.744-0.21236-24.729-0.0348-7.984-0.0372-15.732-0.0184-23.313 0.0188-7.5814 0.0588-14.996 0.10891-22.313 0.0502-7.3168 0.11035-14.536 0.16959-21.726 0.0592-7.1899 0.11747-14.351 0.16361-21.552 0.0461-7.201 0.0802-14.442 0.091-21.792s-0.16622-14.81-0.0483-22.445c0.17949-11.617-0.80623-17.308 5.8527-23.513" fill="none" stroke="#000" stroke-linecap="round" stroke-width="5.2576"/>
   <path d="m221.22-10.551h37.093" fill="none" stroke="#000" stroke-linecap="round" stroke-width="5.2576"/>
   <g transform="matrix(.46097 0 0 1.1206 243.59 -492.24)" fill="none" stroke="#000" stroke-width="2.6262">
    <path d="m-10.892 589.23h21.213"/>
    <path d="m-10.892 582.89h21.213"/>
    <path d="m-10.921 576.68h21.213"/>
    <path d="m-10.921 570.47h21.213"/>
    <path d="m-15.228 564.18h29.363"/>
    <path d="m-10.957 557.87h21.213"/>
    <path d="m-10.957 551.66h21.213"/>
    <path d="m-10.986 545.45h21.213"/>
    <path d="m-10.986 539.25h21.213"/>
    <path d="m-15.293 532.96h29.363"/>
    <path d="m-10.937 526.83h21.213"/>
    <path d="m-10.937 520.63h21.213"/>
    <path d="m-10.966 514.42h21.213"/>
    <path d="m-10.966 508.21h21.213"/>
    <path d="m-15.273 501.92h29.363"/>
    <path d="m-8.2299 495.86h16.033"/>
    <path d="m-10.835 495.82h21.213"/>
    <path d="m-10.835 489.61h21.213"/>
    <path d="m-10.864 483.4h21.213"/>
    <path d="m-10.864 477.2h21.213"/>
    <path d="m-15.171 470.91h29.363"/>
    <path d="m-10.977 464.82h21.213"/>
    <path d="m-10.977 458.62h21.213"/>
    <path d="m-11.006 452.41h21.213"/>
    <path d="m-11.006 446.2h21.213"/>
    <path d="m-22.283 439.58h38.255"/>
   </g>
   <path d="m220.8 171.7h31.729l24.967 9.2876v5.1175h-79.737l0.0298-5.1374z" fill="#fff" stroke="#000" stroke-linejoin="round" stroke-width="5.2576"/>
  </g>
  <ellipse transform="scale(-1,1)" cx="-9695.5" cy="4770.9" rx="129.91" ry="118.65" fill="#ff7f2a" opacity=".545"/>
  <ellipse transform="scale(-1,1)" cx="-9593.1" cy="4272.6" rx="129.91" ry="150.28" fill="#ff7f2a" opacity=".545"/>
  <ellipse transform="scale(-1,1)" cx="-9868.7" cy="3869.2" rx="122.04" ry="142.37" fill="#ff7f2a" opacity=".545"/>
  <ellipse transform="scale(-1,1)" cx="-9640.4" cy="3402.6" rx="90.545" ry="94.916" fill="#ff7f2a" opacity=".545"/>
  <ellipse transform="scale(-1,1)" cx="-9687.6" cy="2777.7" rx="177.15" ry="158.19" fill="#ff7f2a" opacity=".545"/>
  <ellipse transform="scale(-1,1)" cx="-10152" cy="2706.5" rx="122.04" ry="126.55" fill="#ff7f2a" opacity=".545"/>
  <ellipse transform="scale(-1,1)" cx="-9872.6" cy="2322.9" rx="86.609" ry="98.871" fill="#ff7f2a" opacity=".545"/>
  <path d="m9430.4 6343.2c14.521 57.473 84.01 140.68 197.86 161.15 88.231 15.864 105.31-101.66 114.26-172.29 8.9432-70.63 6.9573-133.61-81.199-149.78-114.75-21.048-263.18 33.297-230.92 160.92z" color="#000000" fill="#947252" fill-rule="evenodd" stroke="#3f2d10" stroke-width="108.32"/>
  <path d="m9403.2 6781.8c-13.104 69.816 78.888 160.33 154.48 175.4 75.594 15.07 78.205-70.827 91.971-140.52 13.766-69.688 39.246-160.13-35.781-177.84-76.767-18.119-189.19 28.546-210.67 142.96z" color="#000000" fill="#947252" fill-rule="evenodd" stroke="#3f2d10" stroke-width="108.32"/>
  <path d="m8662.5 6022.4c27.039 65.649 244.44 159.4 321.51 159.4 77.068 0 75.07-117.87 75.07-188.92 0-71.047-106.89-151.63-171.19-194.31-112.99-75.002-303.58 33.983-225.38 223.83z" color="#000000" fill="#947252" fill-rule="evenodd" stroke="#3f2d10" stroke-width="108.32"/>
  <g transform="translate(-233.57 -169.93)">
   <path d="m6135.6 2914.5c-60.416 423.98-187.01 476.13-477.55 377.23-290.54-98.896-511.17-354.82-365.2-482.31 230.59-0.1891 574.85-43.964 842.75 105.07z" fill="#fff" fill-rule="evenodd" stroke="#333" stroke-width="135.4px"/>
   <path d="m5971.9 3154.4c51.932-9.5189-33.285 226.21-187.42 80.9-119.38-113.51-22.167-213.45 51.7-237.22 148.35-48.384 198.58 124.69 135.72 156.32z" fill-rule="evenodd" stroke="#000" stroke-width="135.4px"/>
   <path d="m5084.2 2791.4c358.24-35.9 925.4-31.314 1206.4 183.44" fill="none" stroke="#000" stroke-width="100.2"/>
  </g>
  <g transform="translate(-233.57 -169.93)">
   <path d="m7125 3258.2c190.5 130.24-50.502 352.73-114.37 391.82-216.7 132.59-468.17-18.332-426.76-565.26 50.841-57.142 379.15 102.67 541.13 173.44z" fill="#fff" fill-rule="evenodd" stroke="#333" stroke-width="135.4px"/>
   <path d="m7032.5 3543.8c52.549 5.0494-93.355 208.55-202.27 26.562-84.095-141.88 36.539-211.44 114.06-214.1 155.86-5.9665 157.26 174.31 88.209 187.54z" fill-rule="evenodd" stroke="#000" stroke-width="135.4px"/>
   <path d="m7394 3418.9c-261.36-180.66-443.66-316.44-831.14-357.28" fill="none" stroke="#000" stroke-width="100.2"/>
  </g>
  <path d="m4352.3 8039c350.98 245.69 810.52 178.7 1129.8-199.89" fill="none" stroke="#4d4d4d" stroke-width="100.2"/>
  <path d="m3680.5 8052.7c-350.98 245.69-740.74 132.18-1060-246.41" fill="none" stroke="#4d4d4d" stroke-width="100.2"/>
  <path d="m5713.5 5098.6c-299.49 26.67-486.43-15.186-611.42-248.23" fill="none" stroke="#3f2d10" stroke-linecap="round" stroke-linejoin="round" stroke-width="135.4px"/>
 </g>
</svg>
