<?xml version="1.0" encoding="utf-8"?>
<!-- Generator: Adobe Illustrator 22.0.1, SVG Export Plug-In . SVG Version: 6.00 Build 0)  -->
<svg version="1.1" id="Layer_1" xmlns="http://www.w3.org/2000/svg" xmlns:xlink="http://www.w3.org/1999/xlink" x="0px" y="0px"
	 viewBox="0 0 9081.2 12282.8" style="enable-background:new 0 0 9081.2 12282.8;" xml:space="preserve">
<style type="text/css">
	.st0{filter:url(#c);}
	.st1{opacity:0.7284;}
	.st2{fill:#E6E6E6;stroke:#333333;stroke-width:135.4;stroke-linecap:round;stroke-linejoin:round;}
	.st3{fill:#206E82;stroke:#00192E;stroke-width:135.4;}
	.st4{fill:none;stroke:#333333;stroke-width:135.4;stroke-linecap:round;stroke-linejoin:round;}
	.st5{fill:#668000;stroke:#000000;stroke-width:135.4;}
	.st6{fill:#DC9D72;stroke:#3F2D10;stroke-width:135.4;}
	.st7{fill:#FFFFFF;stroke:#000000;stroke-width:135.4;stroke-linecap:round;stroke-linejoin:round;}
	.st8{fill:none;stroke:#000000;stroke-width:135.4;stroke-linecap:round;stroke-linejoin:round;}
	.st9{fill:none;stroke:#000000;stroke-width:135.4;stroke-linecap:round;}
	.st10{fill:none;stroke:#000000;stroke-width:94.782;stroke-linecap:round;stroke-linejoin:round;}
	.st11{fill:#DC9D72;stroke:#3F2D10;stroke-width:108.32;}
	.st12{fill:none;stroke:#4D4D4D;stroke-width:100.2;}
	.st13{fill:url(#SVGID_1_);stroke:#000000;stroke-width:4;}
	.st14{fill:url(#SVGID_2_);stroke:#000000;stroke-width:4;}
	.st15{fill:url(#SVGID_3_);stroke:#000000;stroke-width:4;}
	.st16{opacity:0.5;fill:url(#SVGID_4_);stroke:#000000;stroke-width:4;enable-background:new    ;}
	.st17{opacity:0.2;fill:url(#SVGID_5_);stroke:#000000;stroke-width:4;enable-background:new    ;}
	.st18{opacity:0.4;fill:url(#SVGID_6_);stroke:#000000;stroke-width:4;enable-background:new    ;}
	.st19{fill:#647698;stroke:#000000;stroke-width:4;}
</style>
<filter  color-interpolation-filters="sRGB" height="1.6533" id="c" width="1.2503" x="-.12514" y="-.32663">
	<feGaussianBlur  stdDeviation="1.9634296"></feGaussianBlur>
</filter>
<g class="st0">
	<path class="st1" d="M4158.8,10428.7c202.3,66.2,660.8-69.5,961.3-144.4c254.7-64.1,511,127,624.9,241
		c152.8,154.2,186.5,458.2,144.3,627.5c-89.9,361.5-581.8,337.6-817.1,289.9c-217-43.4-458.8,140.1-673,193.2
		c-246,61.9-920-39.1-1228.3-39.1c-313.4,0-1208.7,292-1519.6,135.7c-241.1-120.5-463.6-83.6-672.9-241
		c-163.5-123.8-240.7-339.8-288.4-530.9c-84.7-340.9,202.9-391.9,384.5-483.1c233.5-117.3,638.4-45.6,817.1,0
		c191.6,47.8,1520.1-242.1,1786.6-242.1C3894.2,10235.4,3792.7,10428.7,4158.8,10428.7L4158.8,10428.7z"/>
</g>
<path class="st2" d="M2082.6,10229c-254.5,178.1-654.6,300.7-896.2,560.2c-34.5,102.1-19.5,213.9-20.1,321.4
	c31.9,137.9,123.9,216.1,236.1,291c288,74.9,585.4-45.6,859.9-130.3c245.3-38,529-129.2,678.5-338.7
	c235.9-280.1,163.8-511.4,95.5-854.5C2719.8,10139.9,2402.9,10190.9,2082.6,10229L2082.6,10229z"/>
<path class="st3" d="M1979.6,9410.6c55.7,238.9,11.5,565.1,56.5,787.1c284.2,215,878.2,192,1036-81.6
	c-27-108.6-32.8-489.5-80.4-600.2C2438.2,8830.3,2143.7,9325.2,1979.6,9410.6L1979.6,9410.6z"/>
<path class="st4" d="M1255.6,11216.2c344.2,32.6,713,27.1,961.2-107.5c308-78.2,579.5-177,831.3-520.1"/>
<path class="st2" d="M4507.7,10332.2c343.2,68.4,625.6,132.5,917.1,345.3c64.8,78.2,61.8,154.2,57.3,249.7
	c-25.6,83.6-55.2,163.9-76.4,249.7c-297.4,28.2-626.1,206.3-936.7,106.4c-326.2,4.3-656-110.7-926.2-308.3
	c-62.7-185.7,4.3-436.5,19.5-642.7C3862.9,10427.7,4204.9,10411.4,4507.7,10332.2L4507.7,10332.2z"/>
<path class="st4" d="M5405.7,11013.8c-351.5-60.8-702.7,170.5-1068.6,121.6c-339.8-10.9-516.1-259.5-765.2-275.8"/>
<path class="st3" d="M4501.8,9261.8c-1.7,302.9,67.9,874.6,10,1044.6c-307.5,122.7-708.8,240.3-970.1-27.8
	c83-258.4,47.5-549.5,14.7-812.3C3769.7,9232.7,3979,9116.5,4501.8,9261.8L4501.8,9261.8z"/>
<path class="st5" d="M1835.7,5152.6c50.3-337.2-259.1-648.8-90.4-942.8c192.8-262,680-383.9,1007.4-400.7
	c420,61.9,843.8,4.9,1260.9,96c248.9,108.8,487.9,257.6,744.8,315.8c67.4,15.3,94.8,78.9,147.9,142.6
	c14.8,301.2-312.2,891.2-173.2,1163C2695.7,6836.3,2452.8,5718,1835.7,5152.6L1835.7,5152.6z"/>
<path class="st6" d="M3837.1,4260.2c-71,527.5-1014.7,579.3-1442.8,193c67.7-291.9,85.7-627.8,335-830.6
	c232.3-83.1,479.3-70.5,721.8-57C3667.3,3666.4,3835.5,4066.6,3837.1,4260.2L3837.1,4260.2z"/>
<path class="st6" d="M5768.7,4831c332.3,132.3,732.4,211.4,1079.5,119.5c144.3-91.1,6.8-296.7,197.6-346.3
	c142,66.4,149.6,219.4,157.2,366.5c217.4-57.9,449.6-158.8,499.8,0.7c36.4,115.5-157.8,202.1-295.6,209.4
	c145.1,47.6,306.1-1.8,222.9,243.1c-133.3,117-199.9,16.8-355.5-7.8c147.7,148,398.1,236.5,70.4,320.3
	c-136.1-13.6-215-97.8-305.1-190c-130.2-46.8-280.9-28.6-420.8-34.3c-320.6,108.5-619.1-160.8-952.5-181.5
	c-211.6-246.5-635.5,123.6-853.9-93.1c-103.6-69.5-191.6-133.5-270.3-224.1c-21.8-317.1,116.2-541.9,420.7-617.9
	C5361.3,4314.5,5486.2,4697.9,5768.7,4831L5768.7,4831z"/>
<path class="st7" d="M3108,6003.3c374.8-533.5,949.8-1892.8,915.7-2116.6c195.2,12,503.6,85.5,504.7,145.5
	c0.4,23.1-17.3,80.7,1.4,91.6c371.7,194.6,831.3,347.1,1265.3,461.8c311.1,82.2,932.3,57.5,951.7,159.9
	c14.1,93.2,371,1183.4-77.1,1036.4c-264.7-68.4-1613.2-209-1888.9-329.7c-260.7,809.4-489.2,931.9,22.8,1607.5
	c345.6,456,156.6,1525.8,94.3,2088.2c-350.5,278-1186.5,510-1736.5,448.1c-461.3-165.7-1304.4,64.5-1590.5-286.9
	c103.1-289.6-249.6-2216.8,201.3-2456.7c407.6-216.9,91.8-781.5,21.9-1175.4c-68.4,210.9-498.3,270.4-810.6,411.3
	c137.5,323.9,278,488.1,369.2,650C1207.1,6879,705,7382.6,705,7382.6c-50.9-147.1-280.5-410-551.1-917.1
	C-190,5821,424,5498.4,700,5090c192.3-284.6,615.3-475.7,746.4-709.1c181.8-323.7,506.1-393.2,835-526.6
	C2338.5,4315.2,2916.9,5579.4,3108,6003.3L3108,6003.3z"/>
<path class="st8" d="M4516.3,4043.2c-25.3,99.5,54.1,235.7-46.5,615.2c-8.3,31.2-277.5-46.5-298.1-15.3
	c-19.7,30,162,126.8,140.1,162.3c-182,294.7-594.1,601.6-1146,1315"/>
<path class="st7" d="M2188.7,3895c-73.9,14.1-146.3,28.3-244.9,42.4c-48.2,153.3-183,488.3-123.3,649.9
	c10.6,28.6,236.6-23.6,258.3,3.1c23.7,29.3-147.3,132.4-121.2,167.1c205.1,273,594.3,855.8,1129.1,1489.4
	c37.7,44.6,58.7,102.9,88.2,156.9"/>
<path class="st9" d="M3132.1,6008.2c25.1,178.4,71.3,159.1,75.4,535.2l-22,3059.6"/>
<path class="st10" d="M2631.8,7689.6l-27,787.1c-216.6-14-429.4-24.3-716-108.6l13.5-787.1L2631.8,7689.6z"/>
<path class="st6" d="M1278.9,6886.2c80.7,81.3,93.7,70.2,184,61.1c117.7-31,111.3-72.4,239-37.9c79.3,135.7-44.1,189.1,22.4,295.4
	c211.6,76.5,469.2,65.3,477,368.8c-141.1,41.2-310.4-6.8-427.8-79.4c95.9,123.6,403,258.3,104.3,367.8
	c-175.9,20.2-232.3-140.8-346.5-249.9c37.9,206,193.9,421.8-123.2,303.7c-104.3-88.9-121.6-203.2-143.6-330.5
	c-80.7-112.8-215-183.8-326.9-268.5c-68.2-19.7-18.1,4.6-67.1-36"/>
<path class="st10" d="M3712.6,7696.4l27,787.1c216.6-14,429.4-24.3,716-108.6l-13.5-787.1L3712.6,7696.4z"/>
<path class="st11" d="M7544.3,5020.3c11.6,46,67.2,112.5,158.3,128.9c70.6,12.7,84.2-81.3,91.4-137.8c7.2-56.5,5.6-106.9-65-119.8
	C7637.3,4874.8,7518.5,4918.2,7544.3,5020.3L7544.3,5020.3z"/>
<path class="st11" d="M7522.6,5371.2c-10.5,55.9,63.1,128.3,123.6,140.3c60.5,12.1,62.6-56.7,73.6-112.4
	c11-55.8,31.4-128.1-28.6-142.3C7629.7,5242.3,7539.7,5279.7,7522.6,5371.2z"/>
<path class="st12" d="M3481.8,6377c280.8,196.6,648.4,143,903.8-159.9"/>
<path class="st12" d="M2944.4,6387.9c-280.8,196.6-592.6,105.7-848-197.1"/>
<g id="qkyIbT.tif">
	
		<image style="overflow:visible;" width="133" height="165" id="Layer_1_1_" xlink:href="582A7E81F41A4895.png"  transform="matrix(43.5873 4.3609 -4.3609 43.5873 593.3025 -198.8456)">
	</image>
</g>
<g>
	
		<linearGradient id="SVGID_1_" gradientUnits="userSpaceOnUse" x1="5105.7764" y1="9970.4375" x2="4839.5371" y2="9962.4316" gradientTransform="matrix(0.9667 0.2559 0.2559 -0.9667 72.357 12766.2266)">
		<stop  offset="0" style="stop-color:#647698"/>
		<stop  offset="2.920000e-02" style="stop-color:#6D7D9B"/>
		<stop  offset="0.1099" style="stop-color:#828CA1"/>
		<stop  offset="0.1858" style="stop-color:#8E96A4"/>
		<stop  offset="0.2512" style="stop-color:#9299A6"/>
		<stop  offset="0.7537" style="stop-color:#FAFAFC"/>
		<stop  offset="0.8002" style="stop-color:#F5F5F9;stop-opacity:0.9943"/>
		<stop  offset="0.8604" style="stop-color:#E7E8F0;stop-opacity:0.987"/>
		<stop  offset="0.928" style="stop-color:#D0D4E2;stop-opacity:0.9788"/>
		<stop  offset="1" style="stop-color:#B0B8CF;stop-opacity:0.97"/>
	</linearGradient>
	<polygon class="st13" points="7276.7,4475.5 7528,4542 7583.4,4332.6 7332.1,4266.1 	"/>
	
		<linearGradient id="SVGID_2_" gradientUnits="userSpaceOnUse" x1="5190.1533" y1="9206.8965" x2="4796.1562" y2="9194.9648" gradientTransform="matrix(0.9667 0.2559 0.2559 -0.9667 72.357 12766.2266)">
		<stop  offset="0" style="stop-color:#3C3C3B"/>
		<stop  offset="2.610000e-02" style="stop-color:#464645"/>
		<stop  offset="0.1079" style="stop-color:#5E5E5D"/>
		<stop  offset="0.1849" style="stop-color:#6B6B6A"/>
		<stop  offset="0.2512" style="stop-color:#706F6F"/>
		<stop  offset="0.7537" style="stop-color:#B2B2B2"/>
		<stop  offset="0.7952" style="stop-color:#AEAEAD;stop-opacity:0.9949"/>
		<stop  offset="0.849" style="stop-color:#A0A0A0;stop-opacity:0.9884"/>
		<stop  offset="0.9094" style="stop-color:#8A8989;stop-opacity:0.981"/>
		<stop  offset="0.9743" style="stop-color:#676766;stop-opacity:0.9731"/>
		<stop  offset="1" style="stop-color:#575756;stop-opacity:0.97"/>
	</linearGradient>
	<polygon class="st14" points="6907.7,5768.2 7283.3,5863.6 7600.3,4530.5 7224.6,4435 	"/>
	
		<linearGradient id="SVGID_3_" gradientUnits="userSpaceOnUse" x1="7568.2915" y1="8164.6567" x2="7251.8511" y2="8481.0977" gradientTransform="matrix(0.849 -0.5284 -0.5284 -0.849 5556.2778 15295.668)">
		<stop  offset="0" style="stop-color:#647698"/>
		<stop  offset="2.920000e-02" style="stop-color:#6D7D9B"/>
		<stop  offset="0.1099" style="stop-color:#828CA1"/>
		<stop  offset="0.1858" style="stop-color:#8E96A4"/>
		<stop  offset="0.2512" style="stop-color:#9299A6"/>
		<stop  offset="0.7537" style="stop-color:#FAFAFC"/>
		<stop  offset="0.8002" style="stop-color:#F5F5F9;stop-opacity:0.9943"/>
		<stop  offset="0.8604" style="stop-color:#E7E8F0;stop-opacity:0.987"/>
		<stop  offset="0.928" style="stop-color:#D0D4E2;stop-opacity:0.9788"/>
		<stop  offset="1" style="stop-color:#B0B8CF;stop-opacity:0.97"/>
	</linearGradient>
	<path class="st15" d="M7665.5,4372c-11.7,43.7-56.6,69.6-100.2,57.9l-274.3-73.5c-43.6-11.7-69.5-56.6-57.8-100.2
		c11.7-43.7,56.6-69.6,100.2-57.9l274.3,73.6C7651.3,4283.6,7677.2,4328.4,7665.5,4372L7665.5,4372z"/>
	
		<linearGradient id="SVGID_4_" gradientUnits="userSpaceOnUse" x1="7256.4653" y1="8880.8838" x2="9128.8047" y2="8880.8838" gradientTransform="matrix(0.849 -0.5284 -0.5284 -0.849 5556.2778 15295.668)">
		<stop  offset="0" style="stop-color:#2581C4"/>
		<stop  offset="1" style="stop-color:#2581C4;stop-opacity:0"/>
	</linearGradient>
	<path class="st16" d="M7694.2,3099.5c-35.4,434.2-443.8,545-844.2,502.4c22,61.3,50.7,121.3,86.6,178.9
		c273.2,439,850.5,573.3,1289.5,300.1c438.9-273.2,573.4-850.4,300.1-1289.4c-121.9-195.9-304.3-330.8-507.9-396.3
		C7858.1,2564.9,7719.9,2786.2,7694.2,3099.5L7694.2,3099.5z"/>
	
		<linearGradient id="SVGID_5_" gradientUnits="userSpaceOnUse" x1="7256.4487" y1="9494.9863" x2="9128.7881" y2="9494.9863" gradientTransform="matrix(0.849 -0.5284 -0.5284 -0.849 5556.2778 15295.668)">
		<stop  offset="0" style="stop-color:#2581C4"/>
		<stop  offset="1" style="stop-color:#2581C4;stop-opacity:0"/>
	</linearGradient>
	<path class="st17" d="M7236.6,2491.3c-381.4,237.4-532.7,704.3-386.7,1110.7c400.5,42.6,808.8-68.2,844.2-502.4
		c25.6-313.3,163.9-534.6,324-704.3C7765.3,2313.9,7479.7,2339.9,7236.6,2491.3L7236.6,2491.3z"/>
	
		<radialGradient id="SVGID_6_" cx="4874.6562" cy="9868.8828" r="515.5067" fx="4439.3066" fy="9592.8076" gradientTransform="matrix(0.974 0.2267 0.3319 -1.426 -488.6736 16264.9697)" gradientUnits="userSpaceOnUse">
		<stop  offset="0.4138" style="stop-color:#FFFFFF"/>
		<stop  offset="0.7586" style="stop-color:#FFFFFF;stop-opacity:0"/>
	</radialGradient>
	<path class="st18" d="M7236.6,2491.3c-381.4,237.4-532.7,704.3-386.7,1110.7c400.5,42.6,808.8-68.2,844.2-502.4
		c25.6-313.3,163.9-534.6,324-704.3C7765.3,2313.9,7479.7,2339.9,7236.6,2491.3L7236.6,2491.3z"/>
	<path class="st19" d="M7274.8,2552.7c215.8-134.3,478.7-166.6,721.2-88.7c194.3,62.4,360.8,192.3,468.7,365.6
		c251.7,404.4,127.4,938.2-277,1189.9c-404.4,251.7-938.2,127.5-1189.9-276.9c-32.2-51.8-59.1-107.4-79.9-165.1
		c-65.8-183-67.2-385.7-4.1-570.9C6977.9,2818.9,7106.1,2657.7,7274.8,2552.7 M7236.6,2491.3c-381.4,237.4-532.7,704.3-386.7,1110.7
		c22,61.3,50.7,121.3,86.6,178.9c273.2,439,850.5,573.3,1289.5,300.1c438.9-273.2,573.4-850.4,300.1-1289.4
		c-121.9-195.9-304.3-330.8-507.9-396.3C7765.3,2313.9,7479.7,2340,7236.6,2491.3L7236.6,2491.3z"/>
	
		<image style="overflow:visible;enable-background:new    ;" width="1454" height="1454" xlink:href="582A7E81F41A4896.png"  transform="matrix(1.1531 -0.7177 0.7177 1.1531 6372.1011 2969.811)">
	</image>
</g>
<path class="st11" d="M6930,4763.7c21.6,52.5,195.6,127.5,257.2,127.5c61.7,0,60.1-94.3,60.1-151.1c0-56.8-85.5-121.3-137-155.4
	C7019.9,4524.6,6867.4,4611.8,6930,4763.7L6930,4763.7z"/>
</svg>
