<?xml version="1.0" encoding="UTF-8"?>
<svg viewBox="0 0 576.36 797.93" xmlns="http://www.w3.org/2000/svg">
 <g stroke="#000">
  <g fill-rule="evenodd" stroke-linecap="round">
   <g stroke-width="3.501">
    <path d="m390.39 77.26c57.512 0 102.03-49.286 102.03 1.3882 0 50.675-46.612 91.745-104.12 91.745-57.512 0-104.14-41.071-104.14-91.745 0-50.675 48.722-1.3882 106.23-1.3882z" fill="#f60"/>
    <path d="m374.97 162.91c-45.217-3.3888-52.394-164.11 13.388-161.12 44.584 1.6952 53.871 76.945 37.963 119.4" fill="#ffe6d5"/>
   </g>
   <path d="m379.65 47.906c19.944 0 36.108 5.3883 36.108 12.036 0 1.2371-0.5697 2.4323-1.6096 3.5556 1.2948-0.0401 2.6137-0.072006 3.94-0.072006 23.16 0 41.922 6.262 41.922 13.982 0 7.7201-18.762 13.982-41.922 13.982s-41.946-6.262-41.946-13.982c0-1.93 1.1693-3.7571 3.2913-5.4295-5.1237-0.010086-9.9837-0.40593-14.391-1.0571 1.6488 1.8682 2.5706 3.929 2.5706 6.1022 0 8.3634-13.568 15.135-30.295 15.135s-30.295-6.7719-30.295-15.135c0-8.3634 13.568-15.135 30.295-15.135 2.3738 0 4.6784 0.12614 6.895 0.38438-0.44452-0.75459-0.6727-1.5323-0.6727-2.3304 0-6.6479 16.165-12.036 36.109-12.036v-7.6e-5z" fill="#f60" stroke-width="3.6"/>
   <g stroke-width="3.501">
    <g fill="#c87137">
     <path d="m480.81 743.36c110.45-65.022 80.66 4.8437 80.66 29.332s-37.674 23.48-93.26 23.48-108.04 1.0081-108.04-23.48 105.77-72.189 120.64-29.332z"/>
     <path d="m235.06 743.28c-110.45-65.022-80.66 4.8437-80.66 29.332s37.674 23.48 93.26 23.48 108.04 1.0081 108.04-23.48-105.77-72.189-120.64-29.332z"/>
    </g>
    <path d="m459.51 547.74c28.412 74.166 23.83 113.95 33.154 177.5-52.249 23.499-98.166 33.861-140.02 33.777l-0.592-206.05 0.592 206.05c-50.15 7.1994-92.168-5.0112-124.92-31.951 9.9428-58.873 7.3952-104.99 33.154-179.33h198.63z" fill="#520"/>
    <path d="m100.55 396.84c23.31-0.25446 42.556 17.197 39.597 34.89-3.26 19.497-9.9934 31.369-30.178 41.344-29.782 14.719-70.571 1.6052-49-41.344 8.8488-17.619 17.715-34.89 39.581-34.89z" fill="#ffe6d5"/>
    <g fill="#fff">
     <path d="m269 313.12l31.649 35.56c-54.421 38.106-95.216 83.104-159.6 104.74-1.2274-15.139 0.37245-38.559-14.38-48.931 61.083 2.5874 96.122-57.931 142.34-91.372z"/>
     <path d="m412.71 273.38c88.413 3.6505 147.1 206.76 109.89 315.38-52.44 15.667-104.88 26.764-157.32 32.666-7.5325-6.5501-14.852-12.16-23.722-24.604l9.1491-251.31-9.17 250.4c-5.3272 9.7496-11.614 18.23-19.726 24.3-50.289-6.9186-91.394-17.074-120.53-31.449-24.312-97.382 24.271-302.77 107.8-308l103.63-7.3773z"/>
    </g>
   </g>
   <g fill="#fff" stroke-width="3.6">
    <path d="m421.4 274.69c7.8262 3.4549 21.924 4.8833 27.527 12.085-4.0603 2.317-14.372 4.0302-18.493 6.864-1.2476 0.858-8.188-5.4059-9.3945-4.5079-1.2086 0.89966 2.424 8.9615 1.2529 9.898-23.071 18.45-42.44 38.536-66.227 57.585l-5.2054-12.085 70.54-69.839z"/>
    <path d="m288.63 285.99l61.79 59.304-4.134 12.62c-19.424-17.888-38.524-26.022-57.189-39.626-1.509-1.0998 1.9708-9.3644 0.43726-10.514-1.4295-1.0712-8.5849 6.2266-10.04 5.1029-3.7219-2.8754-8.9601-5.0453-12.888-8.3737 7.1623-4.8152 12.85-16.971 22.022-18.513z"/>
   </g>
   <g stroke-width="7.2">
    <g transform="matrix(-.5153 -.046812 -.053129 .45404 -39.253 93.495)" fill="#803300">
     <path d="m-829.66 349.94v54.281c18.677 17.062 30.194 9.0663 41.406 0v-54.281c-16.24-12.191-28.898-6.4703-41.406 0z"/>
     <path d="m-893.94 326.82c-16.616 34.936-9.6458 66.503 0 97.688 24.869 2.1003 48.364-7.236 65.688-24 4.4714-14.327 3.0936-31.578 0-49.688-29.688-20.917-47.006-25.094-65.688-24z"/>
     <path d="m-723.26 328.18c16.616 34.936 9.6457 66.503 0 97.688-24.869 2.1003-48.364-7.236-65.688-24-4.4714-14.327-3.0936-31.578 0-49.688 29.688-20.917 47.006-25.094 65.688-24z"/>
    </g>
    <path d="m306.96 261.09a59.083 32.174 0 1 1 118.17 -8.3446 59.083 32.174 0 1 1 -118.17 8.3446z" fill="#ffe6d5"/>
   </g>
   <path d="m415.8 158.73c3.5879 6.9474 7.0928 14.09 10.38 21.202 0.52118 1.1275 10.146 11.759 6.5472 11.783-4.0849 0.027695-9.5423 3.5633-6.6965 2.7425 2.622-0.55042 15.919 4.9959 8.1019 4.9114-7.447-0.080475-10.81 5.8382-3.1675 4.6207 4.4133-0.70306 5.2426 0.7977 7.1258 0.13278 3.566-1.2591-8.7037 7.5558-5.8156 6.9477 1.4596-0.30731 13.554 2.3477 7.4875 3.4714-2.9936 0.55454-11.399 5.2232-9.019 4.6317 2.7094-0.67331 11.818 0.27402 11.995 0.784 1.0678 3.0774-20.953 6.6401-11.25 6.0112 5.8125-0.37677 10.77 1.5436 12.328 1.3814 4.6906-0.48825-13.709 6.8291-8.2714 6.855 5.1798 0.024719 10.283-0.25369 10.835 3.439 1.0451 6.997 0.77426 12.48-1.2218 15.758-3.5154-2.0641-5.2409-0.16687-9.3515-4.9247-1.0178 4.6106-2.7584 4.2719-4.7171 6.7815-0.56934-2.4401-5.7381-1.5374-5.6322-6.6027-0.4509 1.1266-5.9676 8.4981-5.9676 8.4981s-7.6759-9.0727-11.501-7.9646c2.1771 2.255 3.3356 7.3856 0.77377 9.753-4.817-6.8745-9.0446-4.2053-9.9231-7.8831-0.83594 1.8892-0.60632 7.4153-2.283 8.1194-4.5501 1.2038-6.7254-10.689-11.317-9.6425 0.22452 6.0089-0.10706 10.848-3.6173 11.458-0.35764-7.568-7.6312-16.552-6.6337-12.09 1.0241 4.5807-1.1883 15.922-2.3715 12.102-1.5605-5.0392-7.8495-5.2596-8.1939-9.6039-0.45505-5.7391-3.4971 15.224-4.1322 10.288-0.22501-1.7486-8.2832-3.5959-8.2774-8.7508 0.002991-2.4443-4.1835 4.2704-4.0366 7.5113 0.18988 4.1877-7.07-5.1275-7.5166-7.454-0.82239-4.2849-4.9171 6.3192-4.8407 6.8438 0.29877 2.0519-5.1708-8.2278-5.0992-6.4013 0.10922 2.7854-6.1754 3.408-5.644 5.8443 0.57114 2.6185-8.3789-8.4747-7.0828-6.3583 1.8416 3.007-2.8615 3.2673-2.4918 4.9428 0.54376 2.4638-6.1628-5.3971-6.191-3.5042-0.037506 2.5212-2.8725-8.5157-3.0566-6.6115-0.22162 2.2925-7.5516 3.0306-9.793 2.1283-4.6938-3.3467-7.0964-8.3609-7.8791-14.477-0.23697-1.8516 6.3165-0.79309 12.798-0.77011-2.0358-2.5775-4.7594-4.2984-12.548-5.7283 0.19852-1.4929 8.9044-3.7628 10.685-3.647 5.3103 0.34558-1.7905-3.278-8.1412-3.4387-4.2299-0.10702-0.47681-9.506-0.26773-10.327 5.6163-22.063 18.044-47.799 22.522-64.77 49.402 12.582 50.995 23.763 102.37 12.007z" fill="#fff" stroke-width="3.501"/>
  </g>
  <g fill="none" stroke-width="1.751">
   <path d="m352.47 190.89l-8.1619 43.387"/>
   <path d="m396.46 183.89c21.616 28.684 13.528 42.055 13.321 42.384"/>
   <path d="m382.31 185.46c17.033 43.822 4.7152 43.791 4.6145 43.791"/>
   <path d="m366.57 188.63c13.969 30.487-0.34555 43.477-0.90729 43.972"/>
   <path d="m322.71 187.5c-8.5726 43.324-8.1619 43.387-8.1619 43.387"/>
  </g>
  <g stroke-linecap="round">
   <g fill="#ffe6d5" fill-rule="evenodd">
    <path d="m397.63 150.66c0.097382-1.1679 37.795-5.8642 20.066 25.576-9.1645 13.355-38.326 27.948-53.262 34.816-37.521 17.255-79.966-4.2209-92.069-24.653s22.562-34.035 60.084-51.29c24.662-11.341 50.494-14.114 68.741-8.8812" stroke-width="3.501"/>
    <path d="m423.2 135.26a14.094 17.507 0 1 1 28.188 16.722 14.094 17.507 0 1 1 -28.188 -16.722z" stroke-width="7.2"/>
   </g>
   <path d="m439.05 133.4c13.542-1.2489 17.334 8.4678 6.1604 16.004" fill="none" stroke-width="1.625"/>
   <path d="m403.82 37.575c0-8.005-11.508-9.929-20.593-9.929-9.0851 0-20.593 1.0111-20.593 9.0161" fill="#ffe6d5" stroke-width="1.751"/>
   <g fill="#fff">
    <path d="m477.31 139.69l-9.0735 0.2598c1.6004-10.337-0.23578-12.28-9.5895-12.48h-32.048v-9.6007h32.676c4.0988 0.29784 9.2336-0.54742 13.332 0.81956 7.2604 1.8941 5.7909 19.506 4.7022 21.002z" fill-rule="evenodd" stroke-width="3.564"/>
    <path d="m372.95 88.548c0.3436 0.003998 0.68939 0.005997 1.036 0.028503 6.3916 0.10164 12.172 3.6058 15.282 8.4014 5.9845-3.5421 13.241-5.5258 20.997-5.2919 19.607 0.59137 34.958 15.089 34.287 32.365-0.67117 17.276-17.125 30.788-36.732 30.197-19.607-0.59138-34.942-15.075-34.271-32.35 0.28061-7.2224 3.3198-13.774 8.1914-18.928-4.1452-6.9042-11.565-7.6234-16.205-1.1411 4.8104 5.547 7.5608 12.534 7.2686 20.055-0.67117 17.276-17.109 30.802-36.716 30.211-19.607-0.5914-34.958-15.075-34.287-32.35 0.67117-17.276 17.109-30.802 36.716-30.211 7.3108 0.2205 14.022 2.3686 19.54 5.8767 3.4062-4.1296 8.8926-6.9211 14.894-6.8609v3.1e-5z" stroke-width="3.501"/>
   </g>
   <g fill="#f2f2f2" fill-rule="evenodd" stroke-width="3.6">
    <path d="m384.64 122.24a24.407 21.506 0 1 1 48.814 1.4723 24.407 21.506 0 1 1 -48.814 -1.4723z"/>
    <path d="m312.89 120.07a24.407 21.506 0 1 1 48.814 1.4723 24.407 21.506 0 1 1 -48.814 -1.4723z"/>
   </g>
   <path d="m372.3 282.66c0 8.005-7.3639 14.493-16.449 14.493s-16.449-6.4884-16.449-14.493" fill="#ffe6d5" stroke-width="3.501"/>
   <g fill-rule="evenodd">
    <path d="m468.29 480.94c31.516 9.4112 21.928 18.735 16.66 31.484-5.2676 12.75-21.263 19.321-35.733 14.679-14.47-4.6413-21.938-18.738-16.671-31.488 5.2676-12.75 4.2509-24.08 35.744-14.676z" fill="#ffe6d5" stroke-width="3.501"/>
    <path d="m489.97 503.38c9.4155 17.829 9.4066 35.657 0 53.486-22.113 11.609-42.343 11.609-60.692 0-13.947-20.063-6.069-36.63 0-53.486 19.434 4.9108 39.384 6.6429 60.692 0z" fill="#fff" stroke-width="2.361"/>
    <g stroke-width="1.751">
     <rect transform="matrix(-.99994 .011243 .0055972 .99998 0 0)" x="-306.21" y="331.36" width="53.308" height="76.559" rx="10.339" ry="10.339" fill="#ccc"/>
     <path d="m296.77 336.66l-30.379 0.2736c-2.2371 0.020142-4.0297 1.8374-4.0194 4.0745l0.0257 5.5607c0.010345 2.2371 1.8196 4.0219 4.0567 4.0018l30.379-0.2736c2.2371-0.020172 4.0297-1.8374 4.0194-4.0746l-0.0257-5.5607c-0.010345-2.2371-1.8196-4.0219-4.0567-4.0018z" fill="#fff"/>
    </g>
   </g>
  </g>
 </g>
 <g transform="matrix(1.065 -.023495 .026534 .93838 0 0)">
  <path d="m239.42 374.37h1.0969v-3.7861l-1.1933 0.2393v-0.61163l1.1867-0.2393h0.67145v4.3977h1.097v0.56509h-2.8587v-0.56509"/>
  <path d="m248.21 370.67v1.8515h1.8515v0.56509h-1.8515v1.8515h-0.55844v-1.8515h-1.8515v-0.56509h1.8515v-1.8515h0.55844"/>
  <path d="m253.79 374.37h1.0969v-3.7861l-1.1933 0.2393v-0.61163l1.1867-0.2393h0.67146v4.3977h1.097v0.56509h-2.8587v-0.56509"/>
  <path d="m260.17 371.85h4.2614v0.55844h-4.2614v-0.55844m0 1.3562h4.2614v0.56509h-4.2614v-0.56509"/>
  <path d="m268.63 374.37h2.3435v0.56509h-3.1512v-0.56509c0.25485-0.2637 0.60165-0.61716 1.0404-1.0604 0.44098-0.44544 0.71799-0.73242 0.83102-0.86096 0.21494-0.24152 0.36453-0.4454 0.44876-0.61163 0.086395-0.1684 0.12961-0.3335 0.12964-0.49527-3.1e-5 -0.2637-0.093109-0.47867-0.27924-0.64487-0.18393-0.1662-0.42438-0.2493-0.72134-0.2493-0.21051 0-0.43323 0.036591-0.66812 0.10968-0.2327 0.07309-0.482 0.18393-0.74792 0.3324v-0.6781c0.27036-0.10858 0.52298-0.19058 0.7579-0.24597 0.23489-0.05542 0.44986-0.083099 0.64487-0.083099 0.51413 0 0.92407 0.12851 1.2299 0.38559 0.30582 0.25705 0.45874 0.60056 0.45874 1.0305 0 0.20389-0.038818 0.3978-0.11633 0.58173-0.075409 0.1817-0.21387 0.39667-0.41553 0.64487-0.055389 0.064301-0.23157 0.2504-0.52853 0.55844-0.29694 0.30582-0.71576 0.73462-1.2565 1.2864"/>
 </g>
 <g fill="#fff" fill-rule="evenodd" stroke="#000" stroke-linecap="round" stroke-width="1.625">
  <rect x="257.75" y="356.48" width="10.102" height="5.0508" rx="2.5254" ry="2.5254"/>
  <rect x="270.29" y="356.48" width="10.102" height="5.0508" rx="2.5254" ry="2.5254"/>
  <rect x="282.83" y="356.48" width="10.102" height="5.0508" rx="2.5254" ry="2.5254"/>
  <rect x="295.38" y="356.48" width="10.102" height="5.0508" rx="2.5254" ry="2.5254"/>
  <rect x="257.75" y="365.32" width="10.102" height="5.0508" rx="2.5254" ry="2.5254"/>
  <rect x="270.29" y="365.32" width="10.102" height="5.0508" rx="2.5254" ry="2.5254"/>
  <rect x="282.83" y="365.32" width="10.102" height="5.0508" rx="2.5254" ry="2.5254"/>
  <rect x="295.38" y="365.32" width="10.102" height="5.0508" rx="2.5254" ry="2.5254"/>
  <rect x="257.75" y="374.16" width="10.102" height="5.0508" rx="2.5254" ry="2.5254"/>
  <rect x="270.29" y="374.16" width="10.102" height="5.0508" rx="2.5254" ry="2.5254"/>
  <rect x="282.83" y="374.16" width="10.102" height="5.0508" rx="2.5254" ry="2.5254"/>
  <rect x="295.38" y="374.16" width="10.102" height="5.0508" rx="2.5254" ry="2.5254"/>
  <rect x="257.75" y="383" width="10.102" height="5.0508" rx="2.5254" ry="2.5254"/>
  <rect x="270.29" y="383" width="10.102" height="5.0508" rx="2.5254" ry="2.5254"/>
  <rect x="282.83" y="383" width="10.102" height="5.0508" rx="2.5254" ry="2.5254"/>
  <rect x="295.38" y="383" width="10.102" height="5.0508" rx="2.5254" ry="2.5254"/>
  <rect x="257.75" y="391.84" width="10.102" height="5.0508" rx="2.5254" ry="2.5254"/>
  <rect x="270.29" y="391.84" width="10.102" height="5.0508" rx="2.5254" ry="2.5254"/>
  <rect x="282.83" y="391.84" width="10.102" height="5.0508" rx="2.5254" ry="2.5254"/>
  <rect x="295.38" y="391.84" width="10.102" height="5.0508" rx="2.5254" ry="2.5254"/>
 </g>
 <g fill-rule="evenodd" stroke="#000" stroke-linecap="round">
  <g transform="matrix(-.49222 -.14259 -.066573 .2298 -3.9226 311.43)" stroke-width="3.6">
   <path d="m-619.61-283.96v242.44h16.188v-242.44l-8.0908-19.698-8.0967 19.698z" fill="#fca"/>
   <path d="m-619.61-280.64v242.44h16.188v-242.44c-5.9904 8.9185-11.135 5.1458-16.188 0z" fill="#ff0"/>
   <path d="m-607.84-294.45l-3.6721-8.9401-4.2064 10.234c4.6333 3.5832 5.9659 0.56497 7.8785-1.2936z"/>
  </g>
  <g fill="#fff">
   <path d="m313.07 367.66c4.9232 19.18 0.63532 36.604-12.838 52.276-24.399 7.2261-44.172 3.4558-59.319-11.31-8.8163-22.208 2.8602-36.932 12.838-52.276 17.816 8.4212 36.899 13.832 59.319 11.31z" stroke-width="2.361"/>
   <g stroke-width="6.07">
    <path d="m354.5 501.92a10.81 9.5244 0 1 1 21.619 -10.761 10.81 9.5244 0 1 1 -21.619 10.761z"/>
    <path d="m356.43 424.69a10.81 9.5244 0 1 1 21.619 -10.761 10.81 9.5244 0 1 1 -21.619 10.761z"/>
   </g>
  </g>
  <g stroke-width="3.501">
   <g fill="#fff">
    <path d="m479.22 349.44c15.551 67.854 25.822 103.94 13.466 144.74-14.635-11.397-48.865-9.9833-69.061-1.7822 11.977-45.923 27.653-91.492 6.4187-144.73"/>
    <path d="m102.53 354.94c-10.892 9.8519-5.5257 76.569-8.2885 97.508 22.824 2.7147 39.921 13.773 39.921 27.016 0 15.279-22.742 27.658-50.8 27.658-28.057 0-50.816-12.379-50.816-27.658 0-12.433 15.063-22.959 35.793-26.445-2.7605-21.13 3.4502-87.193-8.2885-98.079 14.16-4.9012 28.319-5.524 42.479 0z" fill-opacity=".476"/>
   </g>
   <path d="m128.26 492.51c-8.551 8.7134-25.42 14.64-44.834 14.64-17.894 0-33.632-5.0347-42.686-12.646 6.034-6.6256 85.585-6.8925 87.521-1.9947z" fill="#f00"/>
   <g fill="#ffe6d5">
    <path d="m115.34 420.52c-8.3764 0.17474-15.854-5.6099-16.251-20.371-0.066002-2.4566-4.3918-10.705-4.1003-12.972-2.5555-0.67044-17.75 0.43341-20.368-0.62558-15.229-6.1614-24.752-16.598-21.256-23.307 1.8574-3.5642 7.0201-5.3578 13.728-5.3347 5.9186 0.020386 25.63-0.50812 32.768 2.38 5.7965 2.3452 15.191 11.185 18.929 14.327 0.005997 0.005005 0.010696 0.01001 0.016197 0.014313 5.8987 3.635 10.294 13.356 10.604 24.876 0.10533 3.9204-0.27304 7.6537-1.0425 11.026"/>
    <path d="m66.99 396.94c16.757 0 30.337 5.9827 30.337 13.365 0 7.3826-13.58 13.38-30.337 13.38s-31.765-6.1049-30.337-13.38c3.1452-16.022 13.58-13.365 30.337-13.365z"/>
    <path d="m58.488 413.57c16.757 0 30.337 5.9827 30.337 13.365 0 7.3826-11.73 14.017-28.487 14.017s-29.187-5.8442-28.503-13.202c2.0351-21.891 9.8959-14.18 26.653-14.18z"/>
    <path d="m57.648 430.53c16.757 0 30.337 5.9827 30.337 13.365 0 7.3826-13.58 13.365-30.337 13.365s-27.781-6.1821-27.393-12.713c1.6612-27.964 10.636-14.017 27.393-14.017z"/>
   </g>
  </g>
  <g fill="#ff0" fill-opacity=".502">
   <g stroke-width="3.6">
    <path d="m96.763 309.09l16.997 2.8135 6.6572 14.064 8.2891-13.374 17.237-1.2327-11.874-11.079 3.9961-14.826-15.628 6.5265-14.768-7.93 2.2154 15.112-13.123 9.9245z"/>
    <path d="m34.685 333.55l16.971-2.9621 10.931 11.073 3.4032-15.362 15.861-6.8605-14.868-6.5319-1.1284-15.313-12.592 11.325-16.559-2.6036 7.0857 13.531-9.1054 13.704z"/>
   </g>
   <g stroke-width="1.751">
    <path d="m89.893 324.4c9.4005 0 17.03 3.3614 17.03 7.5028 0 3.0611-4.1822 5.6957-10.15 6.8609-1.2299 1.5107-4.501 2.596-8.3533 2.596-0.81352 0-1.5988-0.052399-2.3473-0.14264-0.74006 2.6645-4.9536 4.7071-10.053 4.7071-5.6212 0-10.183-2.4876-10.183-5.5487 0-2.7422 3.6635-5.0042 8.4666-5.4488-0.92257-0.92343-1.4246-1.9503-1.4246-3.024 0-4.1414 7.6137-7.5028 17.014-7.5028z"/>
    <path d="m73.244 296.37c-9.4005 0-17.03-3.3614-17.03-7.5028 0-3.0611 4.1822-5.6957 10.15-6.8609 1.2299-1.5107 4.501-2.596 8.3533-2.596 0.81352 0 1.5988 0.052399 2.3473 0.14264 0.74006-2.6645 4.9536-4.7071 10.053-4.7071 5.6212 0 10.183 2.4876 10.183 5.5487 0 2.7422-3.6635 5.0042-8.4666 5.4488 0.92257 0.92343 1.4246 1.9503 1.4246 3.024 0 4.1414-7.6137 7.5028-17.014 7.5028z"/>
   </g>
  </g>
  <g stroke-width="2.3">
   <rect transform="matrix(-.97727 -.212 -.212 .97727 0 0)" x="-383.68" y="394.45" width="56.82" height="102.38" fill="#0f0"/>
   <rect transform="matrix(-.97625 -.21663 -.21663 .97625 0 0)" x="-382.16" y="398.57" width="48.487" height="24.244" fill="#fff"/>
  </g>
 </g>
 <g transform="rotate(10.273)">
  <path d="m320.52 423.8c0-0.059875 0.003021-0.31903 0.007996-0.77734 0.005035-0.31512 0.003021-0.57294-0.007996-0.77344-0.005005-0.27862-0.020782-0.52472-0.046906-0.73828-0.015564-0.11719-0.050781-0.24738-0.10544-0.39062-0.0625-0.17188-0.10419-0.30341-0.12503-0.39453-0.033875-0.21875-0.10156-0.55731-0.20309-1.0156 0.70572 0.40106 1.3724 1.0469 2 1.9375 0.20309 0.24481 0.49738 0.64453 0.88281 1.1992 0-0.64581-0.061218-1.2773-0.18362-1.8945-0.023407-0.20312-0.048187-0.40625-0.074188-0.60938-0.031281-0.22919-0.10806-0.41016-0.23047-0.54297 0.24478 0 0.50259 0.17316 0.77341 0.51953 0.24222 0.2995 0.39978 0.59503 0.47269 0.88672 0.15625 0.58331 0.23438 1.3594 0.23438 2.3281v-0.039124c0 0.26562-0.023407 0.62891-0.070282 1.0898-0.044312 0.45837-0.066406 0.80994-0.066406 1.0547-0.28388-0.16144-0.53516-0.41534-0.75391-0.76172-0.16406-0.30206-0.32944-0.60284-0.49609-0.90234-0.13281-0.22913-0.31903-0.50391-0.55859-0.82422-0.20312-0.27081-0.40888-0.54297-0.61719-0.81641-0.010406 0.10156 0 0.23438 0.031189 0.39844 0.033905 0.18231 0.050781 0.31903 0.050781 0.41016 0 0.14844-0.040375 0.33984-0.12109 0.57422-0.085876 0.26306-0.13409 0.46356-0.14453 0.60156v0.71875c0-0.005005 0.007996 0.08075 0.023407 0.25781 0.010406 0.10156 0.001007 0.16931-0.027313 0.20312-0.028595 0.033936-0.070282 0.050842-0.12497 0.050842-0.096405-0.005005-0.14716-0.007996-0.15237-0.007996-0.19528 0.033875-0.47784 0.050781-0.84763 0.050781 0.20831-0.25262 0.34506-0.52734 0.41013-0.82422 0.046936-0.21875 0.070313-0.54169 0.070313-0.96875"/>
  <path d="m328.26 423.56c0-0.36719-0.16278-0.67059-0.48828-0.91016-0.30472-0.21875-0.65759-0.32812-1.0586-0.32812h0.10547c-0.78906-0.026001-1.1836 0.31769-1.1836 1.0312 0 0.38544 0.14581 0.73438 0.4375 1.0469 0.25256 0.26825 0.57031 0.47394 0.95312 0.61719 0.010376 0.005005-0.005005 0.020813-0.046906 0.046875 0.096405-0.088501 0.25128-0.22656 0.46481-0.41406 0.54428-0.42706 0.81641-0.79034 0.81641-1.0898m-1.1601 2.1445c-0.14584-0.072937-0.34769-0.15106-0.6055-0.23444-0.25781-0.083252-0.45703-0.16534-0.59763-0.24609-0.91147-0.526-1.3672-1.181-1.3672-1.9648 0-0.25262 0.037811-0.48828 0.11331-0.70709 0.096405-0.26038 0.22916-0.44659 0.39841-0.55859 0.27344-0.17181 0.65756-0.27862 1.1523-0.32025 0.17188-0.015625 0.59116-0.023438 1.2578-0.023438 0.62762 0 1.0912 0.28516 1.3907 0.85547 0.22916 0.44275 0.34372 1.0052 0.34372 1.6875 0 0.487-0.26172 0.86591-0.78513 1.1367-0.4245 0.224-0.91406 0.33594-1.4688 0.33594l0.168 0.0391"/>
  <path d="m331.32 425.75c-0.14844-0.070313-0.26825-0.20441-0.35938-0.40234-0.067719-0.19269-0.13934-0.38153-0.21484-0.56641-0.112-0.27344-0.17841-0.43878-0.19922-0.49609-0.059937-0.16669-0.095032-0.33984-0.10547-0.51953-0.010437-0.18231 0.010376-0.38019 0.0625-0.59375 0.096375-0.35675 0.14453-0.53778 0.14453-0.54297h-0.99219c0.054688-0.23438 0.17838-0.39453 0.37109-0.48047 0.052094-0.020813 0.15625-0.032593 0.31247-0.035217 0.15884-0.002991 0.26694-0.014282 0.32422-0.035156 0.10678-0.039124 0.16278-0.11462 0.168-0.22656 0-0.010437-0.005035-0.084595-0.015625-0.22266-0.010376-0.13806-0.015594-0.25262-0.015594-0.34375 0-0.1875 0.024689-0.28125 0.074188-0.28125 0.40366 0 0.69141-0.002991 0.86331-0.007996 0.031189 0.096375 0.046906 0.2005 0.046906 0.3125 0 0.0755-0.010437 0.18488-0.031219 0.32812-0.020782 0.14319-0.031219 0.25262-0.031219 0.32812 0 0.0625 0.005005 0.12372 0.015625 0.18359 0.096283-0.026001 0.24869-0.063843 0.45703-0.11328h1.918c-0.67188 0.38544-1.3112 0.57812-1.918 0.57812-0.44791 0-0.67191 0.14581-0.67191 0.4375 0 0.0755 0.018219 0.16925 0.054718 0.28125 0.052094 0.14319 0.080719 0.23438 0.085907 0.27344 0.033875 0.15362 0.061188 0.34241 0.082001 0.56641 0.031189 0.33075 0.0495 0.526 0.054688 0.58594 0.010406 0.078064 0.045593 0.19141 0.10547 0.33984 0.0625 0.14581 0.093719 0.26953 0.093719 0.37109 0 0.16925-0.27997 0.25391-0.83984 0.25391l0.1601 0.0273"/>
  <path d="m337.6 422.82c0-0.020813-0.015625-0.067688-0.046906-0.14062-0.031311-0.072876-0.058624-0.11719-0.082001-0.13281-0.052094-0.036377-0.14978-0.054688-0.29297-0.054688-0.080719 0-0.19531 0.006958-0.34375 0.01947-0.14584 0.013-0.237 0.019531-0.27344 0.019531-0.005035 0-0.13544-0.005005-0.39062-0.015625-0.15625-0.005005-0.29297 0-0.41019 0.015625-0.096375 0.010376-0.22134 0.079407-0.37497 0.20703-0.19272 0.15625-0.3125 0.24738-0.35938 0.27344 0.26562 0.065063 0.53122 0.12891 0.79688 0.19141 0.30988 0.0755 0.58722 0.11328 0.83203 0.11328 0.20312 0 0.40103-0.040405 0.59375-0.12109 0.23434-0.096436 0.35156-0.22138 0.35156-0.375m0.4727-0.7266c0.015594 0.11194 0.076782 0.29553 0.18356 0.55078 0.085907 0.22394 0.12891 0.42053 0.12894 0.58984-3.1e-5 0.30469-0.20053 0.50256-0.60156 0.59375-0.18491 0.041687-0.51825 0.0625-1 0.0625-0.1745 0-0.42841-0.044312-0.76172-0.13281-0.33334-0.091125-0.58597-0.13672-0.75781-0.13672-0.26562 0-0.39844 0.098999-0.39844 0.29688 0 0.35675 0.19141 0.63409 0.57422 0.83203 0.30988 0.15362 0.67578 0.23047 1.0977 0.23047 0.20831 0 0.4505-0.032593 0.72656-0.097717 0.3255-0.072876 0.55469-0.16534 0.6875-0.27734 0.065094-0.054688 0.14581-0.15753 0.24219-0.30859 0.096375-0.15362 0.17053-0.25909 0.22266-0.31641l0.0234 0.5273c-0.0625 0.27862-0.19272 0.48175-0.39062 0.60938-0.11197 0.072876-0.34375 0.16278-0.69531 0.26953-0.65103 0.19794-1.1575 0.29688-1.5195 0.29688-0.45056 0-0.85678-0.15753-1.2188-0.47266-0.37766-0.3255-0.56644-0.70703-0.56644-1.1445 0-0.96875-0.002991-1.1758-0.007996-0.62109 0-0.25781 0.020813-0.45575 0.0625-0.59375 0.112-0.388 0.34375-0.68359 0.69531-0.88672 0.3255-0.1875 0.71484-0.28125 1.168-0.28125 0.56509 0 1.0833 0.058594 1.5547 0.17578 0.11197 0.026123 0.23438 0.084595 0.36719 0.17578 0.19272 0.11719 0.31512 0.19012 0.36719 0.21875l-0.1836-0.1602"/>
  <path d="m343.09 422.7c0.49738 0 0.89844-0.058594 1.2031-0.17578 0.36722-0.14325 0.55081-0.35938 0.55081-0.64844 0-0.35156-0.19403-0.65753-0.58203-0.91797-0.38544-0.263-0.82944-0.39453-1.332-0.39453-0.067719 0-0.14716 0.052124-0.23828 0.15625-0.091125 0.10419-0.13675 0.18097-0.13675 0.23047 0 0.18488 0.10809 0.44531 0.32425 0.78125 0.21612 0.33594 0.32422 0.57684 0.32422 0.72266 0 0.16925-0.10156 0.31512-0.30469 0.4375l0.1914-0.1914m-1.6055 2.8984c0.026001-0.096375 0.079376-0.19531 0.16016-0.29688 0.11716-0.15106 0.18619-0.24219 0.207-0.27344 0.15366-0.26562 0.25003-0.60419 0.28909-1.0156 0.004974-0.085876 0.007965-0.44531 0.007965-1.0781 0-0.33075-0.032562-0.66406-0.097565-1-0.015625-0.091125-0.082031-0.40106-0.19922-0.92969-0.015625-0.18231-0.061218-0.46747-0.13672-0.85547v-0.50391c0.49219 0.10156 0.98566 0.20056 1.4805 0.29688 0.59112 0.12244 1.0625 0.24738 1.4141 0.375 1.3463 0.47919 2.0195 1.0977 2.0195 1.8555 0 0.44269-0.21875 0.75262-0.65625 0.92969-0.2995 0.11719-0.80078 0.19403-1.5039 0.23047 0.44791-0.026001 0.85022 0.0755 1.207 0.30469 0.35675 0.22919 0.53513 0.50653 0.53513 0.83203 0 0.27606-0.16275 0.47528-0.48825 0.59766-0.23962 0.091125-0.60156 0.14716-1.0859 0.16797-0.36981 0.018188-0.73831 0.035217-1.1055 0.050781-0.63541 0.052124-1.3607 0.19531-2.1758 0.42969l0.1289-0.1172m3.5195-1.2344c0-0.10675-0.063812-0.19141-0.19144-0.25391-0.10678-0.0495-0.21353-0.095093-0.32031-0.13672-0.138-0.096375-0.27475-0.19141-0.41013-0.28516-0.13284-0.093689-0.31384-0.14062-0.54297-0.14062-0.20316 0-0.33466 0.010437-0.39453 0.031189-0.057312 0.01825-0.091217 0.063843-0.10156 0.13672-0.015594 0.11725-0.028625 0.23181-0.039124 0.34375-0.10153 0.60944-0.36588 0.99353-0.79297 1.1523 0.096405-0.026001 0.27997-0.10284 0.55078-0.23041 0.19794-0.096436 0.431-0.16278 0.69922-0.19922 0.25-0.054749 0.65756-0.13544 1.2227-0.24219 0.21353-0.03125 0.32028-0.089844 0.32028-0.17578"/>
  <path d="m350.82 423.56c0-0.36719-0.16278-0.67059-0.48828-0.91016-0.30469-0.21875-0.65759-0.32812-1.0586-0.32812h0.10544c-0.78903-0.026001-1.1836 0.31769-1.1836 1.0312 0 0.38544 0.14581 0.73438 0.4375 1.0469 0.25256 0.26825 0.57031 0.47394 0.95312 0.61719 0.010376 0.005005-0.005005 0.020813-0.046906 0.046875 0.096405-0.088501 0.25128-0.22656 0.46481-0.41406 0.54428-0.42706 0.81644-0.79034 0.81644-1.0898m-1.1602 2.1445c-0.14584-0.072937-0.34769-0.15106-0.6055-0.23444-0.25781-0.083252-0.457-0.16534-0.59763-0.24609-0.91147-0.526-1.3672-1.181-1.3672-1.9648 0-0.25262 0.037781-0.48828 0.11325-0.70709 0.096436-0.26038 0.22919-0.44659 0.39847-0.55859 0.27341-0.17181 0.65753-0.27862 1.1523-0.32025 0.17191-0.015625 0.59116-0.023438 1.2578-0.023438 0.62762 0 1.0912 0.28516 1.3906 0.85547 0.22919 0.44275 0.34375 1.0052 0.34375 1.6875 0 0.487-0.26169 0.86591-0.78513 1.1367-0.4245 0.224-0.91406 0.33594-1.4688 0.33594l0.168 0.0391"/>
  <path d="m356.08 423.56c0-0.36719-0.16278-0.67059-0.48828-0.91016-0.30472-0.21875-0.65756-0.32812-1.0586-0.32812h0.1055c-0.78906-0.026001-1.1836 0.31769-1.1836 1.0312 0 0.38544 0.14581 0.73438 0.4375 1.0469 0.25259 0.26825 0.57031 0.47394 0.95309 0.61719 0.010406 0.005005-0.004974 0.020813-0.046906 0.046875 0.096436-0.088501 0.25134-0.22656 0.46487-0.41406 0.54428-0.42706 0.81641-0.79034 0.81641-1.0898m-1.1602 2.1445c-0.14584-0.072937-0.34766-0.15106-0.60547-0.23444-0.25781-0.083252-0.45703-0.16534-0.59769-0.24609-0.91144-0.526-1.3672-1.181-1.3672-1.9648 0-0.25262 0.037811-0.48828 0.11328-0.70709 0.096405-0.26038 0.22916-0.44659 0.39841-0.55859 0.27347-0.17181 0.65756-0.27862 1.1524-0.32025 0.17184-0.015625 0.59116-0.023438 1.2578-0.023438 0.62759 0 1.0912 0.28516 1.3906 0.85547 0.22916 0.44275 0.34372 1.0052 0.34375 1.6875-3.1e-5 0.487-0.26175 0.86591-0.78516 1.1367-0.4245 0.224-0.91409 0.33594-1.4688 0.33594l0.168 0.0391"/>
  <path d="m357.67 425.66c0.17188-0.34112 0.29034-0.83466 0.35547-1.4805 0.041687-0.388 0.085876-0.77734 0.13281-1.168 0.0495-0.45312 0.074188-0.85284 0.074188-1.1992-3.1e-5 -0.33594-0.032593-0.72003-0.097687-1.1523-0.096436-0.63019-0.14975-0.987-0.16016-1.0703 0.0495 0.031311 0.22003 0.10028 0.51172 0.20703 0.19791 0.067688 0.3125 0.17706 0.34372 0.32812 0.04953 0.20831 0.087219 0.66144 0.11331 1.3594 0.015594 0.40106 0.023376 1.2148 0.023376 2.4414 0.41669-0.070313 0.83856-0.21747 1.2656-0.44141 0.42709-0.22394 0.76562-0.48309 1.0156-0.77734-0.41666 0.74219-0.92838 1.3958-1.5352 1.9609 0.25 0.015625 0.47919 0.13019 0.6875 0.34375 0.036499 0.036499 0.19662 0.24481 0.48047 0.625-0.86456 0-1.4648-0.18359-1.8008-0.55078-0.080688-0.11719-0.22525-0.28778-0.43359-0.51172-0.23438 0.53644-0.55988 0.89844-0.97656 1.0859"/>
 </g>
 <path d="m282.36 516.8c6.8704 18.955 4.4062 36.613-7.3661 52.976-23.501 8.4533-43.539 5.6666-60.113-8.3585-11.051-21.793-0.96655-37.116 7.3662-52.976 18.573 7.5405 38.094 12.004 60.113 8.3586z" fill="#fff" fill-rule="evenodd" stroke="#000" stroke-linecap="round" stroke-width="2.361"/>
</svg>
