<?xml version="1.0" encoding="UTF-8"?>
<svg enable-background="new 0 0 595.28 841.89" viewBox="0 0 595.28 841.89" xmlns="http://www.w3.org/2000/svg">
 <path d="m197.44 110.56h57.747v26.955h28.371v113.48h56.743v28.373h85.113v28.371h56.742v28.372h28.371v28.371h28.368v198.18h-28.375v85.112h-28.372v85.111h-284.71v-85.117h-28.374v-56.742h-28.371v-56.742h-28.371v-56.742h-28.372v-28.372h-26.95v-84.693h84.701v28.372h27.368v-255.34h28.369z" fill="#231f20"/>
 <path d="m198.86 137.52v368.82h-30.204v-85.106h-28.371v-28.375h-54.911v56.321h28.368v28.372h28.372v56.742h28.371v56.742h28.371v56.742h28.372v56.746h225.13v-56.74h28.372v-85.112h28.375v-198.18h-28.37v-28.374h-26.539v85.11h-30.205v-113.48h-54.907v85.11h-30.205v-113.48h-54.907v113.48h-30.205v-255.34z" fill="#1a171b"/>
 <path d="m198.86 137.52h54.908v255.34h30.205v-113.48h54.907v113.48h30.205v-85.11h54.907v113.48h30.205v-85.11h26.539v28.374h28.37v198.18h-28.375v85.112h-28.372v56.74h-225.13v-56.746h-28.372v-56.742h-28.371v-56.742h-28.371v-56.742h-28.372v-28.372h-28.368v-56.321h54.911v28.375h28.371v85.106h30.204z" fill="#fff"/>
</svg>
