<?xml version="1.0" encoding="utf-8"?>
<!-- Generator: Adobe Illustrator 18.1.1, SVG Export Plug-In . SVG Version: 6.00 Build 0)  -->
<svg version="1.1" id="Layer_1" xmlns="http://www.w3.org/2000/svg" xmlns:xlink="http://www.w3.org/1999/xlink" x="0px" y="0px"
	 viewBox="0 0 849 646.5" enable-background="new 0 0 849 646.5" xml:space="preserve">
<text transform="matrix(1 0 0 1 86.5838 499.9147)" font-family="'HelveticaNeue'" font-size="21">20000</text>
<text transform="matrix(1 0 0 1 86.5838 400.2147)" font-family="'HelveticaNeue'" font-size="21">60000</text>
<text transform="matrix(1 0 0 1 74.908 300.5145)" font-family="'HelveticaNeue'" font-size="21">100000</text>
<text transform="matrix(1 0 0 1 74.9075 200.8145)" font-family="'HelveticaNeue'" font-size="21">140000</text>
<text transform="matrix(1 0 0 1 74.9075 101.0145)" font-family="'HelveticaNeue'" font-size="21">180000</text>
<text transform="matrix(1 0 0 1 139.1068 567.8143)" font-family="'HelveticaNeue'" font-size="21">0</text>
<text transform="matrix(1 0 0 1 212.6068 570.8143)" font-family="'HelveticaNeue'" font-size="21">20000</text>
<text transform="matrix(1 0 0 1 380.7064 570.8147)" font-family="'HelveticaNeue'" font-size="21">60000</text>
<text transform="matrix(1 0 0 1 546.4075 570.8145)" font-family="'HelveticaNeue'" font-size="21">100000</text>
<text transform="matrix(1 0 0 1 714.6068 570.8143)" font-family="'HelveticaNeue'" font-size="21">140000</text>
<rect x="157.5" y="78.4" fill="none" stroke="#000000" stroke-width="3" stroke-miterlimit="10" width="649.6" height="468.8"/>
<text transform="matrix(-4.489659e-11 -1 1 -4.489659e-11 50.8668 444.0137)" font-family="'HelveticaNeue-CondensedBold'" font-size="30">Assembled sequence</text>
<text transform="matrix(1 0 0 1 367.4827 617.3145)" font-family="'HelveticaNeue-CondensedBold'" font-size="30">Real sequence</text>
<g>
	
		<line fill="none" stroke="#000000" stroke-width="5" stroke-miterlimit="10" stroke-dasharray="1,2" x1="157.5" y1="547.2" x2="807.1" y2="547.2"/>
	
		<line fill="none" stroke="#000000" stroke-width="5" stroke-miterlimit="10" stroke-dasharray="1,2" x1="157.5" y1="547.2" x2="157.5" y2="78.4"/>
	<path fill="none" stroke="#FF0000" stroke-width="5" stroke-miterlimit="10" d="M645.2,109.9l17.7-10.4 M640,116.7l5.4-3.1
		 M599,116.7l4.4-2.6 M533.3,135.1l23.9-14.1 M513,159.4l13.9-8.2 M472.2,188.2l41-24.3 M157.5,189.8L345.4,78.4 M160.2,388.5
		l41-24.3 M204.6,547.2l602.5-357.4 M669.3,83.4l8.4-5 M644.3,121.1l1.1-0.7"/>
	<path fill="none" stroke="#FF0000" stroke-width="5" stroke-miterlimit="10" d="M645.9,121.1c0-0.9-0.7-1.6-1.6-1.6
		c-0.9,0-1.6,0.7-1.6,1.6c0,0.9,0.7,1.6,1.6,1.6C645.2,122.7,645.9,122,645.9,121.1"/>
	
		<line fill="none" stroke="#FF0000" stroke-width="5" stroke-linecap="round" stroke-miterlimit="10" x1="644.3" y1="121.1" x2="644.3" y2="121.1"/>
	<path fill="none" stroke="#FF0000" stroke-width="5" stroke-miterlimit="10" d="M647,120.4c0-0.9-0.7-1.6-1.6-1.6
		c-0.9,0-1.6,0.7-1.6,1.6c0,0.9,0.7,1.6,1.6,1.6C646.3,122,647,121.3,647,120.4"/>
	
		<line fill="none" stroke="#FF0000" stroke-width="5" stroke-linecap="round" stroke-miterlimit="10" x1="645.4" y1="120.4" x2="645.4" y2="120.4"/>
	<path fill="none" stroke="#FF0000" stroke-width="5" stroke-miterlimit="10" d="M670.9,83.4c0-0.9-0.7-1.6-1.6-1.6
		c-0.9,0-1.6,0.7-1.6,1.6s0.7,1.6,1.6,1.6C670.2,85,670.9,84.3,670.9,83.4"/>
	
		<line fill="none" stroke="#FF0000" stroke-width="5" stroke-linecap="round" stroke-miterlimit="10" x1="669.3" y1="83.4" x2="669.3" y2="83.4"/>
	<path fill="none" stroke="#FF0000" stroke-width="5" stroke-miterlimit="10" d="M679.3,78.4c0-0.9-0.7-1.6-1.6-1.6
		s-1.6,0.7-1.6,1.6c0,0.9,0.7,1.6,1.6,1.6S679.3,79.3,679.3,78.4"/>
	
		<line fill="none" stroke="#FF0000" stroke-width="5" stroke-linecap="round" stroke-miterlimit="10" x1="677.7" y1="78.4" x2="677.7" y2="78.4"/>
	<path fill="none" stroke="#FF0000" stroke-width="5" stroke-miterlimit="10" d="M206.2,547.2c0-0.9-0.7-1.6-1.6-1.6
		s-1.6,0.7-1.6,1.6c0,0.9,0.7,1.6,1.6,1.6S206.2,548.1,206.2,547.2"/>
	
		<line fill="none" stroke="#FF0000" stroke-width="5" stroke-linecap="round" stroke-miterlimit="10" x1="204.6" y1="547.2" x2="204.6" y2="547.2"/>
	<path fill="none" stroke="#FF0000" stroke-width="5" stroke-miterlimit="10" d="M808.7,189.8c0-0.9-0.7-1.6-1.6-1.6
		c-0.9,0-1.6,0.7-1.6,1.6s0.7,1.6,1.6,1.6C808,191.4,808.7,190.7,808.7,189.8"/>
	
		<line fill="none" stroke="#FF0000" stroke-width="5" stroke-linecap="round" stroke-miterlimit="10" x1="807.1" y1="189.8" x2="807.1" y2="189.8"/>
	<path fill="none" stroke="#FF0000" stroke-width="5" stroke-miterlimit="10" d="M161.8,388.5c0-0.9-0.7-1.6-1.6-1.6
		s-1.6,0.7-1.6,1.6s0.7,1.6,1.6,1.6S161.8,389.4,161.8,388.5"/>
	
		<line fill="none" stroke="#FF0000" stroke-width="5" stroke-linecap="round" stroke-miterlimit="10" x1="160.2" y1="388.5" x2="160.2" y2="388.5"/>
	<path fill="none" stroke="#FF0000" stroke-width="5" stroke-miterlimit="10" d="M202.8,364.2c0-0.9-0.7-1.6-1.6-1.6
		s-1.6,0.7-1.6,1.6s0.7,1.6,1.6,1.6S202.8,365.1,202.8,364.2"/>
	
		<line fill="none" stroke="#FF0000" stroke-width="5" stroke-linecap="round" stroke-miterlimit="10" x1="201.2" y1="364.2" x2="201.2" y2="364.2"/>
	<path fill="none" stroke="#FF0000" stroke-width="5" stroke-miterlimit="10" d="M159.1,189.8c0-0.9-0.7-1.6-1.6-1.6
		s-1.6,0.7-1.6,1.6s0.7,1.6,1.6,1.6S159.1,190.7,159.1,189.8"/>
	
		<line fill="none" stroke="#FF0000" stroke-width="5" stroke-linecap="round" stroke-miterlimit="10" x1="157.5" y1="189.8" x2="157.5" y2="189.8"/>
	<path fill="none" stroke="#FF0000" stroke-width="5" stroke-miterlimit="10" d="M347,78.4c0-0.9-0.7-1.6-1.6-1.6s-1.6,0.7-1.6,1.6
		c0,0.9,0.7,1.6,1.6,1.6S347,79.3,347,78.4"/>
	
		<line fill="none" stroke="#FF0000" stroke-width="5" stroke-linecap="round" stroke-miterlimit="10" x1="345.4" y1="78.4" x2="345.4" y2="78.4"/>
	<path fill="none" stroke="#FF0000" stroke-width="5" stroke-miterlimit="10" d="M473.8,188.2c0-0.9-0.7-1.6-1.6-1.6
		c-0.9,0-1.6,0.7-1.6,1.6s0.7,1.6,1.6,1.6C473.1,189.8,473.8,189.1,473.8,188.2"/>
	
		<line fill="none" stroke="#FF0000" stroke-width="5" stroke-linecap="round" stroke-miterlimit="10" x1="472.2" y1="188.2" x2="472.2" y2="188.2"/>
	<path fill="none" stroke="#FF0000" stroke-width="5" stroke-miterlimit="10" d="M514.8,163.9c0-0.9-0.7-1.6-1.6-1.6
		s-1.6,0.7-1.6,1.6s0.7,1.6,1.6,1.6S514.8,164.8,514.8,163.9"/>
	
		<line fill="none" stroke="#FF0000" stroke-width="5" stroke-linecap="round" stroke-miterlimit="10" x1="513.2" y1="163.9" x2="513.2" y2="163.9"/>
	<path fill="none" stroke="#FF0000" stroke-width="5" stroke-miterlimit="10" d="M514.6,159.4c0-0.9-0.7-1.6-1.6-1.6
		c-0.9,0-1.6,0.7-1.6,1.6s0.7,1.6,1.6,1.6C513.9,161,514.6,160.3,514.6,159.4"/>
	
		<line fill="none" stroke="#FF0000" stroke-width="5" stroke-linecap="round" stroke-miterlimit="10" x1="513" y1="159.4" x2="513" y2="159.4"/>
	<path fill="none" stroke="#FF0000" stroke-width="5" stroke-miterlimit="10" d="M528.5,151.2c0-0.9-0.7-1.6-1.6-1.6
		c-0.9,0-1.6,0.7-1.6,1.6s0.7,1.6,1.6,1.6C527.8,152.8,528.5,152.1,528.5,151.2"/>
	
		<line fill="none" stroke="#FF0000" stroke-width="5" stroke-linecap="round" stroke-miterlimit="10" x1="526.9" y1="151.2" x2="526.9" y2="151.2"/>
	<path fill="none" stroke="#FF0000" stroke-width="5" stroke-miterlimit="10" d="M534.9,135.1c0-0.9-0.7-1.6-1.6-1.6
		c-0.9,0-1.6,0.7-1.6,1.6s0.7,1.6,1.6,1.6C534.2,136.7,534.9,136,534.9,135.1"/>
	
		<line fill="none" stroke="#FF0000" stroke-width="5" stroke-linecap="round" stroke-miterlimit="10" x1="533.3" y1="135.1" x2="533.3" y2="135.1"/>
	<path fill="none" stroke="#FF0000" stroke-width="5" stroke-miterlimit="10" d="M558.8,121c0-0.9-0.7-1.6-1.6-1.6s-1.6,0.7-1.6,1.6
		c0,0.9,0.7,1.6,1.6,1.6S558.8,121.9,558.8,121"/>
	
		<line fill="none" stroke="#FF0000" stroke-width="5" stroke-linecap="round" stroke-miterlimit="10" x1="557.2" y1="121" x2="557.2" y2="121"/>
	<path fill="none" stroke="#FF0000" stroke-width="5" stroke-miterlimit="10" d="M600.6,116.7c0-0.9-0.7-1.6-1.6-1.6
		c-0.9,0-1.6,0.7-1.6,1.6c0,0.9,0.7,1.6,1.6,1.6C599.9,118.3,600.6,117.6,600.6,116.7"/>
	
		<line fill="none" stroke="#FF0000" stroke-width="5" stroke-linecap="round" stroke-miterlimit="10" x1="599" y1="116.7" x2="599" y2="116.7"/>
	<path fill="none" stroke="#FF0000" stroke-width="5" stroke-miterlimit="10" d="M605,114.1c0-0.9-0.7-1.6-1.6-1.6
		c-0.9,0-1.6,0.7-1.6,1.6s0.7,1.6,1.6,1.6C604.3,115.7,605,115,605,114.1"/>
	
		<line fill="none" stroke="#FF0000" stroke-width="5" stroke-linecap="round" stroke-miterlimit="10" x1="603.4" y1="114.1" x2="603.4" y2="114.1"/>
	<path fill="none" stroke="#FF0000" stroke-width="5" stroke-miterlimit="10" d="M641.6,116.7c0-0.9-0.7-1.6-1.6-1.6
		c-0.9,0-1.6,0.7-1.6,1.6c0,0.9,0.7,1.6,1.6,1.6C640.9,118.3,641.6,117.6,641.6,116.7"/>
	
		<line fill="none" stroke="#FF0000" stroke-width="5" stroke-linecap="round" stroke-miterlimit="10" x1="640" y1="116.7" x2="640" y2="116.7"/>
	<path fill="none" stroke="#FF0000" stroke-width="5" stroke-miterlimit="10" d="M647,113.6c0-0.9-0.7-1.6-1.6-1.6
		c-0.9,0-1.6,0.7-1.6,1.6s0.7,1.6,1.6,1.6C646.3,115.2,647,114.5,647,113.6"/>
	
		<line fill="none" stroke="#FF0000" stroke-width="5" stroke-linecap="round" stroke-miterlimit="10" x1="645.4" y1="113.6" x2="645.4" y2="113.6"/>
	<path fill="none" stroke="#FF0000" stroke-width="5" stroke-miterlimit="10" d="M646.8,109.9c0-0.9-0.7-1.6-1.6-1.6
		s-1.6,0.7-1.6,1.6s0.7,1.6,1.6,1.6S646.8,110.8,646.8,109.9"/>
	
		<line fill="none" stroke="#FF0000" stroke-width="5" stroke-linecap="round" stroke-miterlimit="10" x1="645.2" y1="109.9" x2="645.2" y2="109.9"/>
	<path fill="none" stroke="#FF0000" stroke-width="5" stroke-miterlimit="10" d="M664.5,99.5c0-0.9-0.7-1.6-1.6-1.6
		c-0.9,0-1.6,0.7-1.6,1.6s0.7,1.6,1.6,1.6C663.8,101.1,664.5,100.4,664.5,99.5"/>
	
		<line fill="none" stroke="#FF0000" stroke-width="5" stroke-linecap="round" stroke-miterlimit="10" x1="662.9" y1="99.5" x2="662.9" y2="99.5"/>
	<path fill="none" stroke="#0000FF" stroke-width="5" stroke-miterlimit="10" d="M798.2,234l8.9,5.3 M790.6,229.9l7.1,4.2
		 M760.9,404.4l46.2,27.4 M732.5,393.9l7,4.2 M732.5,195.4l7.1,4.2 M723.8,189.8l8.8,5.3 M683,163.9l40.9,24.3 M669.3,151.2
		l13.8,8.2 M645.2,510l17.7,10.4 M645.2,124.7l17.7,10.4 M631.4,305.5l8.8,5.2 M631.4,329.9l14,8.3 M603.3,288.8l8.7,5.2
		 M603.3,313.2l8.7,5.2 M590.4,305.5l8.8,5.2 M590.4,329.9l13,7.7 M558,310.6l13,7.8 M557,285.7l14,8.3 M533.3,99.5l29.1,17.2
		 M533.3,484.8l29.1,17.2 M513,460.5l13.9,8.2 M463.5,234l87.4,51.8 M455.9,229.9l7.1,4.2 M455.9,422l57.3,34 M399.2,189.8
		l46.2,27.4 M336.9,356l13.9,8.3 M285.9,121l113.4,67.2 M280.7,335l29.1,17.2 M274.4,121l6.5,3.8 M274.4,506.3l6.5,3.8 M267.2,501.9
		l6.4,3.9 M267.2,116.6l6.4,3.9 M249.7,275.4l17.6,10.4 M208.8,263.4l13.8,8.2 M160.2,431.7L273.6,499 M160.2,239.2l41,24.3
		 M645.2,341.8l87.4,51.8 M358.4,364.2l57.2,33.9 M214.2,78.4l59.4,35.3 M550.7,501.9l7.5,4.5 M550.7,116.6l7.5,4.5 M273.5,337.5
		l7.4,4.4 M669.3,536.5l13.8,8.2 M285.9,506.3l69,40.9 M518.4,78.4l8.5,5"/>
	<path fill="none" stroke="#0000FF" stroke-width="5" stroke-miterlimit="10" d="M520,78.4c0-0.9-0.7-1.6-1.6-1.6
		c-0.9,0-1.6,0.7-1.6,1.6c0,0.9,0.7,1.6,1.6,1.6C519.3,80,520,79.3,520,78.4"/>
	
		<line fill="none" stroke="#0000FF" stroke-width="5" stroke-linecap="round" stroke-miterlimit="10" x1="518.4" y1="78.4" x2="518.4" y2="78.4"/>
	<path fill="none" stroke="#0000FF" stroke-width="5" stroke-miterlimit="10" d="M528.5,83.4c0-0.9-0.7-1.6-1.6-1.6
		c-0.9,0-1.6,0.7-1.6,1.6s0.7,1.6,1.6,1.6C527.8,85,528.5,84.3,528.5,83.4"/>
	
		<line fill="none" stroke="#0000FF" stroke-width="5" stroke-linecap="round" stroke-miterlimit="10" x1="526.9" y1="83.4" x2="526.9" y2="83.4"/>
	<path fill="none" stroke="#0000FF" stroke-width="5" stroke-miterlimit="10" d="M287.5,506.3c0-0.9-0.7-1.6-1.6-1.6
		s-1.6,0.7-1.6,1.6s0.7,1.6,1.6,1.6S287.5,507.2,287.5,506.3"/>
	
		<line fill="none" stroke="#0000FF" stroke-width="5" stroke-linecap="round" stroke-miterlimit="10" x1="285.9" y1="506.3" x2="285.9" y2="506.3"/>
	<path fill="none" stroke="#0000FF" stroke-width="5" stroke-miterlimit="10" d="M356.5,547.2c0-0.9-0.7-1.6-1.6-1.6
		s-1.6,0.7-1.6,1.6c0,0.9,0.7,1.6,1.6,1.6S356.5,548.1,356.5,547.2"/>
	
		<line fill="none" stroke="#0000FF" stroke-width="5" stroke-linecap="round" stroke-miterlimit="10" x1="354.9" y1="547.2" x2="354.9" y2="547.2"/>
	<path fill="none" stroke="#0000FF" stroke-width="5" stroke-miterlimit="10" d="M670.9,536.5c0-0.9-0.7-1.6-1.6-1.6
		c-0.9,0-1.6,0.7-1.6,1.6c0,0.9,0.7,1.6,1.6,1.6C670.2,538.1,670.9,537.4,670.9,536.5"/>
	
		<line fill="none" stroke="#0000FF" stroke-width="5" stroke-linecap="round" stroke-miterlimit="10" x1="669.3" y1="536.5" x2="669.3" y2="536.5"/>
	<path fill="none" stroke="#0000FF" stroke-width="5" stroke-miterlimit="10" d="M684.7,544.7c0-0.9-0.7-1.6-1.6-1.6
		c-0.9,0-1.6,0.7-1.6,1.6c0,0.9,0.7,1.6,1.6,1.6C684,546.3,684.7,545.6,684.7,544.7"/>
	
		<line fill="none" stroke="#0000FF" stroke-width="5" stroke-linecap="round" stroke-miterlimit="10" x1="683.1" y1="544.7" x2="683.1" y2="544.7"/>
	<path fill="none" stroke="#0000FF" stroke-width="5" stroke-miterlimit="10" d="M275.1,337.5c0-0.9-0.7-1.6-1.6-1.6
		s-1.6,0.7-1.6,1.6s0.7,1.6,1.6,1.6S275.1,338.4,275.1,337.5"/>
	
		<line fill="none" stroke="#0000FF" stroke-width="5" stroke-linecap="round" stroke-miterlimit="10" x1="273.5" y1="337.5" x2="273.5" y2="337.5"/>
	<path fill="none" stroke="#0000FF" stroke-width="5" stroke-miterlimit="10" d="M282.5,341.9c0-0.9-0.7-1.6-1.6-1.6
		s-1.6,0.7-1.6,1.6s0.7,1.6,1.6,1.6S282.5,342.8,282.5,341.9"/>
	
		<line fill="none" stroke="#0000FF" stroke-width="5" stroke-linecap="round" stroke-miterlimit="10" x1="280.9" y1="341.9" x2="280.9" y2="341.9"/>
	<path fill="none" stroke="#0000FF" stroke-width="5" stroke-miterlimit="10" d="M552.3,116.6c0-0.9-0.7-1.6-1.6-1.6
		s-1.6,0.7-1.6,1.6s0.7,1.6,1.6,1.6S552.3,117.5,552.3,116.6"/>
	
		<line fill="none" stroke="#0000FF" stroke-width="5" stroke-linecap="round" stroke-miterlimit="10" x1="550.7" y1="116.6" x2="550.7" y2="116.6"/>
	<path fill="none" stroke="#0000FF" stroke-width="5" stroke-miterlimit="10" d="M559.8,121.1c0-0.9-0.7-1.6-1.6-1.6
		s-1.6,0.7-1.6,1.6c0,0.9,0.7,1.6,1.6,1.6S559.8,122,559.8,121.1"/>
	
		<line fill="none" stroke="#0000FF" stroke-width="5" stroke-linecap="round" stroke-miterlimit="10" x1="558.2" y1="121.1" x2="558.2" y2="121.1"/>
	<path fill="none" stroke="#0000FF" stroke-width="5" stroke-miterlimit="10" d="M552.3,501.9c0-0.9-0.7-1.6-1.6-1.6
		s-1.6,0.7-1.6,1.6c0,0.9,0.7,1.6,1.6,1.6S552.3,502.8,552.3,501.9"/>
	
		<line fill="none" stroke="#0000FF" stroke-width="5" stroke-linecap="round" stroke-miterlimit="10" x1="550.7" y1="501.9" x2="550.7" y2="501.9"/>
	<path fill="none" stroke="#0000FF" stroke-width="5" stroke-miterlimit="10" d="M559.8,506.4c0-0.9-0.7-1.6-1.6-1.6
		s-1.6,0.7-1.6,1.6c0,0.9,0.7,1.6,1.6,1.6S559.8,507.3,559.8,506.4"/>
	
		<line fill="none" stroke="#0000FF" stroke-width="5" stroke-linecap="round" stroke-miterlimit="10" x1="558.2" y1="506.4" x2="558.2" y2="506.4"/>
	<path fill="none" stroke="#0000FF" stroke-width="5" stroke-miterlimit="10" d="M215.8,78.4c0-0.9-0.7-1.6-1.6-1.6
		s-1.6,0.7-1.6,1.6c0,0.9,0.7,1.6,1.6,1.6S215.8,79.3,215.8,78.4"/>
	
		<line fill="none" stroke="#0000FF" stroke-width="5" stroke-linecap="round" stroke-miterlimit="10" x1="214.2" y1="78.4" x2="214.2" y2="78.4"/>
	<path fill="none" stroke="#0000FF" stroke-width="5" stroke-miterlimit="10" d="M275.2,113.7c0-0.9-0.7-1.6-1.6-1.6
		s-1.6,0.7-1.6,1.6c0,0.9,0.7,1.6,1.6,1.6S275.2,114.6,275.2,113.7"/>
	
		<line fill="none" stroke="#0000FF" stroke-width="5" stroke-linecap="round" stroke-miterlimit="10" x1="273.6" y1="113.7" x2="273.6" y2="113.7"/>
	<path fill="none" stroke="#0000FF" stroke-width="5" stroke-miterlimit="10" d="M360,364.2c0-0.9-0.7-1.6-1.6-1.6s-1.6,0.7-1.6,1.6
		s0.7,1.6,1.6,1.6S360,365.1,360,364.2"/>
	
		<line fill="none" stroke="#0000FF" stroke-width="5" stroke-linecap="round" stroke-miterlimit="10" x1="358.4" y1="364.2" x2="358.4" y2="364.2"/>
	<path fill="none" stroke="#0000FF" stroke-width="5" stroke-miterlimit="10" d="M417.2,398.1c0-0.9-0.7-1.6-1.6-1.6
		s-1.6,0.7-1.6,1.6s0.7,1.6,1.6,1.6S417.2,399,417.2,398.1"/>
	
		<line fill="none" stroke="#0000FF" stroke-width="5" stroke-linecap="round" stroke-miterlimit="10" x1="415.6" y1="398.1" x2="415.6" y2="398.1"/>
	<path fill="none" stroke="#0000FF" stroke-width="5" stroke-miterlimit="10" d="M646.8,341.8c0-0.9-0.7-1.6-1.6-1.6
		s-1.6,0.7-1.6,1.6s0.7,1.6,1.6,1.6S646.8,342.7,646.8,341.8"/>
	
		<line fill="none" stroke="#0000FF" stroke-width="5" stroke-linecap="round" stroke-miterlimit="10" x1="645.2" y1="341.8" x2="645.2" y2="341.8"/>
	<path fill="none" stroke="#0000FF" stroke-width="5" stroke-miterlimit="10" d="M734.2,393.6c0-0.9-0.7-1.6-1.6-1.6
		c-0.9,0-1.6,0.7-1.6,1.6s0.7,1.6,1.6,1.6C733.5,395.2,734.2,394.5,734.2,393.6"/>
	
		<line fill="none" stroke="#0000FF" stroke-width="5" stroke-linecap="round" stroke-miterlimit="10" x1="732.6" y1="393.6" x2="732.6" y2="393.6"/>
	<path fill="none" stroke="#0000FF" stroke-width="5" stroke-miterlimit="10" d="M161.8,239.2c0-0.9-0.7-1.6-1.6-1.6
		s-1.6,0.7-1.6,1.6s0.7,1.6,1.6,1.6S161.8,240.1,161.8,239.2"/>
	
		<line fill="none" stroke="#0000FF" stroke-width="5" stroke-linecap="round" stroke-miterlimit="10" x1="160.2" y1="239.2" x2="160.2" y2="239.2"/>
	<path fill="none" stroke="#0000FF" stroke-width="5" stroke-miterlimit="10" d="M202.8,263.5c0-0.9-0.7-1.6-1.6-1.6
		s-1.6,0.7-1.6,1.6s0.7,1.6,1.6,1.6S202.8,264.4,202.8,263.5"/>
	
		<line fill="none" stroke="#0000FF" stroke-width="5" stroke-linecap="round" stroke-miterlimit="10" x1="201.2" y1="263.5" x2="201.2" y2="263.5"/>
	<path fill="none" stroke="#0000FF" stroke-width="5" stroke-miterlimit="10" d="M161.8,431.7c0-0.9-0.7-1.6-1.6-1.6
		s-1.6,0.7-1.6,1.6s0.7,1.6,1.6,1.6S161.8,432.6,161.8,431.7"/>
	
		<line fill="none" stroke="#0000FF" stroke-width="5" stroke-linecap="round" stroke-miterlimit="10" x1="160.2" y1="431.7" x2="160.2" y2="431.7"/>
	<path fill="none" stroke="#0000FF" stroke-width="5" stroke-miterlimit="10" d="M275.2,499c0-0.9-0.7-1.6-1.6-1.6s-1.6,0.7-1.6,1.6
		c0,0.9,0.7,1.6,1.6,1.6S275.2,499.9,275.2,499"/>
	
		<line fill="none" stroke="#0000FF" stroke-width="5" stroke-linecap="round" stroke-miterlimit="10" x1="273.6" y1="499" x2="273.6" y2="499"/>
	<path fill="none" stroke="#0000FF" stroke-width="5" stroke-miterlimit="10" d="M210.4,263.4c0-0.9-0.7-1.6-1.6-1.6
		s-1.6,0.7-1.6,1.6s0.7,1.6,1.6,1.6S210.4,264.3,210.4,263.4"/>
	
		<line fill="none" stroke="#0000FF" stroke-width="5" stroke-linecap="round" stroke-miterlimit="10" x1="208.8" y1="263.4" x2="208.8" y2="263.4"/>
	<path fill="none" stroke="#0000FF" stroke-width="5" stroke-miterlimit="10" d="M224.2,271.6c0-0.9-0.7-1.6-1.6-1.6
		s-1.6,0.7-1.6,1.6s0.7,1.6,1.6,1.6S224.2,272.5,224.2,271.6"/>
	
		<line fill="none" stroke="#0000FF" stroke-width="5" stroke-linecap="round" stroke-miterlimit="10" x1="222.6" y1="271.6" x2="222.6" y2="271.6"/>
	<path fill="none" stroke="#0000FF" stroke-width="5" stroke-miterlimit="10" d="M251.3,275.4c0-0.9-0.7-1.6-1.6-1.6
		s-1.6,0.7-1.6,1.6c0,0.9,0.7,1.6,1.6,1.6S251.3,276.3,251.3,275.4"/>
	
		<line fill="none" stroke="#0000FF" stroke-width="5" stroke-linecap="round" stroke-miterlimit="10" x1="249.7" y1="275.4" x2="249.7" y2="275.4"/>
	<path fill="none" stroke="#0000FF" stroke-width="5" stroke-miterlimit="10" d="M268.9,285.8c0-0.9-0.7-1.6-1.6-1.6
		s-1.6,0.7-1.6,1.6s0.7,1.6,1.6,1.6S268.9,286.7,268.9,285.8"/>
	
		<line fill="none" stroke="#0000FF" stroke-width="5" stroke-linecap="round" stroke-miterlimit="10" x1="267.3" y1="285.8" x2="267.3" y2="285.8"/>
	<path fill="none" stroke="#0000FF" stroke-width="5" stroke-miterlimit="10" d="M268.8,116.6c0-0.9-0.7-1.6-1.6-1.6
		s-1.6,0.7-1.6,1.6s0.7,1.6,1.6,1.6S268.8,117.5,268.8,116.6"/>
	
		<line fill="none" stroke="#0000FF" stroke-width="5" stroke-linecap="round" stroke-miterlimit="10" x1="267.2" y1="116.6" x2="267.2" y2="116.6"/>
	<path fill="none" stroke="#0000FF" stroke-width="5" stroke-miterlimit="10" d="M275.2,120.5c0-0.9-0.7-1.6-1.6-1.6
		s-1.6,0.7-1.6,1.6c0,0.9,0.7,1.6,1.6,1.6S275.2,121.4,275.2,120.5"/>
	
		<line fill="none" stroke="#0000FF" stroke-width="5" stroke-linecap="round" stroke-miterlimit="10" x1="273.6" y1="120.5" x2="273.6" y2="120.5"/>
	<path fill="none" stroke="#0000FF" stroke-width="5" stroke-miterlimit="10" d="M268.8,501.9c0-0.9-0.7-1.6-1.6-1.6
		s-1.6,0.7-1.6,1.6c0,0.9,0.7,1.6,1.6,1.6S268.8,502.8,268.8,501.9"/>
	
		<line fill="none" stroke="#0000FF" stroke-width="5" stroke-linecap="round" stroke-miterlimit="10" x1="267.2" y1="501.9" x2="267.2" y2="501.9"/>
	<path fill="none" stroke="#0000FF" stroke-width="5" stroke-miterlimit="10" d="M275.2,505.8c0-0.9-0.7-1.6-1.6-1.6
		s-1.6,0.7-1.6,1.6s0.7,1.6,1.6,1.6S275.2,506.7,275.2,505.8"/>
	
		<line fill="none" stroke="#0000FF" stroke-width="5" stroke-linecap="round" stroke-miterlimit="10" x1="273.6" y1="505.8" x2="273.6" y2="505.8"/>
	<path fill="none" stroke="#0000FF" stroke-width="5" stroke-miterlimit="10" d="M276,506.3c0-0.9-0.7-1.6-1.6-1.6s-1.6,0.7-1.6,1.6
		s0.7,1.6,1.6,1.6S276,507.2,276,506.3"/>
	
		<line fill="none" stroke="#0000FF" stroke-width="5" stroke-linecap="round" stroke-miterlimit="10" x1="274.4" y1="506.3" x2="274.4" y2="506.3"/>
	<path fill="none" stroke="#0000FF" stroke-width="5" stroke-miterlimit="10" d="M282.5,510.1c0-0.9-0.7-1.6-1.6-1.6
		s-1.6,0.7-1.6,1.6s0.7,1.6,1.6,1.6S282.5,511,282.5,510.1"/>
	
		<line fill="none" stroke="#0000FF" stroke-width="5" stroke-linecap="round" stroke-miterlimit="10" x1="280.9" y1="510.1" x2="280.9" y2="510.1"/>
	<path fill="none" stroke="#0000FF" stroke-width="5" stroke-miterlimit="10" d="M276,121c0-0.9-0.7-1.6-1.6-1.6s-1.6,0.7-1.6,1.6
		c0,0.9,0.7,1.6,1.6,1.6S276,121.9,276,121"/>
	
		<line fill="none" stroke="#0000FF" stroke-width="5" stroke-linecap="round" stroke-miterlimit="10" x1="274.4" y1="121" x2="274.4" y2="121"/>
	<path fill="none" stroke="#0000FF" stroke-width="5" stroke-miterlimit="10" d="M282.5,124.8c0-0.9-0.7-1.6-1.6-1.6
		s-1.6,0.7-1.6,1.6s0.7,1.6,1.6,1.6S282.5,125.7,282.5,124.8"/>
	
		<line fill="none" stroke="#0000FF" stroke-width="5" stroke-linecap="round" stroke-miterlimit="10" x1="280.9" y1="124.8" x2="280.9" y2="124.8"/>
	<path fill="none" stroke="#0000FF" stroke-width="5" stroke-miterlimit="10" d="M282.3,335c0-0.9-0.7-1.6-1.6-1.6s-1.6,0.7-1.6,1.6
		s0.7,1.6,1.6,1.6S282.3,335.9,282.3,335"/>
	
		<line fill="none" stroke="#0000FF" stroke-width="5" stroke-linecap="round" stroke-miterlimit="10" x1="280.7" y1="335" x2="280.7" y2="335"/>
	<path fill="none" stroke="#0000FF" stroke-width="5" stroke-miterlimit="10" d="M311.4,352.2c0-0.9-0.7-1.6-1.6-1.6
		s-1.6,0.7-1.6,1.6s0.7,1.6,1.6,1.6S311.4,353.1,311.4,352.2"/>
	
		<line fill="none" stroke="#0000FF" stroke-width="5" stroke-linecap="round" stroke-miterlimit="10" x1="309.8" y1="352.2" x2="309.8" y2="352.2"/>
	<path fill="none" stroke="#0000FF" stroke-width="5" stroke-miterlimit="10" d="M287.5,121c0-0.9-0.7-1.6-1.6-1.6s-1.6,0.7-1.6,1.6
		c0,0.9,0.7,1.6,1.6,1.6S287.5,121.9,287.5,121"/>
	
		<line fill="none" stroke="#0000FF" stroke-width="5" stroke-linecap="round" stroke-miterlimit="10" x1="285.9" y1="121" x2="285.9" y2="121"/>
	<path fill="none" stroke="#0000FF" stroke-width="5" stroke-miterlimit="10" d="M400.9,188.2c0-0.9-0.7-1.6-1.6-1.6
		s-1.6,0.7-1.6,1.6s0.7,1.6,1.6,1.6S400.9,189.1,400.9,188.2"/>
	
		<line fill="none" stroke="#0000FF" stroke-width="5" stroke-linecap="round" stroke-miterlimit="10" x1="399.3" y1="188.2" x2="399.3" y2="188.2"/>
	<path fill="none" stroke="#0000FF" stroke-width="5" stroke-miterlimit="10" d="M338.5,356c0-0.9-0.7-1.6-1.6-1.6s-1.6,0.7-1.6,1.6
		s0.7,1.6,1.6,1.6S338.5,356.9,338.5,356"/>
	
		<line fill="none" stroke="#0000FF" stroke-width="5" stroke-linecap="round" stroke-miterlimit="10" x1="336.9" y1="356" x2="336.9" y2="356"/>
	<path fill="none" stroke="#0000FF" stroke-width="5" stroke-miterlimit="10" d="M352.4,364.3c0-0.9-0.7-1.6-1.6-1.6
		s-1.6,0.7-1.6,1.6s0.7,1.6,1.6,1.6S352.4,365.2,352.4,364.3"/>
	
		<line fill="none" stroke="#0000FF" stroke-width="5" stroke-linecap="round" stroke-miterlimit="10" x1="350.8" y1="364.3" x2="350.8" y2="364.3"/>
	<path fill="none" stroke="#0000FF" stroke-width="5" stroke-miterlimit="10" d="M400.8,189.8c0-0.9-0.7-1.6-1.6-1.6
		s-1.6,0.7-1.6,1.6s0.7,1.6,1.6,1.6S400.8,190.7,400.8,189.8"/>
	
		<line fill="none" stroke="#0000FF" stroke-width="5" stroke-linecap="round" stroke-miterlimit="10" x1="399.2" y1="189.8" x2="399.2" y2="189.8"/>
	<path fill="none" stroke="#0000FF" stroke-width="5" stroke-miterlimit="10" d="M447,217.2c0-0.9-0.7-1.6-1.6-1.6s-1.6,0.7-1.6,1.6
		s0.7,1.6,1.6,1.6S447,218.1,447,217.2"/>
	
		<line fill="none" stroke="#0000FF" stroke-width="5" stroke-linecap="round" stroke-miterlimit="10" x1="445.4" y1="217.2" x2="445.4" y2="217.2"/>
	<path fill="none" stroke="#0000FF" stroke-width="5" stroke-miterlimit="10" d="M457.5,422c0-0.9-0.7-1.6-1.6-1.6s-1.6,0.7-1.6,1.6
		s0.7,1.6,1.6,1.6S457.5,422.9,457.5,422"/>
	
		<line fill="none" stroke="#0000FF" stroke-width="5" stroke-linecap="round" stroke-miterlimit="10" x1="455.9" y1="422" x2="455.9" y2="422"/>
	<path fill="none" stroke="#0000FF" stroke-width="5" stroke-miterlimit="10" d="M514.8,456c0-0.9-0.7-1.6-1.6-1.6s-1.6,0.7-1.6,1.6
		c0,0.9,0.7,1.6,1.6,1.6S514.8,456.9,514.8,456"/>
	
		<line fill="none" stroke="#0000FF" stroke-width="5" stroke-linecap="round" stroke-miterlimit="10" x1="513.2" y1="456" x2="513.2" y2="456"/>
	<path fill="none" stroke="#0000FF" stroke-width="5" stroke-miterlimit="10" d="M457.5,229.9c0-0.9-0.7-1.6-1.6-1.6
		s-1.6,0.7-1.6,1.6s0.7,1.6,1.6,1.6S457.5,230.8,457.5,229.9"/>
	
		<line fill="none" stroke="#0000FF" stroke-width="5" stroke-linecap="round" stroke-miterlimit="10" x1="455.9" y1="229.9" x2="455.9" y2="229.9"/>
	<path fill="none" stroke="#0000FF" stroke-width="5" stroke-miterlimit="10" d="M464.6,234.1c0-0.9-0.7-1.6-1.6-1.6
		s-1.6,0.7-1.6,1.6s0.7,1.6,1.6,1.6S464.6,235,464.6,234.1"/>
	
		<line fill="none" stroke="#0000FF" stroke-width="5" stroke-linecap="round" stroke-miterlimit="10" x1="463" y1="234.1" x2="463" y2="234.1"/>
	<path fill="none" stroke="#0000FF" stroke-width="5" stroke-miterlimit="10" d="M465.1,234c0-0.9-0.7-1.6-1.6-1.6s-1.6,0.7-1.6,1.6
		s0.7,1.6,1.6,1.6S465.1,234.9,465.1,234"/>
	
		<line fill="none" stroke="#0000FF" stroke-width="5" stroke-linecap="round" stroke-miterlimit="10" x1="463.5" y1="234" x2="463.5" y2="234"/>
	<path fill="none" stroke="#0000FF" stroke-width="5" stroke-miterlimit="10" d="M552.5,285.8c0-0.9-0.7-1.6-1.6-1.6
		c-0.9,0-1.6,0.7-1.6,1.6s0.7,1.6,1.6,1.6C551.8,287.4,552.5,286.7,552.5,285.8"/>
	
		<line fill="none" stroke="#0000FF" stroke-width="5" stroke-linecap="round" stroke-miterlimit="10" x1="550.9" y1="285.8" x2="550.9" y2="285.8"/>
	<path fill="none" stroke="#0000FF" stroke-width="5" stroke-miterlimit="10" d="M514.6,460.5c0-0.9-0.7-1.6-1.6-1.6
		c-0.9,0-1.6,0.7-1.6,1.6c0,0.9,0.7,1.6,1.6,1.6C513.9,462.1,514.6,461.4,514.6,460.5"/>
	
		<line fill="none" stroke="#0000FF" stroke-width="5" stroke-linecap="round" stroke-miterlimit="10" x1="513" y1="460.5" x2="513" y2="460.5"/>
	<path fill="none" stroke="#0000FF" stroke-width="5" stroke-miterlimit="10" d="M528.5,468.7c0-0.9-0.7-1.6-1.6-1.6
		c-0.9,0-1.6,0.7-1.6,1.6s0.7,1.6,1.6,1.6C527.8,470.3,528.5,469.6,528.5,468.7"/>
	
		<line fill="none" stroke="#0000FF" stroke-width="5" stroke-linecap="round" stroke-miterlimit="10" x1="526.9" y1="468.7" x2="526.9" y2="468.7"/>
	<path fill="none" stroke="#0000FF" stroke-width="5" stroke-miterlimit="10" d="M534.9,484.8c0-0.9-0.7-1.6-1.6-1.6
		c-0.9,0-1.6,0.7-1.6,1.6s0.7,1.6,1.6,1.6C534.2,486.4,534.9,485.7,534.9,484.8"/>
	
		<line fill="none" stroke="#0000FF" stroke-width="5" stroke-linecap="round" stroke-miterlimit="10" x1="533.3" y1="484.8" x2="533.3" y2="484.8"/>
	<path fill="none" stroke="#0000FF" stroke-width="5" stroke-miterlimit="10" d="M564,502c0-0.9-0.7-1.6-1.6-1.6
		c-0.9,0-1.6,0.7-1.6,1.6c0,0.9,0.7,1.6,1.6,1.6C563.3,503.6,564,502.9,564,502"/>
	
		<line fill="none" stroke="#0000FF" stroke-width="5" stroke-linecap="round" stroke-miterlimit="10" x1="562.4" y1="502" x2="562.4" y2="502"/>
	<path fill="none" stroke="#0000FF" stroke-width="5" stroke-miterlimit="10" d="M534.9,99.5c0-0.9-0.7-1.6-1.6-1.6
		c-0.9,0-1.6,0.7-1.6,1.6s0.7,1.6,1.6,1.6C534.2,101.1,534.9,100.4,534.9,99.5"/>
	
		<line fill="none" stroke="#0000FF" stroke-width="5" stroke-linecap="round" stroke-miterlimit="10" x1="533.3" y1="99.5" x2="533.3" y2="99.5"/>
	<path fill="none" stroke="#0000FF" stroke-width="5" stroke-miterlimit="10" d="M564,116.7c0-0.9-0.7-1.6-1.6-1.6
		c-0.9,0-1.6,0.7-1.6,1.6c0,0.9,0.7,1.6,1.6,1.6C563.3,118.3,564,117.6,564,116.7"/>
	
		<line fill="none" stroke="#0000FF" stroke-width="5" stroke-linecap="round" stroke-miterlimit="10" x1="562.4" y1="116.7" x2="562.4" y2="116.7"/>
	<path fill="none" stroke="#0000FF" stroke-width="5" stroke-miterlimit="10" d="M558.6,285.7c0-0.9-0.7-1.6-1.6-1.6
		c-0.9,0-1.6,0.7-1.6,1.6s0.7,1.6,1.6,1.6C557.9,287.3,558.6,286.6,558.6,285.7"/>
	
		<line fill="none" stroke="#0000FF" stroke-width="5" stroke-linecap="round" stroke-miterlimit="10" x1="557" y1="285.7" x2="557" y2="285.7"/>
	<path fill="none" stroke="#0000FF" stroke-width="5" stroke-miterlimit="10" d="M572.6,294c0-0.9-0.7-1.6-1.6-1.6
		c-0.9,0-1.6,0.7-1.6,1.6s0.7,1.6,1.6,1.6C571.9,295.6,572.6,294.9,572.6,294"/>
	
		<line fill="none" stroke="#0000FF" stroke-width="5" stroke-linecap="round" stroke-miterlimit="10" x1="571" y1="294" x2="571" y2="294"/>
	<path fill="none" stroke="#0000FF" stroke-width="5" stroke-miterlimit="10" d="M559.6,310.6c0-0.9-0.7-1.6-1.6-1.6
		c-0.9,0-1.6,0.7-1.6,1.6s0.7,1.6,1.6,1.6C558.9,312.2,559.6,311.5,559.6,310.6"/>
	
		<line fill="none" stroke="#0000FF" stroke-width="5" stroke-linecap="round" stroke-miterlimit="10" x1="558" y1="310.6" x2="558" y2="310.6"/>
	<path fill="none" stroke="#0000FF" stroke-width="5" stroke-miterlimit="10" d="M572.6,318.4c0-0.9-0.7-1.6-1.6-1.6
		c-0.9,0-1.6,0.7-1.6,1.6s0.7,1.6,1.6,1.6C571.9,320,572.6,319.3,572.6,318.4"/>
	
		<line fill="none" stroke="#0000FF" stroke-width="5" stroke-linecap="round" stroke-miterlimit="10" x1="571" y1="318.4" x2="571" y2="318.4"/>
	<path fill="none" stroke="#0000FF" stroke-width="5" stroke-miterlimit="10" d="M592,329.9c0-0.9-0.7-1.6-1.6-1.6
		c-0.9,0-1.6,0.7-1.6,1.6s0.7,1.6,1.6,1.6C591.3,331.5,592,330.8,592,329.9"/>
	
		<line fill="none" stroke="#0000FF" stroke-width="5" stroke-linecap="round" stroke-miterlimit="10" x1="590.4" y1="329.9" x2="590.4" y2="329.9"/>
	<path fill="none" stroke="#0000FF" stroke-width="5" stroke-miterlimit="10" d="M605,337.6c0-0.9-0.7-1.6-1.6-1.6
		c-0.9,0-1.6,0.7-1.6,1.6s0.7,1.6,1.6,1.6C604.3,339.2,605,338.5,605,337.6"/>
	
		<line fill="none" stroke="#0000FF" stroke-width="5" stroke-linecap="round" stroke-miterlimit="10" x1="603.4" y1="337.6" x2="603.4" y2="337.6"/>
	<path fill="none" stroke="#0000FF" stroke-width="5" stroke-miterlimit="10" d="M592,305.5c0-0.9-0.7-1.6-1.6-1.6
		c-0.9,0-1.6,0.7-1.6,1.6s0.7,1.6,1.6,1.6C591.3,307.1,592,306.4,592,305.5"/>
	
		<line fill="none" stroke="#0000FF" stroke-width="5" stroke-linecap="round" stroke-miterlimit="10" x1="590.4" y1="305.5" x2="590.4" y2="305.5"/>
	<path fill="none" stroke="#0000FF" stroke-width="5" stroke-miterlimit="10" d="M600.8,310.7c0-0.9-0.7-1.6-1.6-1.6
		s-1.6,0.7-1.6,1.6s0.7,1.6,1.6,1.6S600.8,311.6,600.8,310.7"/>
	
		<line fill="none" stroke="#0000FF" stroke-width="5" stroke-linecap="round" stroke-miterlimit="10" x1="599.2" y1="310.7" x2="599.2" y2="310.7"/>
	<path fill="none" stroke="#0000FF" stroke-width="5" stroke-miterlimit="10" d="M604.9,313.2c0-0.9-0.7-1.6-1.6-1.6
		c-0.9,0-1.6,0.7-1.6,1.6s0.7,1.6,1.6,1.6C604.2,314.8,604.9,314.1,604.9,313.2"/>
	
		<line fill="none" stroke="#0000FF" stroke-width="5" stroke-linecap="round" stroke-miterlimit="10" x1="603.3" y1="313.2" x2="603.3" y2="313.2"/>
	<path fill="none" stroke="#0000FF" stroke-width="5" stroke-miterlimit="10" d="M613.6,318.4c0-0.9-0.7-1.6-1.6-1.6
		c-0.9,0-1.6,0.7-1.6,1.6s0.7,1.6,1.6,1.6C612.9,320,613.6,319.3,613.6,318.4"/>
	
		<line fill="none" stroke="#0000FF" stroke-width="5" stroke-linecap="round" stroke-miterlimit="10" x1="612" y1="318.4" x2="612" y2="318.4"/>
	<path fill="none" stroke="#0000FF" stroke-width="5" stroke-miterlimit="10" d="M604.9,288.8c0-0.9-0.7-1.6-1.6-1.6
		c-0.9,0-1.6,0.7-1.6,1.6s0.7,1.6,1.6,1.6C604.2,290.4,604.9,289.7,604.9,288.8"/>
	
		<line fill="none" stroke="#0000FF" stroke-width="5" stroke-linecap="round" stroke-miterlimit="10" x1="603.3" y1="288.8" x2="603.3" y2="288.8"/>
	<path fill="none" stroke="#0000FF" stroke-width="5" stroke-miterlimit="10" d="M613.6,294c0-0.9-0.7-1.6-1.6-1.6
		c-0.9,0-1.6,0.7-1.6,1.6s0.7,1.6,1.6,1.6C612.9,295.6,613.6,294.9,613.6,294"/>
	
		<line fill="none" stroke="#0000FF" stroke-width="5" stroke-linecap="round" stroke-miterlimit="10" x1="612" y1="294" x2="612" y2="294"/>
	<path fill="none" stroke="#0000FF" stroke-width="5" stroke-miterlimit="10" d="M633,329.9c0-0.9-0.7-1.6-1.6-1.6
		c-0.9,0-1.6,0.7-1.6,1.6s0.7,1.6,1.6,1.6C632.3,331.5,633,330.8,633,329.9"/>
	
		<line fill="none" stroke="#0000FF" stroke-width="5" stroke-linecap="round" stroke-miterlimit="10" x1="631.4" y1="329.9" x2="631.4" y2="329.9"/>
	<path fill="none" stroke="#0000FF" stroke-width="5" stroke-miterlimit="10" d="M647,338.2c0-0.9-0.7-1.6-1.6-1.6
		c-0.9,0-1.6,0.7-1.6,1.6s0.7,1.6,1.6,1.6C646.3,339.8,647,339.1,647,338.2"/>
	
		<line fill="none" stroke="#0000FF" stroke-width="5" stroke-linecap="round" stroke-miterlimit="10" x1="645.4" y1="338.2" x2="645.4" y2="338.2"/>
	<path fill="none" stroke="#0000FF" stroke-width="5" stroke-miterlimit="10" d="M633,305.5c0-0.9-0.7-1.6-1.6-1.6
		c-0.9,0-1.6,0.7-1.6,1.6s0.7,1.6,1.6,1.6C632.3,307.1,633,306.4,633,305.5"/>
	
		<line fill="none" stroke="#0000FF" stroke-width="5" stroke-linecap="round" stroke-miterlimit="10" x1="631.4" y1="305.5" x2="631.4" y2="305.5"/>
	<path fill="none" stroke="#0000FF" stroke-width="5" stroke-miterlimit="10" d="M641.8,310.7c0-0.9-0.7-1.6-1.6-1.6
		s-1.6,0.7-1.6,1.6s0.7,1.6,1.6,1.6S641.8,311.6,641.8,310.7"/>
	
		<line fill="none" stroke="#0000FF" stroke-width="5" stroke-linecap="round" stroke-miterlimit="10" x1="640.2" y1="310.7" x2="640.2" y2="310.7"/>
	<path fill="none" stroke="#0000FF" stroke-width="5" stroke-miterlimit="10" d="M646.8,124.7c0-0.9-0.7-1.6-1.6-1.6
		s-1.6,0.7-1.6,1.6s0.7,1.6,1.6,1.6S646.8,125.6,646.8,124.7"/>
	
		<line fill="none" stroke="#0000FF" stroke-width="5" stroke-linecap="round" stroke-miterlimit="10" x1="645.2" y1="124.7" x2="645.2" y2="124.7"/>
	<path fill="none" stroke="#0000FF" stroke-width="5" stroke-miterlimit="10" d="M664.5,135.1c0-0.9-0.7-1.6-1.6-1.6
		c-0.9,0-1.6,0.7-1.6,1.6s0.7,1.6,1.6,1.6C663.8,136.7,664.5,136,664.5,135.1"/>
	
		<line fill="none" stroke="#0000FF" stroke-width="5" stroke-linecap="round" stroke-miterlimit="10" x1="662.9" y1="135.1" x2="662.9" y2="135.1"/>
	<path fill="none" stroke="#0000FF" stroke-width="5" stroke-miterlimit="10" d="M646.8,510c0-0.9-0.7-1.6-1.6-1.6s-1.6,0.7-1.6,1.6
		c0,0.9,0.7,1.6,1.6,1.6S646.8,510.9,646.8,510"/>
	
		<line fill="none" stroke="#0000FF" stroke-width="5" stroke-linecap="round" stroke-miterlimit="10" x1="645.2" y1="510" x2="645.2" y2="510"/>
	<path fill="none" stroke="#0000FF" stroke-width="5" stroke-miterlimit="10" d="M664.5,520.4c0-0.9-0.7-1.6-1.6-1.6
		c-0.9,0-1.6,0.7-1.6,1.6s0.7,1.6,1.6,1.6C663.8,522,664.5,521.3,664.5,520.4"/>
	
		<line fill="none" stroke="#0000FF" stroke-width="5" stroke-linecap="round" stroke-miterlimit="10" x1="662.9" y1="520.4" x2="662.9" y2="520.4"/>
	<path fill="none" stroke="#0000FF" stroke-width="5" stroke-miterlimit="10" d="M670.9,151.2c0-0.9-0.7-1.6-1.6-1.6
		c-0.9,0-1.6,0.7-1.6,1.6s0.7,1.6,1.6,1.6C670.2,152.8,670.9,152.1,670.9,151.2"/>
	
		<line fill="none" stroke="#0000FF" stroke-width="5" stroke-linecap="round" stroke-miterlimit="10" x1="669.3" y1="151.2" x2="669.3" y2="151.2"/>
	<path fill="none" stroke="#0000FF" stroke-width="5" stroke-miterlimit="10" d="M684.7,159.4c0-0.9-0.7-1.6-1.6-1.6
		c-0.9,0-1.6,0.7-1.6,1.6s0.7,1.6,1.6,1.6C684,161,684.7,160.3,684.7,159.4"/>
	
		<line fill="none" stroke="#0000FF" stroke-width="5" stroke-linecap="round" stroke-miterlimit="10" x1="683.1" y1="159.4" x2="683.1" y2="159.4"/>
	<path fill="none" stroke="#0000FF" stroke-width="5" stroke-miterlimit="10" d="M684.6,163.9c0-0.9-0.7-1.6-1.6-1.6
		c-0.9,0-1.6,0.7-1.6,1.6s0.7,1.6,1.6,1.6C683.9,165.5,684.6,164.8,684.6,163.9"/>
	
		<line fill="none" stroke="#0000FF" stroke-width="5" stroke-linecap="round" stroke-miterlimit="10" x1="683" y1="163.9" x2="683" y2="163.9"/>
	<path fill="none" stroke="#0000FF" stroke-width="5" stroke-miterlimit="10" d="M725.5,188.2c0-0.9-0.7-1.6-1.6-1.6
		c-0.9,0-1.6,0.7-1.6,1.6s0.7,1.6,1.6,1.6C724.8,189.8,725.5,189.1,725.5,188.2"/>
	
		<line fill="none" stroke="#0000FF" stroke-width="5" stroke-linecap="round" stroke-miterlimit="10" x1="723.9" y1="188.2" x2="723.9" y2="188.2"/>
	<path fill="none" stroke="#0000FF" stroke-width="5" stroke-miterlimit="10" d="M725.4,189.8c0-0.9-0.7-1.6-1.6-1.6
		c-0.9,0-1.6,0.7-1.6,1.6s0.7,1.6,1.6,1.6C724.7,191.4,725.4,190.7,725.4,189.8"/>
	
		<line fill="none" stroke="#0000FF" stroke-width="5" stroke-linecap="round" stroke-miterlimit="10" x1="723.8" y1="189.8" x2="723.8" y2="189.8"/>
	<path fill="none" stroke="#0000FF" stroke-width="5" stroke-miterlimit="10" d="M734.2,195.1c0-0.9-0.7-1.6-1.6-1.6
		c-0.9,0-1.6,0.7-1.6,1.6s0.7,1.6,1.6,1.6C733.5,196.7,734.2,196,734.2,195.1"/>
	
		<line fill="none" stroke="#0000FF" stroke-width="5" stroke-linecap="round" stroke-miterlimit="10" x1="732.6" y1="195.1" x2="732.6" y2="195.1"/>
	<path fill="none" stroke="#0000FF" stroke-width="5" stroke-miterlimit="10" d="M734.1,195.4c0-0.9-0.7-1.6-1.6-1.6
		c-0.9,0-1.6,0.7-1.6,1.6s0.7,1.6,1.6,1.6C733.4,197,734.1,196.3,734.1,195.4"/>
	
		<line fill="none" stroke="#0000FF" stroke-width="5" stroke-linecap="round" stroke-miterlimit="10" x1="732.5" y1="195.4" x2="732.5" y2="195.4"/>
	<path fill="none" stroke="#0000FF" stroke-width="5" stroke-miterlimit="10" d="M741.2,199.6c0-0.9-0.7-1.6-1.6-1.6
		c-0.9,0-1.6,0.7-1.6,1.6s0.7,1.6,1.6,1.6C740.5,201.2,741.2,200.5,741.2,199.6"/>
	
		<line fill="none" stroke="#0000FF" stroke-width="5" stroke-linecap="round" stroke-miterlimit="10" x1="739.6" y1="199.6" x2="739.6" y2="199.6"/>
	<path fill="none" stroke="#0000FF" stroke-width="5" stroke-miterlimit="10" d="M734.1,393.9c0-0.9-0.7-1.6-1.6-1.6
		c-0.9,0-1.6,0.7-1.6,1.6s0.7,1.6,1.6,1.6C733.4,395.5,734.1,394.8,734.1,393.9"/>
	
		<line fill="none" stroke="#0000FF" stroke-width="5" stroke-linecap="round" stroke-miterlimit="10" x1="732.5" y1="393.9" x2="732.5" y2="393.9"/>
	<path fill="none" stroke="#0000FF" stroke-width="5" stroke-miterlimit="10" d="M741.1,398.1c0-0.9-0.7-1.6-1.6-1.6
		c-0.9,0-1.6,0.7-1.6,1.6s0.7,1.6,1.6,1.6C740.4,399.7,741.1,399,741.1,398.1"/>
	
		<line fill="none" stroke="#0000FF" stroke-width="5" stroke-linecap="round" stroke-miterlimit="10" x1="739.5" y1="398.1" x2="739.5" y2="398.1"/>
	<path fill="none" stroke="#0000FF" stroke-width="5" stroke-miterlimit="10" d="M762.5,404.4c0-0.9-0.7-1.6-1.6-1.6
		c-0.9,0-1.6,0.7-1.6,1.6s0.7,1.6,1.6,1.6C761.8,406,762.5,405.3,762.5,404.4"/>
	
		<line fill="none" stroke="#0000FF" stroke-width="5" stroke-linecap="round" stroke-miterlimit="10" x1="760.9" y1="404.4" x2="760.9" y2="404.4"/>
	<path fill="none" stroke="#0000FF" stroke-width="5" stroke-miterlimit="10" d="M808.7,431.8c0-0.9-0.7-1.6-1.6-1.6
		c-0.9,0-1.6,0.7-1.6,1.6s0.7,1.6,1.6,1.6C808,433.4,808.7,432.7,808.7,431.8"/>
	
		<line fill="none" stroke="#0000FF" stroke-width="5" stroke-linecap="round" stroke-miterlimit="10" x1="807.1" y1="431.8" x2="807.1" y2="431.8"/>
	<path fill="none" stroke="#0000FF" stroke-width="5" stroke-miterlimit="10" d="M792.2,229.9c0-0.9-0.7-1.6-1.6-1.6
		c-0.9,0-1.6,0.7-1.6,1.6s0.7,1.6,1.6,1.6C791.5,231.5,792.2,230.8,792.2,229.9"/>
	
		<line fill="none" stroke="#0000FF" stroke-width="5" stroke-linecap="round" stroke-miterlimit="10" x1="790.6" y1="229.9" x2="790.6" y2="229.9"/>
	<path fill="none" stroke="#0000FF" stroke-width="5" stroke-miterlimit="10" d="M799.3,234.1c0-0.9-0.7-1.6-1.6-1.6
		s-1.6,0.7-1.6,1.6s0.7,1.6,1.6,1.6S799.3,235,799.3,234.1"/>
	
		<line fill="none" stroke="#0000FF" stroke-width="5" stroke-linecap="round" stroke-miterlimit="10" x1="797.7" y1="234.1" x2="797.7" y2="234.1"/>
	<path fill="none" stroke="#0000FF" stroke-width="5" stroke-miterlimit="10" d="M799.8,234c0-0.9-0.7-1.6-1.6-1.6s-1.6,0.7-1.6,1.6
		s0.7,1.6,1.6,1.6S799.8,234.9,799.8,234"/>
	
		<line fill="none" stroke="#0000FF" stroke-width="5" stroke-linecap="round" stroke-miterlimit="10" x1="798.2" y1="234" x2="798.2" y2="234"/>
	<path fill="none" stroke="#0000FF" stroke-width="5" stroke-miterlimit="10" d="M808.7,239.3c0-0.9-0.7-1.6-1.6-1.6
		c-0.9,0-1.6,0.7-1.6,1.6s0.7,1.6,1.6,1.6C808,240.9,808.7,240.2,808.7,239.3"/>
	
		<line fill="none" stroke="#0000FF" stroke-width="5" stroke-linecap="round" stroke-miterlimit="10" x1="807.1" y1="239.3" x2="807.1" y2="239.3"/>
</g>
<g>
	<g>
		<line fill="none" stroke="#000000" stroke-miterlimit="10" stroke-dasharray="1,2" x1="157.5" y1="497.3" x2="807.1" y2="497.3"/>
		<line fill="none" stroke="#000000" stroke-miterlimit="10" stroke-dasharray="1,2" x1="157.5" y1="447.5" x2="807.1" y2="447.5"/>
		<line fill="none" stroke="#000000" stroke-miterlimit="10" stroke-dasharray="1,2" x1="157.5" y1="397.6" x2="807.1" y2="397.6"/>
		<line fill="none" stroke="#000000" stroke-miterlimit="10" stroke-dasharray="1,2" x1="157.5" y1="347.7" x2="807.1" y2="347.7"/>
		<line fill="none" stroke="#000000" stroke-miterlimit="10" stroke-dasharray="1,2" x1="157.5" y1="297.9" x2="807.1" y2="297.9"/>
		<line fill="none" stroke="#000000" stroke-miterlimit="10" stroke-dasharray="1,2" x1="157.5" y1="248" x2="807.1" y2="248"/>
		<line fill="none" stroke="#000000" stroke-miterlimit="10" stroke-dasharray="1,2" x1="157.5" y1="198.2" x2="807.1" y2="198.2"/>
		<line fill="none" stroke="#000000" stroke-miterlimit="10" stroke-dasharray="1,2" x1="157.5" y1="148.3" x2="807.1" y2="148.3"/>
		<line fill="none" stroke="#000000" stroke-miterlimit="10" stroke-dasharray="1,2" x1="157.5" y1="98.4" x2="807.1" y2="98.4"/>
		<line fill="none" stroke="#000000" stroke-miterlimit="10" stroke-dasharray="1,2" x1="241.6" y1="547.2" x2="241.6" y2="78.4"/>
		<line fill="none" stroke="#000000" stroke-miterlimit="10" stroke-dasharray="1,2" x1="325.6" y1="547.2" x2="325.6" y2="78.4"/>
		<line fill="none" stroke="#000000" stroke-miterlimit="10" stroke-dasharray="1,2" x1="409.7" y1="547.2" x2="409.7" y2="78.4"/>
		<line fill="none" stroke="#000000" stroke-miterlimit="10" stroke-dasharray="1,2" x1="493.8" y1="547.2" x2="493.8" y2="78.4"/>
		<line fill="none" stroke="#000000" stroke-miterlimit="10" stroke-dasharray="1,2" x1="577.8" y1="547.2" x2="577.8" y2="78.4"/>
		<line fill="none" stroke="#000000" stroke-miterlimit="10" stroke-dasharray="1,2" x1="661.9" y1="547.2" x2="661.9" y2="78.4"/>
		<line fill="none" stroke="#000000" stroke-miterlimit="10" stroke-dasharray="1,2" x1="746" y1="547.2" x2="746" y2="78.4"/>
	</g>
	<rect x="157.5" y="78.4" fill="none" stroke="#000000" stroke-miterlimit="10" width="649.6" height="468.8"/>
</g>
<text transform="matrix(1 0 0 1 390.2342 48.6116)" font-family="'HelveticaNeue-CondensedBold'" font-size="48">JS735 </text>
</svg>
