<?xml version="1.0" encoding="UTF-8" standalone="no"?>
<svg width="267.758mm" height="256.822mm"
 viewBox="0 0 759 728"
 xmlns="http://www.w3.org/2000/svg" xmlns:xlink="http://www.w3.org/1999/xlink"  version="1.2" baseProfile="tiny">
<title>Qt SVG Document</title>
<desc>Generated with Qt</desc>
<defs>
</defs>
<g fill="none" stroke="black" stroke-width="1" fill-rule="evenodd" stroke-linecap="square" stroke-linejoin="bevel" >

<g fill="#ffffff" fill-opacity="1" stroke="none" transform="matrix(1,0,0,1,0,0)"
font-family=".SF NS Text" font-size="13" font-weight="400" font-style="normal" 
>
<rect x="0" y="0" width="759" height="728"/>
</g>

<g fill="none" stroke="#000000" stroke-opacity="1" stroke-width="1" stroke-linecap="square" stroke-linejoin="bevel" transform="matrix(1,0,0,1,0,0)"
font-family=".SF NS Text" font-size="13" font-weight="400" font-style="normal" 
>
</g>

<g fill="none" stroke="#000000" stroke-opacity="1" stroke-width="1" stroke-linecap="square" stroke-linejoin="bevel" transform="matrix(1,0,0,1,0,0)"
font-family=".SF NS Text" font-size="13" font-weight="400" font-style="normal" 
>
</g>

<g fill="none" stroke="#000000" stroke-opacity="1" stroke-width="1" stroke-linecap="square" stroke-linejoin="bevel" transform="matrix(1,0,0,1,0,0)"
font-family=".SF NS Text" font-size="13" font-weight="400" font-style="normal" 
>
</g>

<g fill="none" stroke="#000000" stroke-opacity="1" stroke-width="1" stroke-linecap="square" stroke-linejoin="bevel" transform="matrix(3.95192,0,0,3.95192,-182,-153)"
font-family=".SF NS Text" font-size="13" font-weight="400" font-style="normal" 
>
</g>

<g fill="none" stroke="#000000" stroke-opacity="0.705882" stroke-width="1.5" stroke-linecap="round" stroke-linejoin="bevel" transform="matrix(3.95192,0,0,3.95192,-182,-153)"
font-family=".SF NS Text" font-size="13" font-weight="400" font-style="normal" 
>
<path vector-effect="none" fill-rule="evenodd" d="M168.873,125.575 C173.865,125.286 183.762,121.498 188.038,118.906 "/>
</g>

<g fill="none" stroke="#000000" stroke-opacity="1" stroke-width="1" stroke-linecap="square" stroke-linejoin="bevel" transform="matrix(3.95192,0,0,3.95192,-182,-153)"
font-family=".SF NS Text" font-size="13" font-weight="400" font-style="normal" 
>
</g>

<g fill="none" stroke="#000000" stroke-opacity="1" stroke-width="1" stroke-linecap="square" stroke-linejoin="bevel" transform="matrix(3.95192,0,0,3.95192,-182,-153)"
font-family=".SF NS Text" font-size="13" font-weight="400" font-style="normal" 
>
</g>

<g fill="none" stroke="#000000" stroke-opacity="0.705882" stroke-width="1.5" stroke-linecap="round" stroke-linejoin="bevel" transform="matrix(3.95192,0,0,3.95192,-182,-153)"
font-family=".SF NS Text" font-size="13" font-weight="400" font-style="normal" 
>
<path vector-effect="none" fill-rule="evenodd" d="M168.873,125.575 C172.822,125.346 175.514,132.229 176.281,128.349 "/>
</g>

<g fill="none" stroke="#000000" stroke-opacity="1" stroke-width="1" stroke-linecap="square" stroke-linejoin="bevel" transform="matrix(3.95192,0,0,3.95192,-182,-153)"
font-family=".SF NS Text" font-size="13" font-weight="400" font-style="normal" 
>
</g>

<g fill="none" stroke="#000000" stroke-opacity="1" stroke-width="1" stroke-linecap="square" stroke-linejoin="bevel" transform="matrix(3.95192,0,0,3.95192,-182,-153)"
font-family=".SF NS Text" font-size="13" font-weight="400" font-style="normal" 
>
</g>

<g fill="none" stroke="#000000" stroke-opacity="0.705882" stroke-width="1.5" stroke-linecap="round" stroke-linejoin="bevel" transform="matrix(3.95192,0,0,3.95192,-182,-153)"
font-family=".SF NS Text" font-size="13" font-weight="400" font-style="normal" 
>
<path vector-effect="none" fill-rule="evenodd" d="M176.281,128.349 C175.311,133.254 170.721,131.09 169.131,135.831 "/>
</g>

<g fill="none" stroke="#000000" stroke-opacity="1" stroke-width="1" stroke-linecap="square" stroke-linejoin="bevel" transform="matrix(3.95192,0,0,3.95192,-182,-153)"
font-family=".SF NS Text" font-size="13" font-weight="400" font-style="normal" 
>
</g>

<g fill="none" stroke="#000000" stroke-opacity="1" stroke-width="1" stroke-linecap="square" stroke-linejoin="bevel" transform="matrix(3.95192,0,0,3.95192,-182,-153)"
font-family=".SF NS Text" font-size="13" font-weight="400" font-style="normal" 
>
</g>

<g fill="#cb6288" fill-opacity="1" stroke="none" transform="matrix(3.95192,0,0,3.95192,-182,-153)"
font-family=".SF NS Text" font-size="13" font-weight="400" font-style="normal" 
>
<path vector-effect="none" fill-rule="nonzero" d="M186.861,116.964 L204.339,106.367 L205.516,108.309 L203.896,106.718 L217.222,93.143 L218.842,94.7338 L216.873,93.6033 L225.817,78.0215 L227.787,79.152 L225.534,78.8679 L227.682,61.8331 L229.935,62.1172 L228.152,63.5241 L217.487,50.011 L219.27,48.6041 L219.939,50.7739 L203.057,55.9854 L202.388,53.8156 L204.257,55.1041 L194.009,69.9768 L192.139,68.6883 L194.269,69.4765 L187.688,87.2561 L185.559,86.4679 L187.763,87.0153 L182.876,106.691 L180.672,106.144 L182.9,106.585 L178.509,128.79 L174.053,127.909 L178.444,105.704 C178.451,105.666 178.459,105.631 178.468,105.596 L178.468,105.597 L183.355,85.9206 C183.375,85.8374 183.4,85.7571 183.429,85.6792 L183.429,85.6797 L190.01,67.9001 C190.075,67.721 190.163,67.5534 190.269,67.3996 L190.269,67.3998 L200.518,52.5271 C200.804,52.1121 201.225,51.7972 201.717,51.6455 L201.718,51.6458 L218.6,46.4343 C218.811,46.3685 219.036,46.3333 219.27,46.3333 C220.524,46.3333 221.54,47.35 221.54,48.6041 C221.54,49.8583 220.524,50.875 219.27,50.875 C218.015,50.875 216.999,49.8583 216.999,48.6041 C216.999,48.551 217,48.4984 217.004,48.4467 L221.052,47.1973 L231.717,60.7103 C232.023,61.0971 232.206,61.5858 232.206,62.1172 C232.206,62.2137 232.2,62.3089 232.188,62.4016 L232.188,62.4013 L230.04,79.4361 C230.001,79.742 229.903,80.028 229.756,80.2828 L229.756,80.2825 L220.812,95.8643 C220.715,96.0327 220.598,96.1871 220.463,96.3245 L220.463,96.3245 L207.137,109.9 C207.005,110.035 206.856,110.153 206.694,110.251 L206.693,110.251 L189.215,120.848 L186.861,116.964"/>
</g>

<g fill="#000000" fill-opacity="1" stroke="none" transform="matrix(1.28881,0,0,1.28881,673.617,50.1119)"
font-family=".SF NS Text" font-size="13" font-weight="400" font-style="normal" 
>
<path vector-effect="none" fill-rule="evenodd" d="M-30.0352,-6.58252 L-30.0352,-6.57617 L-28.9307,-6.57617 L-28.9307,-6.58252 C-28.9307,-7.66162 -28.207,-8.37891 -27.1343,-8.37891 C-26.125,-8.37891 -25.3442,-7.67432 -25.3442,-6.76025 C-25.3442,-6.02393 -25.6299,-5.52881 -26.8105,-4.24658 L-29.978,-0.787109 L-29.978,0 L-24.0493,0 L-24.0493,-1.02832 L-28.3403,-1.02832 L-28.3403,-1.12988 L-26.1377,-3.49756 C-24.6333,-5.10986 -24.2017,-5.85254 -24.2017,-6.80469 C-24.2017,-8.2583 -25.4585,-9.37549 -27.1025,-9.37549 C-28.8037,-9.37549 -30.0352,-8.20752 -30.0352,-6.58252 M-18.9751,0.209473 C-17.0962,0.209473 -15.7632,-1.10449 -15.7632,-2.94531 C-15.7632,-4.72266 -17.0264,-6.01123 -18.772,-6.01123 C-19.8638,-6.01123 -20.7588,-5.49072 -21.2095,-4.60205 L-21.311,-4.60205 C-21.2476,-7.03955 -20.4033,-8.35986 -18.9116,-8.35986 C-18.0103,-8.35986 -17.3184,-7.83936 -17.0708,-6.98242 L-15.8965,-6.98242 C-16.1885,-8.45508 -17.3438,-9.37549 -18.8989,-9.37549 C-21.1396,-9.37549 -22.4219,-7.57275 -22.4219,-4.42432 C-22.4219,-3.41504 -22.2759,-2.5708 -21.9775,-1.87256 C-21.4062,-0.526855 -20.3525,0.209473 -18.9751,0.209473 M-18.9878,-0.793457 C-20.1621,-0.793457 -21.0571,-1.72021 -21.0571,-2.94531 C-21.0571,-4.15771 -20.1875,-5.021 -18.9751,-5.021 C-17.7627,-5.021 -16.9185,-4.15771 -16.9185,-2.90723 C-16.9185,-1.70752 -17.8135,-0.793457 -18.9878,-0.793457 M-13.6597,2.32959 L-12.7202,-1.28223 L-14.0024,-1.28223 L-14.6118,2.32959 L-13.6597,2.32959 M-10.9727,-6.58252 L-10.9727,-6.57617 L-9.86816,-6.57617 L-9.86816,-6.58252 C-9.86816,-7.66162 -9.14453,-8.37891 -8.07178,-8.37891 C-7.0625,-8.37891 -6.28174,-7.67432 -6.28174,-6.76025 C-6.28174,-6.02393 -6.56738,-5.52881 -7.74805,-4.24658 L-10.9155,-0.787109 L-10.9155,0 L-4.98682,0 L-4.98682,-1.02832 L-9.27783,-1.02832 L-9.27783,-1.12988 L-7.0752,-3.49756 C-5.5708,-5.10986 -5.13916,-5.85254 -5.13916,-6.80469 C-5.13916,-8.2583 -6.396,-9.37549 -8.04004,-9.37549 C-9.74121,-9.37549 -10.9727,-8.20752 -10.9727,-6.58252 M-3.20703,-6.58252 L-3.20703,-6.57617 L-2.10254,-6.57617 L-2.10254,-6.58252 C-2.10254,-7.66162 -1.37891,-8.37891 -0.306152,-8.37891 C0.703125,-8.37891 1.48389,-7.67432 1.48389,-6.76025 C1.48389,-6.02393 1.19824,-5.52881 0.0175781,-4.24658 L-3.1499,-0.787109 L-3.1499,0 L2.77881,0 L2.77881,-1.02832 L-1.51221,-1.02832 L-1.51221,-1.12988 L0.69043,-3.49756 C2.19482,-5.10986 2.62646,-5.85254 2.62646,-6.80469 C2.62646,-8.2583 1.36963,-9.37549 -0.274414,-9.37549 C-1.97559,-9.37549 -3.20703,-8.20752 -3.20703,-6.58252 M7.85303,0.209473 C9.73193,0.209473 11.0649,-1.10449 11.0649,-2.94531 C11.0649,-4.72266 9.80176,-6.01123 8.05615,-6.01123 C6.96436,-6.01123 6.06934,-5.49072 5.61865,-4.60205 L5.51709,-4.60205 C5.58057,-7.03955 6.4248,-8.35986 7.9165,-8.35986 C8.81787,-8.35986 9.50977,-7.83936 9.75732,-6.98242 L10.9316,-6.98242 C10.6396,-8.45508 9.48438,-9.37549 7.9292,-9.37549 C5.68848,-9.37549 4.40625,-7.57275 4.40625,-4.42432 C4.40625,-3.41504 4.55225,-2.5708 4.85059,-1.87256 C5.42188,-0.526855 6.47559,0.209473 7.85303,0.209473 M7.84033,-0.793457 C6.66602,-0.793457 5.771,-1.72021 5.771,-2.94531 C5.771,-4.15771 6.64062,-5.021 7.85303,-5.021 C9.06543,-5.021 9.90967,-4.15771 9.90967,-2.90723 C9.90967,-1.70752 9.01465,-0.793457 7.84033,-0.793457 M19.8057,0.120605 C21.5386,0.120605 22.6748,-1.28223 22.6748,-3.42139 C22.6748,-5.57324 21.5449,-6.96338 19.8057,-6.96338 C18.8662,-6.96338 18.0347,-6.5 17.6602,-5.76367 L17.5586,-5.76367 L17.5586,-9.55957 L16.4668,-9.55957 L16.4668,0 L17.5078,0 L17.5078,-1.0918 L17.6094,-1.0918 C18.041,-0.330078 18.8535,0.120605 19.8057,0.120605 M19.5518,-5.97949 C20.8022,-5.97949 21.5449,-5.021 21.5449,-3.42139 C21.5449,-1.82178 20.8022,-0.863281 19.5518,-0.863281 C18.3076,-0.863281 17.5332,-1.84082 17.5332,-3.42139 C17.5332,-5.00195 18.3076,-5.97949 19.5518,-5.97949 M27.6421,-6.96338 C26.709,-6.96338 25.8901,-6.4873 25.4521,-5.7002 L25.3506,-5.7002 L25.3506,-6.84277 L24.3096,-6.84277 L24.3096,2.28516 L25.4014,2.28516 L25.4014,-1.02832 L25.5029,-1.02832 C25.8774,-0.304688 26.6646,0.120605 27.6421,0.120605 C29.3813,0.120605 30.5176,-1.28223 30.5176,-3.42139 C30.5176,-5.57324 29.3877,-6.96338 27.6421,-6.96338 M27.3818,-0.863281 C26.1504,-0.863281 25.3696,-1.85352 25.3696,-3.42139 C25.3696,-4.99561 26.1504,-5.97949 27.3882,-5.97949 C28.6387,-5.97949 29.3877,-5.021 29.3877,-3.42139 C29.3877,-1.82178 28.6387,-0.863281 27.3818,-0.863281 "/>
</g>

<g fill="none" stroke="#000000" stroke-opacity="1" stroke-width="1" stroke-linecap="square" stroke-linejoin="bevel" transform="matrix(3.95192,0,0,3.95192,-182,-153)"
font-family=".SF NS Text" font-size="13" font-weight="400" font-style="normal" 
>
</g>

<g fill="none" stroke="#000000" stroke-opacity="1" stroke-width="1" stroke-linecap="square" stroke-linejoin="bevel" transform="matrix(3.95192,0,0,3.95192,-182,-153)"
font-family=".SF NS Text" font-size="13" font-weight="400" font-style="normal" 
>
</g>

<g fill="#cb9162" fill-opacity="1" stroke="none" transform="matrix(3.95192,0,0,3.95192,-182,-153)"
font-family=".SF NS Text" font-size="13" font-weight="400" font-style="normal" 
>
<path vector-effect="none" fill-rule="nonzero" d="M171.617,136.664 L164.808,156.969 C164.764,157.105 164.708,157.234 164.643,157.357 L164.642,157.357 L154.966,175.741 C154.893,175.882 154.806,176.015 154.708,176.139 L154.708,176.139 L142.197,192.073 C142.08,192.222 141.947,192.358 141.8,192.479 L141.8,192.479 L126.634,204.951 C126.459,205.095 126.266,205.217 126.058,205.312 L126.057,205.311 L108.749,213.211 C108.502,213.325 108.234,213.401 107.954,213.432 L107.953,213.432 L89.5833,215.493 C89.4875,215.504 89.3899,215.509 89.291,215.509 C89.0382,215.509 88.7937,215.473 88.563,215.407 L88.5636,215.406 L71.2148,210.397 C70.7976,210.277 70.4241,210.057 70.121,209.764 L70.121,209.764 L57.3202,197.406 C56.9728,197.07 56.7178,196.64 56.5973,196.156 L56.5976,196.155 L52.3036,178.975 C52.2524,178.771 52.2254,178.558 52.2254,178.339 C52.2254,178.073 52.2651,177.816 52.3387,177.574 L52.3392,177.575 L57.5247,160.554 C57.6362,160.186 57.8262,159.854 58.0751,159.574 L58.0751,159.574 L70.1273,146.046 C70.3065,145.845 70.5163,145.671 70.7492,145.533 L70.7497,145.533 L86.8041,136.032 C86.9623,135.937 87.1316,135.86 87.3088,135.801 L87.3099,135.801 L105.596,129.701 C105.714,129.661 105.836,129.63 105.961,129.608 L105.962,129.608 L125.575,126.083 C125.652,126.068 125.731,126.058 125.81,126.051 L125.81,126.051 L146.424,124.25 C146.449,124.247 146.475,124.245 146.5,124.244 L146.5,124.244 L168.722,122.957 L169.025,128.193 L146.803,129.479 L146.652,126.862 L146.88,129.474 L126.267,131.275 L126.039,128.663 L126.503,131.244 L106.89,134.769 L106.426,132.189 L107.255,134.676 L88.9693,140.776 L88.1396,138.288 L89.4751,140.545 L73.4206,150.046 L72.0851,147.79 L74.043,149.534 L61.9908,163.063 L60.033,161.319 L62.5412,162.083 L57.3557,179.103 L54.8474,178.339 L57.3913,177.703 L61.6852,194.884 L59.1414,195.519 L60.9626,193.633 L73.7634,205.992 L71.9422,207.878 L72.6695,205.359 L90.0183,210.368 L89.291,212.887 L88.9986,210.281 L107.368,208.22 L107.66,210.826 L106.571,208.441 L123.88,200.541 L124.968,202.926 L123.303,200.901 L138.469,188.429 L140.135,190.454 L138.072,188.834 L150.584,172.9 L152.646,174.52 L150.326,173.299 L160.002,154.914 L162.322,156.136 L159.836,155.302 L166.645,134.997 L171.617,136.664"/>
</g>

<g fill="#000000" fill-opacity="1" stroke="none" transform="matrix(1.28881,0,0,1.28881,53.168,628.735)"
font-family=".SF NS Text" font-size="13" font-weight="400" font-style="normal" 
>
<path vector-effect="none" fill-rule="evenodd" d="M-26.2949,0 L-25.1777,0 L-25.1777,-1.89795 L-23.8765,-1.89795 L-23.8765,-2.91992 L-25.1777,-2.91992 L-25.1777,-9.15967 L-26.8345,-9.15967 C-28.4849,-6.69043 -29.9385,-4.39258 -30.7573,-2.93896 L-30.7573,-1.89795 L-26.2949,-1.89795 L-26.2949,0 M-29.5894,-2.98975 C-28.4976,-4.84326 -27.3042,-6.73486 -26.3647,-8.09961 L-26.2886,-8.09961 L-26.2886,-2.91357 L-29.5894,-2.91357 L-29.5894,-2.98975 M-22.2539,-6.58252 L-22.2539,-6.57617 L-21.1494,-6.57617 L-21.1494,-6.58252 C-21.1494,-7.66162 -20.4258,-8.37891 -19.353,-8.37891 C-18.3438,-8.37891 -17.563,-7.67432 -17.563,-6.76025 C-17.563,-6.02393 -17.8486,-5.52881 -19.0293,-4.24658 L-22.1968,-0.787109 L-22.1968,0 L-16.2681,0 L-16.2681,-1.02832 L-20.5591,-1.02832 L-20.5591,-1.12988 L-18.3564,-3.49756 C-16.8521,-5.10986 -16.4204,-5.85254 -16.4204,-6.80469 C-16.4204,-8.2583 -17.6772,-9.37549 -19.3213,-9.37549 C-21.0225,-9.37549 -22.2539,-8.20752 -22.2539,-6.58252 M-13.8315,2.32959 L-12.8921,-1.28223 L-14.1743,-1.28223 L-14.7837,2.32959 L-13.8315,2.32959 M-8.1001,0.209473 C-6.22119,0.209473 -4.88818,-1.10449 -4.88818,-2.94531 C-4.88818,-4.72266 -6.15137,-6.01123 -7.89697,-6.01123 C-8.98877,-6.01123 -9.88379,-5.49072 -10.3345,-4.60205 L-10.436,-4.60205 C-10.3726,-7.03955 -9.52832,-8.35986 -8.03662,-8.35986 C-7.13525,-8.35986 -6.44336,-7.83936 -6.1958,-6.98242 L-5.02148,-6.98242 C-5.31348,-8.45508 -6.46875,-9.37549 -8.02393,-9.37549 C-10.2646,-9.37549 -11.5469,-7.57275 -11.5469,-4.42432 C-11.5469,-3.41504 -11.4009,-2.5708 -11.1025,-1.87256 C-10.5312,-0.526855 -9.47754,0.209473 -8.1001,0.209473 M-8.11279,-0.793457 C-9.28711,-0.793457 -10.1821,-1.72021 -10.1821,-2.94531 C-10.1821,-4.15771 -9.3125,-5.021 -8.1001,-5.021 C-6.8877,-5.021 -6.04346,-4.15771 -6.04346,-2.90723 C-6.04346,-1.70752 -6.93848,-0.793457 -8.11279,-0.793457 M1.04883,0 L2.16602,0 L2.16602,-1.89795 L3.46729,-1.89795 L3.46729,-2.91992 L2.16602,-2.91992 L2.16602,-9.15967 L0.509277,-9.15967 C-1.14111,-6.69043 -2.59473,-4.39258 -3.41357,-2.93896 L-3.41357,-1.89795 L1.04883,-1.89795 L1.04883,0 M-2.24561,-2.98975 C-1.15381,-4.84326 0.0395508,-6.73486 0.979004,-8.09961 L1.05518,-8.09961 L1.05518,-2.91357 L-2.24561,-2.91357 L-2.24561,-2.98975 M8.38428,0.209473 C10.2632,0.209473 11.5962,-1.10449 11.5962,-2.94531 C11.5962,-4.72266 10.333,-6.01123 8.5874,-6.01123 C7.49561,-6.01123 6.60059,-5.49072 6.1499,-4.60205 L6.04834,-4.60205 C6.11182,-7.03955 6.95605,-8.35986 8.44775,-8.35986 C9.34912,-8.35986 10.041,-7.83936 10.2886,-6.98242 L11.4629,-6.98242 C11.1709,-8.45508 10.0156,-9.37549 8.46045,-9.37549 C6.21973,-9.37549 4.9375,-7.57275 4.9375,-4.42432 C4.9375,-3.41504 5.0835,-2.5708 5.38184,-1.87256 C5.95312,-0.526855 7.00684,0.209473 8.38428,0.209473 M8.37158,-0.793457 C7.19727,-0.793457 6.30225,-1.72021 6.30225,-2.94531 C6.30225,-4.15771 7.17188,-5.021 8.38428,-5.021 C9.59668,-5.021 10.4409,-4.15771 10.4409,-2.90723 C10.4409,-1.70752 9.5459,-0.793457 8.37158,-0.793457 M20.3369,0.120605 C22.0698,0.120605 23.2061,-1.28223 23.2061,-3.42139 C23.2061,-5.57324 22.0762,-6.96338 20.3369,-6.96338 C19.3975,-6.96338 18.5659,-6.5 18.1914,-5.76367 L18.0898,-5.76367 L18.0898,-9.55957 L16.998,-9.55957 L16.998,0 L18.0391,0 L18.0391,-1.0918 L18.1406,-1.0918 C18.5723,-0.330078 19.3848,0.120605 20.3369,0.120605 M20.083,-5.97949 C21.3335,-5.97949 22.0762,-5.021 22.0762,-3.42139 C22.0762,-1.82178 21.3335,-0.863281 20.083,-0.863281 C18.8389,-0.863281 18.0645,-1.84082 18.0645,-3.42139 C18.0645,-5.00195 18.8389,-5.97949 20.083,-5.97949 M28.1733,-6.96338 C27.2402,-6.96338 26.4214,-6.4873 25.9834,-5.7002 L25.8818,-5.7002 L25.8818,-6.84277 L24.8408,-6.84277 L24.8408,2.28516 L25.9326,2.28516 L25.9326,-1.02832 L26.0342,-1.02832 C26.4087,-0.304688 27.1958,0.120605 28.1733,0.120605 C29.9126,0.120605 31.0488,-1.28223 31.0488,-3.42139 C31.0488,-5.57324 29.9189,-6.96338 28.1733,-6.96338 M27.9131,-0.863281 C26.6816,-0.863281 25.9009,-1.85352 25.9009,-3.42139 C25.9009,-4.99561 26.6816,-5.97949 27.9194,-5.97949 C29.1699,-5.97949 29.9189,-5.021 29.9189,-3.42139 C29.9189,-1.82178 29.1699,-0.863281 27.9131,-0.863281 "/>
</g>

<g fill="none" stroke="#000000" stroke-opacity="1" stroke-width="1" stroke-linecap="square" stroke-linejoin="bevel" transform="matrix(3.95192,0,0,3.95192,-182,-153)"
font-family=".SF NS Text" font-size="13" font-weight="400" font-style="normal" 
>
</g>

<g fill="none" stroke="#000000" stroke-opacity="1" stroke-width="1" stroke-linecap="square" stroke-linejoin="bevel" transform="matrix(1,0,0,1,0,0)"
font-family=".SF NS Text" font-size="13" font-weight="400" font-style="normal" 
>
</g>
</g>
</svg>
