<?xml version="1.0" encoding="UTF-8" standalone="no"?>
<!-- Generator: Adobe Illustrator 15.0.0, SVG Export Plug-In . SVG Version: 6.00 Build 0)  -->

<svg
   xmlns:dc="http://purl.org/dc/elements/1.1/"
   xmlns:cc="http://creativecommons.org/ns#"
   xmlns:rdf="http://www.w3.org/1999/02/22-rdf-syntax-ns#"
   xmlns:svg="http://www.w3.org/2000/svg"
   xmlns="http://www.w3.org/2000/svg"
   xmlns:xlink="http://www.w3.org/1999/xlink"
   xmlns:sodipodi="http://sodipodi.sourceforge.net/DTD/sodipodi-0.dtd"
   xmlns:inkscape="http://www.inkscape.org/namespaces/inkscape"
   version="1.0"
   id="Layer_1"
   x="0px"
   y="0px"
   width="562.75049"
   height="497.228"
   viewBox="0 0 562.7505 497.228"
   enable-background="new 0 0 566.93 566.93"
   xml:space="preserve"
   inkscape:version="0.48.2 r9819"
   sodipodi:docname="AJAX.svg"><metadata
   id="metadata61"><rdf:RDF><cc:Work
       rdf:about=""><dc:format>image/svg+xml</dc:format><dc:type
         rdf:resource="http://purl.org/dc/dcmitype/StillImage" /></cc:Work></rdf:RDF></metadata><defs
   id="defs59" /><sodipodi:namedview
   pagecolor="#ffffff"
   bordercolor="#666666"
   borderopacity="1"
   objecttolerance="10"
   gridtolerance="10"
   guidetolerance="10"
   inkscape:pageopacity="0"
   inkscape:pageshadow="2"
   inkscape:window-width="1280"
   inkscape:window-height="1004"
   id="namedview57"
   showgrid="false"
   fit-margin-top="0"
   fit-margin-left="0"
   fit-margin-right="0"
   fit-margin-bottom="0"
   inkscape:zoom="0.9207486"
   inkscape:cx="304.24093"
   inkscape:cy="124.8282"
   inkscape:window-x="-8"
   inkscape:window-y="-8"
   inkscape:window-maximized="1"
   inkscape:current-layer="g5" />
<g
   id="g3"
   transform="translate(-2.169,-60.000004)">
	<g
   id="g5"
   style="stroke:none">
		<defs
   id="defs7">
			<polyline
   id="SVGID_1_"
   points="2.169,60 2.169,557.228 564.93,557.228 564.93,60    " />
		</defs>
		<clipPath
   id="SVGID_2_">
			<use
   xlink:href="#SVGID_1_"
   overflow="visible"
   id="use11"
   style="overflow:visible"
   x="0"
   y="0"
   width="566.92999"
   height="566.92999" />
		</clipPath>
		<polyline
   clip-path="url(#SVGID_2_)"
   clip-rule="evenodd"
   points="119.681,525.969     34.097,525.969 282.332,95.835 529.009,525.969 119.681,525.969   "
   id="polyline13"
   style="fill:#ffffff;fill-opacity:1;fill-rule:evenodd;stroke:none" />
		<path
   clip-path="url(#SVGID_2_)"
   clip-rule="evenodd"
   d="m 527.929,557.228 c 13.28,-0.118 25.399,-7.234 32.03,-18.597 6.614,-11.516 6.614,-25.927 0,-37.442 L 315.852,78.596 C 309.188,67.08 296.917,60 283.635,60 270.302,60 257.964,67.146 251.331,78.697 L 7.141,501.188 c -6.634,11.516 -6.634,25.755 0,37.271 6.632,11.534 19.09,18.65 32.355,18.65 l 488.433,0.119 M 60.986,507.496 H 506.13 L 283.635,122.209 60.986,507.496 z"
   id="path15"
   style="fill:#c0111e;fill-opacity:1;fill-rule:evenodd;stroke:none"
   inkscape:connector-curvature="0" />
	<path
   inkscape:connector-curvature="0"
   d="m 254.06134,233.45725 c 0,-33.76808 59.04259,-33.5983 59.04259,0 l -15.48658,177.52149 c 0,13.98941 -27.58548,14.02892 -27.58548,0 L 254.06134,233.45725 z"
   style="fill:#000000;fill-opacity:1;fill-rule:evenodd;stroke:none"
   id="path37169" /><path
   inkscape:connector-curvature="0"
   d="m 312.86194,461.80322 c 0,16.25086 -13.10879,29.42479 -29.2793,29.42479 -16.17051,0 -29.27931,-13.17393 -29.27931,-29.42479 0,-16.25085 13.1088,-29.42478 29.27931,-29.42478 16.17051,0 29.2793,13.17393 29.2793,29.42478 z"
   style="fill:#000000;fill-opacity:1;fill-rule:nonzero;stroke:none"
   id="path37167" /></g>
	
	
	
	
	
	
	
	
	
	
	
	
	
	
	
	
	
	
	
	
</g>
</svg>